<?xml version="1.0" encoding="UTF-8"?>
<svg version="1.1" xmlns="http://www.w3.org/2000/svg" width="269" height="186">
<path d="M0 0 C6.03291303 4.36256251 9.94743675 8.96648241 11.4609375 16.421875 C12.34737562 25.98517858 9.61894076 34.10148735 6.51123047 43.03417969 C6.17696045 43.99952637 6.17696045 43.99952637 5.8359375 44.984375 C5.50553467 45.93812012 5.50553467 45.93812012 5.16845703 46.91113281 C3.44280754 52.07078487 2.60137176 56.99600582 2.4609375 62.421875 C3.4509375 62.751875 4.4409375 63.081875 5.4609375 63.421875 C4.89052734 64.48341797 4.89052734 64.48341797 4.30859375 65.56640625 C2.91141429 70.27303383 5.37057646 73.12557856 7.58984375 77.26171875 C10.29824127 81.83602688 13.27860497 86.16621137 16.4609375 90.421875 C17.4509375 88.111875 18.4409375 85.801875 19.4609375 83.421875 C20.1209375 83.421875 20.7809375 83.421875 21.4609375 83.421875 C22.5859375 89.171875 22.5859375 89.171875 21.4609375 91.421875 C20.4709375 91.421875 19.4809375 91.421875 18.4609375 91.421875 C18.4609375 92.081875 18.4609375 92.741875 18.4609375 93.421875 C20.92420462 95.0665424 20.92420462 95.0665424 23.4609375 96.421875 C23.1309375 97.081875 22.8009375 97.741875 22.4609375 98.421875 C21.8009375 98.421875 21.1409375 98.421875 20.4609375 98.421875 C20.4609375 100.071875 20.4609375 101.721875 20.4609375 103.421875 C25.0809375 103.421875 29.7009375 103.421875 34.4609375 103.421875 C34.09261874 113.61202725 34.09261874 113.61202725 31.0234375 117.546875 C28.4609375 119.421875 28.4609375 119.421875 26.4609375 120.421875 C25.80538631 122.94920735 25.80538631 122.94920735 25.4609375 125.421875 C26.28078125 125.2053125 27.100625 124.98875 27.9453125 124.765625 C29.56179687 124.34796875 29.56179687 124.34796875 31.2109375 123.921875 C32.81195313 123.50421875 32.81195313 123.50421875 34.4453125 123.078125 C37.4609375 122.421875 37.4609375 122.421875 41.4609375 122.421875 C42.07106648 129.98747439 40.77395553 135.11903465 36.4609375 141.421875 C31.61525168 146.82511881 25.96764402 151.13421288 18.5234375 151.609375 C17.8428125 151.5475 17.1621875 151.485625 16.4609375 151.421875 C16.4609375 152.741875 16.4609375 154.061875 16.4609375 155.421875 C-45.2490625 155.421875 -106.9590625 155.421875 -170.5390625 155.421875 C-170.5390625 154.761875 -170.5390625 154.101875 -170.5390625 153.421875 C-171.4878125 153.380625 -172.4365625 153.339375 -173.4140625 153.296875 C-182.27358305 151.99031944 -190.11820985 145.21906885 -195.5390625 138.421875 C-201.929682 128.35624275 -203.27708316 119.11401396 -201.5390625 107.421875 C-201.2090625 106.431875 -200.8790625 105.441875 -200.5390625 104.421875 C-197.09620028 104.85223278 -194.40826251 105.90281762 -191.3515625 107.46875 C-190.63613281 107.83323242 -189.92070312 108.19771484 -189.18359375 108.57324219 C-188.64089844 108.85329102 -188.09820312 109.13333984 -187.5390625 109.421875 C-187.63445312 108.21273437 -187.72984375 107.00359375 -187.828125 105.7578125 C-189.20095745 86.46892318 -187.27681635 69.83980699 -174.5390625 54.421875 C-167.62478693 46.80763573 -157.50645669 42.33868158 -147.5390625 40.421875 C-147.3946875 39.82375 -147.2503125 39.225625 -147.1015625 38.609375 C-146.6518186 36.86037096 -146.11013909 35.13510477 -145.5390625 33.421875 C-146.15394531 33.25171875 -146.76882812 33.0815625 -147.40234375 32.90625 C-153.87444712 30.96565122 -153.87444712 30.96565122 -156.6015625 28.734375 C-158.02006992 25.23539003 -158.25302485 22.08358289 -157.5390625 18.421875 C-153.55146819 11.2717059 -146.83259795 9.96499264 -139.30941772 7.77191162 C-134.01237846 6.27724442 -128.69446374 4.86542136 -123.36914062 3.4753418 C-120.54275452 2.73534164 -117.7206326 1.9804144 -114.8984375 1.22460938 C-91.66914325 -4.91958818 -91.66914325 -4.91958818 -85.4765625 -2.265625 C-81.59786524 1.11259519 -81.59786524 1.11259519 -81.1328125 3.55859375 C-80.97366688 7.88868083 -80.96363828 11.46624431 -83.6015625 15.046875 C-90.64564368 22.12457948 -100.96128579 26.33005459 -110.5390625 28.421875 C-110.8690625 30.731875 -111.1990625 33.041875 -111.5390625 35.421875 C-94.52194478 30.95127628 -80.83787105 23.9692918 -66.54589844 13.84033203 C-47.13183193 0.1182242 -23.26238542 -14.45846725 0 0 Z " fill="#E327FD" transform="translate(214.5390625,14.578125)"/>
<path d="M0 0 C1.36125 0.99 1.36125 0.99 2.75 2 C6.46243397 4.28457475 7.70707286 4.11673869 11.9375 3.875 C16.41893986 3.69663423 18.74677795 3.91768518 22.1875 6.875 C25.38699134 10.09784529 26.18641808 12.28018682 26.3125 16.8125 C26.28980432 22.59989772 24.73961961 27.32541416 22.890625 32.76171875 C21.57522265 37.54447554 21.6453656 42.08437324 22 47 C23.65 47.33 25.3 47.66 27 48 C26.61972656 48.70769531 26.23945313 49.41539063 25.84765625 50.14453125 C24.45047679 54.85115883 26.90963896 57.70370356 29.12890625 61.83984375 C31.83730377 66.41415188 34.81766747 70.74433637 38 75 C38.99 72.69 39.98 70.38 41 68 C41.66 68 42.32 68 43 68 C44.125 73.75 44.125 73.75 43 76 C42.01 76 41.02 76 40 76 C40 76.66 40 77.32 40 78 C42.46326712 79.6446674 42.46326712 79.6446674 45 81 C44.67 81.66 44.34 82.32 44 83 C43.34 83 42.68 83 42 83 C42 84.65 42 86.3 42 88 C46.62 88 51.24 88 56 88 C55.63168124 98.19015225 55.63168124 98.19015225 52.5625 102.125 C50 104 50 104 48 105 C47.34444881 107.52733235 47.34444881 107.52733235 47 110 C47.81984375 109.7834375 48.6396875 109.566875 49.484375 109.34375 C50.56203125 109.0653125 51.6396875 108.786875 52.75 108.5 C53.81734375 108.2215625 54.8846875 107.943125 55.984375 107.65625 C59 107 59 107 63 107 C63.61012898 114.56559939 62.31301803 119.69715965 58 126 C53.15431418 131.40324381 47.50670652 135.71233788 40.0625 136.1875 C39.381875 136.125625 38.70125 136.06375 38 136 C38 137.32 38 138.64 38 140 C-23.71 140 -85.42 140 -149 140 C-149 139.34 -149 138.68 -149 138 C-149.94875 137.95875 -150.8975 137.9175 -151.875 137.875 C-160.73452055 136.56844444 -168.57914735 129.79719385 -174 123 C-180.3906195 112.93436775 -181.73802066 103.69213896 -180 92 C-179.67 91.01 -179.34 90.02 -179 89 C-168.72262641 90.6023862 -160.0630471 97.8552407 -152 104 C-153.18218601 99.20029281 -153.18218601 99.20029281 -157 96.3125 C-157.99 95.879375 -158.98 95.44625 -160 95 C-162.26954631 91.59568053 -162.36549949 89.83475798 -162.625 85.8125 C-162.69976562 84.72582031 -162.77453125 83.63914062 -162.8515625 82.51953125 C-162.90054688 81.68808594 -162.94953125 80.85664062 -163 80 C-160.94099907 79.72265288 -158.87741707 79.47918058 -156.8125 79.25 C-155.08966797 79.04117188 -155.08966797 79.04117188 -153.33203125 78.828125 C-149.23161762 79.0396352 -147.85791252 80.13184407 -145 83 C-143.98343919 84.65661761 -142.97934924 86.32111559 -142 88 C-141.34 88 -140.68 88 -140 88 C-140.33 87.34 -140.66 86.68 -141 86 C-138.625 85.875 -138.625 85.875 -136 86 C-134 88 -134 88 -133.8046875 90.8203125 C-133.82789063 91.91085938 -133.85109375 93.00140625 -133.875 94.125 C-133.89304688 95.22070312 -133.91109375 96.31640625 -133.9296875 97.4453125 C-133.95289063 98.28835937 -133.97609375 99.13140625 -134 100 C-135.32 100 -136.64 100 -138 100 C-138 112.54 -138 125.08 -138 138 C-84.21 138 -30.42 138 25 138 C25 125.46 25 112.92 25 100 C11.14 100 -2.72 100 -17 100 C-17 99.67 -17 99.34 -17 99 C-14.525 98.505 -14.525 98.505 -12 98 C-12.49346924 97.29335205 -12.98693848 96.5867041 -13.49536133 95.85864258 C-15.20961082 92.60176325 -15.28812659 90.89815208 -15.07421875 87.26171875 C-14.99204102 85.66166992 -14.99204102 85.66166992 -14.90820312 84.02929688 C-14.83537109 82.92650391 -14.76253906 81.82371094 -14.6875 80.6875 C-14.62626953 79.56537109 -14.56503906 78.44324219 -14.50195312 77.28710938 C-14.34907689 74.52357748 -14.18128314 71.76178986 -14 69 C-12.5534668 70.29597982 -11.10693359 71.59195964 -9.66040039 72.88793945 C-7.83859806 74.31335877 -7.83859806 74.31335877 -4.4375 74.1875 C0.11809227 72.61374994 1.41969663 71.03172401 4 67 C2.75616297 63.26848892 1.15652193 62.25465852 -2 60 C-2.99 59.67 -3.98 59.34 -5 59 C-5.33 59.66 -5.66 60.32 -6 61 C-7.73199708 59.03934038 -9.45730335 57.07359553 -11.171875 55.09765625 C-12.59510613 53.46458976 -14.04284524 51.85287024 -15.5 50.25 C-17 48 -17 48 -17 45.875 C-15.68644772 43.41208948 -14.45136942 42.3307434 -12 41 C-9.875 41.0625 -9.875 41.0625 -8 42 C-7.5978125 42.99 -7.5978125 42.99 -7.1875 44 C-6.07669627 46.38383524 -6.07669627 46.38383524 -2.6875 47 C1.0465489 47.32775786 1.0465489 47.32775786 3.875 45.1875 C6.03236412 43.18731091 6.03236412 43.18731091 7 41 C6.34 41 5.68 41 5 41 C3.39274365 37.78548731 3.94251815 34.56387464 4 31 C5.98 30.505 5.98 30.505 8 30 C8.33 28.02 8.66 26.04 9 24 C7.02 24.66 5.04 25.32 3 26 C3 24.35 3 22.7 3 21 C1.02 20.01 1.02 20.01 -1 19 C-1 18.34 -1 17.68 -1 17 C-1.88751953 17.06960937 -1.88751953 17.06960937 -2.79296875 17.140625 C-9.35333461 17.44028282 -9.35333461 17.44028282 -12.9375 15 C-13.618125 14.34 -14.29875 13.68 -15 13 C-15.66 13 -16.32 13 -17 13 C-17.33 14.65 -17.66 16.3 -18 18 C-20 16 -20 16 -20.375 13.25 C-19.88971633 9.04420815 -18.77912948 7.19599891 -16 4 C-10.85282043 0.31042881 -6.24335018 -0.80559357 0 0 Z " fill="#9302C1" transform="translate(193,30)"/>
<path d="M0 0 C1.77537895 0.01665459 1.77537895 0.01665459 3.58662415 0.03364563 C4.24055145 0.0329155 4.89447876 0.03218536 5.56822205 0.03143311 C7.72795314 0.03491448 9.88552235 0.073794 12.0448761 0.11299133 C13.54273297 0.12231769 15.04060509 0.12943464 16.53848267 0.13442993 C20.47951931 0.15351425 24.41963346 0.20262571 28.36030579 0.25794983 C32.38198873 0.30911241 36.40382085 0.33193747 40.42573547 0.35713196 C48.31613262 0.41074454 56.20578021 0.49607295 64.09565735 0.60127258 C64.59810471 1.76986565 64.59810471 1.76986565 65.11070251 2.96206665 C67.5743917 8.6491239 67.5743917 8.6491239 72.0294342 12.62333679 C74.26322134 12.97005516 76.29907426 12.99911482 78.55659485 12.89424133 C79.25824768 12.90282166 79.95990051 12.91140198 80.68281555 12.92024231 C83.27908425 12.93610231 85.87523558 12.85695254 88.47065735 12.78877258 C94.28690735 12.72689758 100.10315735 12.66502258 106.09565735 12.60127258 C106.09565735 25.14127258 106.09565735 37.68127258 106.09565735 50.60127258 C52.30565735 50.60127258 -1.48434265 50.60127258 -56.90434265 50.60127258 C-56.90434265 38.06127258 -56.90434265 25.52127258 -56.90434265 12.60127258 C-40.73434265 12.27127258 -24.56434265 11.94127258 -7.90434265 11.60127258 C-7.24434265 9.62127258 -6.58434265 7.64127258 -5.90434265 5.60127258 C-3.84052696 0.79508648 -3.84052696 0.79508648 0 0 Z " fill="#E79B47" transform="translate(111.90434265136719,117.39872741699219)"/>
<path d="M0 0 C1.45742463 -0.08096803 2.91612807 -0.13917774 4.375 -0.1875 C5.18710938 -0.22230469 5.99921875 -0.25710937 6.8359375 -0.29296875 C7.55007812 -0.19628906 8.26421875 -0.09960938 9 0 C11 3 11 3 10.625 6.1875 C10.41875 7.115625 10.2125 8.04375 10 9 C10.66 9 11.32 9 12 9 C12 8.34 12 7.68 12 7 C12.66 7 13.32 7 14 7 C13.65358932 16.07595993 13.65358932 16.07595993 11.1875 19.5625 C9.06118728 20.95979122 7.50581432 21.64202653 5 22 C5 22.66 5 23.32 5 24 C6.051875 24.0825 7.10375 24.165 8.1875 24.25 C13.69457761 25.33335953 16.06836238 27.65375925 19.23828125 32.234375 C19.93928653 33.40053332 20.6306184 34.57255739 21.3125 35.75 C21.67150391 36.35199219 22.03050781 36.95398438 22.40039062 37.57421875 C23.2755033 39.04440804 24.13897531 40.52151591 25 42 C25.66 41.67 26.32 41.34 27 41 C27.85156732 38.18224845 28.47363693 35.33975854 29.12109375 32.46875 C29.41113281 31.6540625 29.70117188 30.839375 30 30 C30.99 29.67 31.98 29.34 33 29 C33.495 31.97 33.495 31.97 34 35 C36.47080278 32.18839683 38.05824128 29.85925024 39.5 26.375 C41.00790967 22.98220325 41.72417079 21.63791461 45 20 C47.6875 19.75 47.6875 19.75 50 20 C50.33 20.33 50.66 20.66 51 21 C54.95183868 21.25299591 58.91602259 21.18522734 62.875 21.1875 C64.54755859 21.20586914 64.54755859 21.20586914 66.25390625 21.22460938 C67.85685547 21.22750977 67.85685547 21.22750977 69.4921875 21.23046875 C70.47558105 21.23457764 71.45897461 21.23868652 72.47216797 21.24291992 C75.24600742 21.17729178 75.24600742 21.17729178 78 19 C81.49391742 19.0919452 82.92734981 19.94255567 85.6875 22.125 C88 25 88 25 88.83203125 28.24609375 C90.19355047 32.62208027 92.16596614 35.41115216 95 38.9375 C95.67675781 39.82018555 95.67675781 39.82018555 96.3671875 40.72070312 C97.52267539 42.19241181 98.75585434 43.60243773 100 45 C100.66 45 101.32 45 102 45 C106.36317471 45.467483 108.83117502 48.19126877 112 51 C110.60730712 55.87442507 108.24086927 58.27944235 104 61 C100.3125 61.0625 100.3125 61.0625 97 60 C96.01 58.68 95.02 57.36 94 56 C93.34 62.93 92.68 69.86 92 77 C91.34 76.67 90.68 76.34 90 76 C90 75.34 90 74.68 90 74 C67.89 74 45.78 74 23 74 C20.32161928 79.78756784 20.32161928 79.78756784 19 86 C3.82 86 -11.36 86 -27 86 C-27 68.5773117 -27 68.5773117 -25.6875 60.3125 C-25.55142334 59.41893799 -25.41534668 58.52537598 -25.27514648 57.60473633 C-21.55327271 33.96279348 -21.55327271 33.96279348 -14.125 27 C-10.68879335 24.80082774 -8.99377357 24.52455077 -5 25 C-5.33 22.03 -5.66 19.06 -6 16 C-8.475 15.505 -8.475 15.505 -11 15 C-11.33 13.35 -11.66 11.7 -12 10 C-10.34385343 9.61781233 -8.67542976 9.28604898 -7 9 C-6.67 9.33 -6.34 9.66 -6 10 C-5.67 9.01 -5.34 8.02 -5 7 C-3.66666667 5.66666667 -2.33333333 4.33333333 -1 3 C-0.67 2.01 -0.34 1.02 0 0 Z " fill="#FFECCB" transform="translate(86,44)"/>
<path d="M0 0 C2.32643863 4.14712973 2.31892217 7.94040813 1.4375 12.5625 C-1.83124922 20.19990932 -12.25434307 24.585975 -19.5625 27.5625 C-22.21837077 28.35420899 -24.85155483 28.97041996 -27.5625 29.5625 C-28.18271955 32.48639215 -28.65304844 35.3386295 -29 38.3125 C-29.185625 39.385 -29.37125 40.4575 -29.5625 41.5625 C-30.5525 42.0575 -30.5525 42.0575 -31.5625 42.5625 C-31.5625 40.9125 -31.5625 39.2625 -31.5625 37.5625 C-32.2225 37.5625 -32.8825 37.5625 -33.5625 37.5625 C-33.5625 38.2225 -33.5625 38.8825 -33.5625 39.5625 C-34.2225 39.5625 -34.8825 39.5625 -35.5625 39.5625 C-35.5625 37.2525 -35.5625 34.9425 -35.5625 32.5625 C-38.72986204 30.97881898 -41.0778015 31.14193294 -44.5625 31.5625 C-46.91572796 34.46662546 -46.91572796 34.46662546 -48.5625 37.5625 C-49.2225 37.5625 -49.8825 37.5625 -50.5625 37.5625 C-50.5625 39.2125 -50.5625 40.8625 -50.5625 42.5625 C-51.2225 41.9025 -51.8825 41.2425 -52.5625 40.5625 C-53.8825 40.5625 -55.2025 40.5625 -56.5625 40.5625 C-56.0675 43.0375 -56.0675 43.0375 -55.5625 45.5625 C-54.6034375 45.748125 -54.6034375 45.748125 -53.625 45.9375 C-52.944375 46.14375 -52.26375 46.35 -51.5625 46.5625 C-50.0841774 49.51914519 -50.50217217 52.30479737 -50.5625 55.5625 C-51.779375 55.76875 -52.99625 55.975 -54.25 56.1875 C-57.95323965 57.14759917 -60.18511767 58.41863821 -62.4765625 61.6328125 C-67.66599729 70.85432612 -68.97534206 81.26387364 -70.5625 91.5625 C-70.77190349 92.88935954 -70.98152881 94.2161841 -71.19140625 95.54296875 C-71.66000666 98.54790981 -72.11775794 101.55395075 -72.5625 104.5625 C-74.5425 104.2325 -76.5225 103.9025 -78.5625 103.5625 C-76.9125 104.2225 -75.2625 104.8825 -73.5625 105.5625 C-73.5625 105.8925 -73.5625 106.2225 -73.5625 106.5625 C-76.321707 106.5625 -78.03091818 106.53657557 -80.5625 105.5625 C-82.4138489 103.62338964 -83.83817878 101.61899283 -85.30078125 99.375 C-86.44620887 97.42123932 -86.44620887 97.42123932 -88.5625 96.5625 C-92.75361437 96.40434474 -96.47673053 96.67642951 -100.5625 97.5625 C-100.42116501 99.33369803 -100.27426792 101.10445287 -100.125 102.875 C-100.00318359 104.35419922 -100.00318359 104.35419922 -99.87890625 105.86328125 C-99.64437441 108.65625599 -99.64437441 108.65625599 -98.5625 111.5625 C-96.58001285 112.27956982 -94.57834651 112.94540413 -92.5625 113.5625 C-90.5625 115.5625 -90.5625 115.5625 -90.4375 118.1875 C-90.47875 118.97125 -90.52 119.755 -90.5625 120.5625 C-102.28526964 114.91522969 -102.28526964 114.91522969 -104.625 108.7734375 C-107.63394579 91.93169925 -104.55360844 74.79356738 -95.53125 60.28515625 C-88.12186083 50.03844147 -76.86595148 43.92854836 -64.5625 41.5625 C-64.418125 40.964375 -64.27375 40.36625 -64.125 39.75 C-63.6752561 38.00099596 -63.13357659 36.27572977 -62.5625 34.5625 C-63.17738281 34.39234375 -63.79226562 34.2221875 -64.42578125 34.046875 C-70.89788462 32.10627622 -70.89788462 32.10627622 -73.625 29.875 C-75.04350742 26.37601503 -75.27646235 23.22420789 -74.5625 19.5625 C-70.57217753 12.40743902 -63.83275929 11.06986564 -56.29000854 8.91253662 C-50.89582073 7.42350047 -45.48181901 6.01226129 -40.06298828 4.6159668 C-37.17209801 3.87103116 -34.28318123 3.11880587 -31.39453125 2.36523438 C-29.54698366 1.88499843 -27.69933108 1.40516621 -25.8515625 0.92578125 C-24.9931778 0.70287918 -24.13479309 0.47997711 -23.25039673 0.25032043 C-7.00789804 -3.93125988 -7.00789804 -3.93125988 0 0 Z " fill="#E027FC" transform="translate(131.5625,13.4375)"/>
<path d="M0 0 C1.45742463 -0.08096803 2.91612807 -0.13917774 4.375 -0.1875 C5.18710938 -0.22230469 5.99921875 -0.25710937 6.8359375 -0.29296875 C7.55007812 -0.19628906 8.26421875 -0.09960938 9 0 C11 3 11 3 10.625 6.1875 C10.41875 7.115625 10.2125 8.04375 10 9 C10.66 9 11.32 9 12 9 C12 8.34 12 7.68 12 7 C12.66 7 13.32 7 14 7 C13.65358932 16.07595993 13.65358932 16.07595993 11.1875 19.5625 C9.06118728 20.95979122 7.50581432 21.64202653 5 22 C5 22.66 5 23.32 5 24 C6.051875 24.0825 7.10375 24.165 8.1875 24.25 C12.80048185 25.15747184 15.41172395 26.73093769 18.14770508 30.63964844 C19.25720088 32.48458572 20.29613011 34.35226191 21.3125 36.25 C21.67150391 36.8996875 22.03050781 37.549375 22.40039062 38.21875 C23.27642786 39.80729753 24.13955805 41.40295142 25 43 C22.03 45.31 19.06 47.62 16 50 C16.53725895 53.37705625 17.11064623 56.696686 18 60 C19.98 59.505 19.98 59.505 22 59 C22.66 59.99 23.32 60.98 24 62 C25.60138967 63.92439724 26.49485154 64.86862066 28.9375 65.50390625 C33.45889238 65.6323549 36.26177345 64.63874815 40 62 C40.66 62 41.32 62 42 62 C42.185625 61.0409375 42.185625 61.0409375 42.375 60.0625 C42.58125 59.381875 42.7875 58.70125 43 58 C43.66 57.67 44.32 57.34 45 57 C45 62.61 45 68.22 45 74 C37.74 74 30.48 74 23 74 C20.32161928 79.78756784 20.32161928 79.78756784 19 86 C3.82 86 -11.36 86 -27 86 C-27 68.5773117 -27 68.5773117 -25.6875 60.3125 C-25.55142334 59.41893799 -25.41534668 58.52537598 -25.27514648 57.60473633 C-21.55327271 33.96279348 -21.55327271 33.96279348 -14.125 27 C-10.68879335 24.80082774 -8.99377357 24.52455077 -5 25 C-5.33 22.03 -5.66 19.06 -6 16 C-8.475 15.505 -8.475 15.505 -11 15 C-11.33 13.35 -11.66 11.7 -12 10 C-10.34385343 9.61781233 -8.67542976 9.28604898 -7 9 C-6.67 9.33 -6.34 9.66 -6 10 C-5.67 9.01 -5.34 8.02 -5 7 C-3.66666667 5.66666667 -2.33333333 4.33333333 -1 3 C-0.67 2.01 -0.34 1.02 0 0 Z " fill="#FDFCFE" transform="translate(86,44)"/>
<path d="M0 0 C7.59 0 15.18 0 23 0 C23.61101562 1.79050781 24.22203125 3.58101563 24.8515625 5.42578125 C26.3903529 8.57798836 26.3903529 8.57798836 29 11 C35.16034809 12.59410471 41.03729277 12.35398723 47.375 12.1875 C53.19125 12.125625 59.0075 12.06375 65 12 C65 24.54 65 37.08 65 50 C43.55 50 22.1 50 0 50 C0 33.5 0 17 0 0 Z " fill="#BA6347" transform="translate(153,118)"/>
<path d="M0 0 C0.9075 0.66 1.815 1.32 2.75 2 C6.46243397 4.28457475 7.70707286 4.11673869 11.9375 3.875 C16.41893986 3.69663423 18.74677795 3.91768518 22.1875 6.875 C25.38699134 10.09784529 26.18641808 12.28018682 26.3125 16.8125 C26.28980432 22.59989772 24.73961961 27.32541416 22.890625 32.76171875 C21.57522265 37.54447554 21.6453656 42.08437324 22 47 C23.65 47.33 25.3 47.66 27 48 C26.5 49.9375 26.5 49.9375 25 52 C23.10351562 52.42016602 23.10351562 52.42016602 20.90625 52.62890625 C19.6171875 52.75136719 18.328125 52.87382813 17 53 C16.66062892 55.97858727 16.32837741 58.95769685 16 61.9375 C15.90460938 62.76830078 15.80921875 63.59910156 15.7109375 64.45507812 C14.33881458 76.0662383 14.33881458 76.0662383 17.4375 87.125 C19.66989186 91.818747 20.21691302 94.51839112 21 100 C8.46 100 -4.08 100 -17 100 C-17 99.67 -17 99.34 -17 99 C-14.525 98.505 -14.525 98.505 -12 98 C-12.49346924 97.29335205 -12.98693848 96.5867041 -13.49536133 95.85864258 C-15.20961082 92.60176325 -15.28812659 90.89815208 -15.07421875 87.26171875 C-14.99204102 85.66166992 -14.99204102 85.66166992 -14.90820312 84.02929688 C-14.83537109 82.92650391 -14.76253906 81.82371094 -14.6875 80.6875 C-14.62626953 79.56537109 -14.56503906 78.44324219 -14.50195312 77.28710938 C-14.34907689 74.52357748 -14.18128314 71.76178986 -14 69 C-12.5534668 70.29597982 -11.10693359 71.59195964 -9.66040039 72.88793945 C-7.83859806 74.31335877 -7.83859806 74.31335877 -4.4375 74.1875 C0.11809227 72.61374994 1.41969663 71.03172401 4 67 C2.75616297 63.26848892 1.15652193 62.25465852 -2 60 C-3.485 59.505 -3.485 59.505 -5 59 C-5.33 59.66 -5.66 60.32 -6 61 C-7.73199708 59.03934038 -9.45730335 57.07359553 -11.171875 55.09765625 C-12.59510613 53.46458976 -14.04284524 51.85287024 -15.5 50.25 C-17 48 -17 48 -17 45.875 C-15.68644772 43.41208948 -14.45136942 42.3307434 -12 41 C-9.875 41.0625 -9.875 41.0625 -8 42 C-7.731875 42.66 -7.46375 43.32 -7.1875 44 C-6.07669627 46.38383524 -6.07669627 46.38383524 -2.6875 47 C1.0465489 47.32775786 1.0465489 47.32775786 3.875 45.1875 C6.03236412 43.18731091 6.03236412 43.18731091 7 41 C6.34 41 5.68 41 5 41 C3.39274365 37.78548731 3.94251815 34.56387464 4 31 C5.32 30.67 6.64 30.34 8 30 C8.33 28.02 8.66 26.04 9 24 C7.02 24.66 5.04 25.32 3 26 C3 24.35 3 22.7 3 21 C1.68 20.34 0.36 19.68 -1 19 C-1 18.34 -1 17.68 -1 17 C-1.59167969 17.04640625 -2.18335938 17.0928125 -2.79296875 17.140625 C-9.35333461 17.44028282 -9.35333461 17.44028282 -12.9375 15 C-13.618125 14.34 -14.29875 13.68 -15 13 C-15.66 13 -16.32 13 -17 13 C-17.33 14.65 -17.66 16.3 -18 18 C-20 16 -20 16 -20.375 13.25 C-19.88971633 9.04420815 -18.77912948 7.19599891 -16 4 C-10.85282043 0.31042881 -6.24335018 -0.80559357 0 0 Z " fill="#5F0784" transform="translate(193,30)"/>
<path d="M0 0 C1.45703125 2.37109375 1.45703125 2.37109375 2.8125 5.4375 C5.63067362 11.45585032 9.02770007 16.68793027 13 22 C13.99 19.69 14.98 17.38 16 15 C16.66 15 17.32 15 18 15 C19.125 20.75 19.125 20.75 18 23 C17.01 23 16.02 23 15 23 C15 23.66 15 24.32 15 25 C17.46326712 26.6446674 17.46326712 26.6446674 20 28 C19.67 28.66 19.34 29.32 19 30 C18.34 30 17.68 30 17 30 C17 31.65 17 33.3 17 35 C21.62 35 26.24 35 31 35 C30.63168124 45.19015225 30.63168124 45.19015225 27.5625 49.125 C25 51 25 51 23 52 C22.34444881 54.52733235 22.34444881 54.52733235 22 57 C22.81984375 56.7834375 23.6396875 56.566875 24.484375 56.34375 C25.56203125 56.0653125 26.6396875 55.786875 27.75 55.5 C28.81734375 55.2215625 29.8846875 54.943125 30.984375 54.65625 C34 54 34 54 38 54 C38.61012898 61.56559939 37.31301803 66.69715965 33 73 C28.15431418 78.40324381 22.50670652 82.71233788 15.0625 83.1875 C14.0415625 83.0946875 14.0415625 83.0946875 13 83 C13 83.66 13 84.32 13 85 C8.71 85 4.42 85 0 85 C0 72.46 0 59.92 0 47 C-1.32 47 -2.64 47 -4 47 C-4.17015625 46.46632812 -4.3403125 45.93265625 -4.515625 45.3828125 C-6.1511481 40.35444893 -8.00576316 35.54936487 -10.23046875 30.75 C-12.23328841 23.59271552 -10.73776571 16.12434683 -9.5 8.9375 C-9.35691406 8.07189453 -9.21382812 7.20628906 -9.06640625 6.31445312 C-8.71736324 4.2085603 -8.35960461 2.10411505 -8 0 C-2.92867091 -1.37225757 -2.92867091 -1.37225757 0 0 Z " fill="#5C00A3" transform="translate(218,83)"/>
<path d="M0 0 C0.33 0 0.66 0 1 0 C1 14.19 1 28.38 1 43 C-13.85 43 -28.7 43 -44 43 C-44 41.68 -44 40.36 -44 39 C-43.01 39 -42.02 39 -41 39 C-41 30.09 -41 21.18 -41 12 C-41.66 12 -42.32 12 -43 12 C-43 10.35 -43 8.7 -43 7 C-22.705 7.495 -22.705 7.495 -2 8 C-1.34 5.36 -0.68 2.72 0 0 Z " fill="#E99E46" transform="translate(151,124)"/>
<path d="M0 0 C2.32643863 4.14712973 2.31892217 7.94040813 1.4375 12.5625 C-1.83124922 20.19990932 -12.25434307 24.585975 -19.5625 27.5625 C-22.21837077 28.35420899 -24.85155483 28.97041996 -27.5625 29.5625 C-27.8925 27.9125 -28.2225 26.2625 -28.5625 24.5625 C-29.18125 24.52125 -29.8 24.48 -30.4375 24.4375 C-31.13875 24.14875 -31.84 23.86 -32.5625 23.5625 C-33.24189174 21.56678677 -33.90811559 19.56655227 -34.5625 17.5625 C-37.84601777 14.88704108 -41.48600619 15.27132187 -45.5625 15.5625 C-47.59577085 16.4124169 -47.59577085 16.4124169 -49.5625 17.5625 C-50.75875 17.81 -51.955 18.0575 -53.1875 18.3125 C-54.30125 18.725 -55.415 19.1375 -56.5625 19.5625 C-57.89170026 22.46674656 -57.89170026 22.46674656 -58.5625 25.5625 C-59.5625 26.5625 -60.5625 27.5625 -61.5625 28.5625 C-62.28447162 31.16861077 -62.28447162 31.16861077 -62.5625 33.5625 C-69.78830645 33.20120968 -69.78830645 33.20120968 -73.0625 30.5 C-74.97784025 26.74912534 -75.44341324 23.63872579 -74.5625 19.5625 C-70.57217753 12.40743902 -63.83275929 11.06986564 -56.29000854 8.91253662 C-50.89582073 7.42350047 -45.48181901 6.01226129 -40.06298828 4.6159668 C-37.17209801 3.87103116 -34.28318123 3.11880587 -31.39453125 2.36523438 C-29.54698366 1.88499843 -27.69933108 1.40516621 -25.8515625 0.92578125 C-24.9931778 0.70287918 -24.13479309 0.47997711 -23.25039673 0.25032043 C-7.00789804 -3.93125988 -7.00789804 -3.93125988 0 0 Z " fill="#E327FE" transform="translate(131.5625,13.4375)"/>
<path d="M0 0 C10.56 0 21.12 0 32 0 C32 12.21 32 24.42 32 37 C21.44 37 10.88 37 0 37 C0 24.79 0 12.58 0 0 Z " fill="#E89C44" transform="translate(161,130)"/>
<path d="M0 0 C0.9075 0.66 1.815 1.32 2.75 2 C6.46243397 4.28457475 7.70707286 4.11673869 11.9375 3.875 C16.41893986 3.69663423 18.74677795 3.91768518 22.1875 6.875 C25.38699134 10.09784529 26.18641808 12.28018682 26.3125 16.8125 C26.28980432 22.59989772 24.73961961 27.32541416 22.890625 32.76171875 C21.57522265 37.54447554 21.6453656 42.08437324 22 47 C23.65 47.33 25.3 47.66 27 48 C26.3203125 49.921875 26.3203125 49.921875 25 52 C22.6171875 52.828125 22.6171875 52.828125 19.875 53.25 C18.96492188 53.39953125 18.05484375 53.5490625 17.1171875 53.703125 C16.41851562 53.80109375 15.71984375 53.8990625 15 54 C15.09539062 53.30132812 15.19078125 52.60265625 15.2890625 51.8828125 C15.39992187 50.97273438 15.51078125 50.06265625 15.625 49.125 C15.74101562 48.22007813 15.85703125 47.31515625 15.9765625 46.3828125 C15.98429687 45.59648438 15.99203125 44.81015625 16 44 C13.20209497 41.20209497 10.82020154 41.5884929 6.99609375 41.34375 C6.33738281 41.2303125 5.67867187 41.116875 5 41 C3.39274365 37.78548731 3.94251815 34.56387464 4 31 C5.32 30.67 6.64 30.34 8 30 C8.33 28.02 8.66 26.04 9 24 C7.02 24.66 5.04 25.32 3 26 C3 24.35 3 22.7 3 21 C1.68 20.34 0.36 19.68 -1 19 C-1 18.34 -1 17.68 -1 17 C-1.59167969 17.04640625 -2.18335938 17.0928125 -2.79296875 17.140625 C-9.35333461 17.44028282 -9.35333461 17.44028282 -12.9375 15 C-13.618125 14.34 -14.29875 13.68 -15 13 C-15.66 13 -16.32 13 -17 13 C-17.33 14.65 -17.66 16.3 -18 18 C-20 16 -20 16 -20.375 13.25 C-19.88971633 9.04420815 -18.77912948 7.19599891 -16 4 C-10.85282043 0.31042881 -6.24335018 -0.80559357 0 0 Z " fill="#482750" transform="translate(193,30)"/>
<path d="M0 0 C2.22997056 2.29191418 3.64747032 4.56530627 5.25 7.3125 C5.91 7.3125 6.57 7.3125 7.25 7.3125 C6.755 6.3225 6.755 6.3225 6.25 5.3125 C8.625 5.1875 8.625 5.1875 11.25 5.3125 C13.25 7.3125 13.25 7.3125 13.4453125 10.1328125 C13.42210937 11.22335938 13.39890625 12.31390625 13.375 13.4375 C13.35695312 14.53320312 13.33890625 15.62890625 13.3203125 16.7578125 C13.29710937 17.60085937 13.27390625 18.44390625 13.25 19.3125 C11.6 19.3125 9.95 19.3125 8.25 19.3125 C8.25 31.8525 8.25 44.3925 8.25 57.3125 C7.59 57.3125 6.93 57.3125 6.25 57.3125 C3.775 52.8575 3.775 52.8575 1.25 48.3125 C1.91 48.3125 2.57 48.3125 3.25 48.3125 C3.25 46.0025 3.25 43.6925 3.25 41.3125 C1.765 40.8175 1.765 40.8175 0.25 40.3125 C-1.45586575 38.68597684 -3.1277546 37.02243434 -4.75 35.3125 C-6.04042763 37.57851865 -6.04042763 37.57851865 -6.75 40.3125 C-5.48647948 42.63761472 -5.48647948 42.63761472 -3.75 44.3125 C-4.3275 44.003125 -4.905 43.69375 -5.5 43.375 C-9.12094106 41.66511116 -10.87331765 41.02027255 -14.75 42.3125 C-16.14439664 42.37915376 -17.54169875 42.39788199 -18.9375 42.375 C-20.195625 42.354375 -21.45375 42.33375 -22.75 42.3125 C-23.08 41.6525 -23.41 40.9925 -23.75 40.3125 C-18.305 39.8175 -18.305 39.8175 -12.75 39.3125 C-12.55010286 37.24161354 -12.55010286 37.24161354 -13.96484375 35.69140625 C-16.26180751 33.91716509 -17.4551579 34.05699996 -20.3125 34.25 C-22.69140625 34.40234375 -22.69140625 34.40234375 -24.75 34.3125 C-25.41 33.6525 -26.07 32.9925 -26.75 32.3125 C-23.78 32.3125 -20.81 32.3125 -17.75 32.3125 C-18.41 30.6625 -19.07 29.0125 -19.75 27.3125 C-18.43 28.6325 -17.11 29.9525 -15.75 31.3125 C-14.76 28.6725 -13.77 26.0325 -12.75 23.3125 C-12.42 23.3125 -12.09 23.3125 -11.75 23.3125 C-11.66087781 27.14475427 -11.87132271 30.57812152 -12.75 34.3125 C-10.275 36.2925 -10.275 36.2925 -7.75 38.3125 C-7.41131223 36.10498152 -7.07928311 33.89644089 -6.75 31.6875 C-6.564375 30.45773438 -6.37875 29.22796875 -6.1875 27.9609375 C-5.79597484 24.6958973 -5.66919076 21.59537549 -5.75 18.3125 C-6.86375 17.714375 -7.9775 17.11625 -9.125 16.5 C-12.03812528 14.93554383 -12.81604999 14.21342502 -14.75 11.3125 C-15.1640625 8.39453125 -15.1640625 8.39453125 -15.375 5.125 C-15.44976562 4.03832031 -15.52453125 2.95164062 -15.6015625 1.83203125 C-15.65054687 1.00058594 -15.69953125 0.16914062 -15.75 -0.6875 C-4.64993146 -2.85336703 -4.64993146 -2.85336703 0 0 Z " fill="#6101A3" transform="translate(45.75,110.6875)"/>
<path d="M0 0 C2.77765279 2.45087011 2.88385033 4.25775498 3.125 7.875 C4.445 8.205 5.765 8.535 7.125 8.875 C8.25 15.5 8.25 15.5 7.125 18.875 C6.980625 20.07125 6.83625 21.2675 6.6875 22.5 C6.4090625 24.170625 6.4090625 24.170625 6.125 25.875 C5.135 26.37 5.135 26.37 4.125 26.875 C4.125 25.225 4.125 23.575 4.125 21.875 C3.465 21.875 2.805 21.875 2.125 21.875 C2.125 22.535 2.125 23.195 2.125 23.875 C1.465 23.875 0.805 23.875 0.125 23.875 C0.125 21.565 0.125 19.255 0.125 16.875 C-3.04236204 15.29131898 -5.3903015 15.45443294 -8.875 15.875 C-11.22822796 18.77912546 -11.22822796 18.77912546 -12.875 21.875 C-13.535 21.875 -14.195 21.875 -14.875 21.875 C-14.875 23.525 -14.875 25.175 -14.875 26.875 C-15.535 26.215 -16.195 25.555 -16.875 24.875 C-18.195 24.875 -19.515 24.875 -20.875 24.875 C-20.71 25.638125 -20.545 26.40125 -20.375 27.1875 C-19.875 29.875 -19.875 29.875 -19.875 32.875 C-23.25 32.5625 -23.25 32.5625 -26.875 31.875 C-29.20036063 28.38695905 -29.20957898 26.97359246 -28.875 22.875 C-27.875 20.875 -27.875 20.875 -26.875 18.875 C-26.91625 17.885 -26.9575 16.895 -27 15.875 C-26.83920315 12.01587563 -25.6126183 11.45158193 -22.875 8.875 C-22.6275 7.864375 -22.38 6.85375 -22.125 5.8125 C-20.875 2.875 -20.875 2.875 -19.08203125 1.859375 C-17.02889586 1.0964613 -14.98612774 0.45608269 -12.875 -0.125 C-8.32261336 -1.64246221 -4.49835344 -1.76022526 0 0 Z " fill="#4B2952" transform="translate(95.875,29.125)"/>
<path d="M0 0 C7.59 0 15.18 0 23 0 C24.98 3.63 26.96 7.26 29 11 C23 12 23 12 8 12 C8 24.21 8 36.42 8 49 C18.56 49 29.12 49 40 49 C40 49.33 40 49.66 40 50 C26.8 50 13.6 50 0 50 C0 33.5 0 17 0 0 Z " fill="#C0664A" transform="translate(153,118)"/>
<path d="M0 0 C1.52734375 2.4765625 1.52734375 2.4765625 2.9375 5.625 C4.68914047 9.36896437 6.3973192 12.81206703 8.875 16.125 C11 19 11 19 11 21 C10.34 21 9.68 21 9 21 C9.66 23.31 10.32 25.62 11 28 C10.34 28.66 9.68 29.32 9 30 C8.01 28.68 7.02 27.36 6 26 C4.74458443 29.76624671 5.62938042 31.37188934 7 35 C4 35 4 35 1 33 C1.33 34.65 1.66 36.3 2 38 C2.99 38.33 3.98 38.66 5 39 C5 40.32 5 41.64 5 43 C3.02 42.67 1.04 42.34 -1 42 C-0.67 43.32 -0.34 44.64 0 46 C-1.98 46.495 -1.98 46.495 -4 47 C-4.17015625 46.46632812 -4.3403125 45.93265625 -4.515625 45.3828125 C-6.1511481 40.35444893 -8.00576316 35.54936487 -10.23046875 30.75 C-12.23328841 23.59271552 -10.73776571 16.12434683 -9.5 8.9375 C-9.35691406 8.07189453 -9.21382812 7.20628906 -9.06640625 6.31445312 C-8.71736324 4.2085603 -8.35960461 2.10411505 -8 0 C-2.90908626 -1.37520442 -2.90908626 -1.37520442 0 0 Z " fill="#DF25FA" transform="translate(218,83)"/>
<path d="M0 0 C4.95 0 9.9 0 15 0 C15 1.98 15 3.96 15 6 C15.66 6 16.32 6 17 6 C17 14.58 17 23.16 17 32 C16.34 32 15.68 32 15 32 C15 33.65 15 35.3 15 37 C10.05 37 5.1 37 0 37 C0 24.79 0 12.58 0 0 Z " fill="#BC6146" transform="translate(92,131)"/>
<path d="M0 0 C2.49361571 1.20381448 4.68143083 2.45428722 7 4 C9.1482619 4.30723267 9.1482619 4.30723267 11.4375 4.375 C14.66770677 4.67438502 15.8012967 4.85594011 18.5 6.8125 C19.96332668 8.94651807 20.63644809 10.4551366 21 13 C22.65 12.67 24.3 12.34 26 12 C26 13.98 26 15.96 26 18 C24.35 18.33 22.7 18.66 21 19 C21.33 22.3 21.66 25.6 22 29 C22.66 29 23.32 29 24 29 C22.6104538 32.35806998 21.27054981 34.32052848 18 36 C14.4375 36.0625 14.4375 36.0625 11 35 C9.0625 31.9375 9.0625 31.9375 8 29 C9.32 29 10.64 29 12 29 C12 27.68 12 26.36 12 25 C10.96875 25.144375 9.9375 25.28875 8.875 25.4375 C4.85363631 24.98347507 4.20957844 24.80434258 1.5625 22.0625 C-1.27641145 18.37040505 -1.56370833 15.38145197 -1.30859375 10.8203125 C-1 9 -1 9 0 8 C-0.33 8 -0.66 8 -1 8 C-1.04241723 5.66705225 -1.04092937 3.33297433 -1 1 C-0.67 0.67 -0.34 0.34 0 0 Z " fill="#F89E8A" transform="translate(176,42)"/>
<path d="M0 0 C2.22044471 1.2196809 4.37067925 2.49351027 6.49609375 3.87109375 C6.16609375 4.53109375 5.83609375 5.19109375 5.49609375 5.87109375 C6.73359375 6.86109375 6.73359375 6.86109375 7.99609375 7.87109375 C10.64184607 11.04599653 11.12081515 12.57878075 10.87109375 16.66796875 C10.20882847 20.55877727 8.92322546 24.20132649 7.49609375 27.87109375 C7.16609375 27.87109375 6.83609375 27.87109375 6.49609375 27.87109375 C6.49609375 26.22109375 6.49609375 24.57109375 6.49609375 22.87109375 C4.51609375 23.53109375 2.53609375 24.19109375 0.49609375 24.87109375 C0.49609375 23.22109375 0.49609375 21.57109375 0.49609375 19.87109375 C-0.82390625 19.21109375 -2.14390625 18.55109375 -3.50390625 17.87109375 C-3.50390625 17.21109375 -3.50390625 16.55109375 -3.50390625 15.87109375 C-4.09558594 15.9175 -4.68726563 15.96390625 -5.296875 16.01171875 C-11.85724086 16.31137657 -11.85724086 16.31137657 -15.44140625 13.87109375 C-16.12203125 13.21109375 -16.80265625 12.55109375 -17.50390625 11.87109375 C-18.16390625 11.87109375 -18.82390625 11.87109375 -19.50390625 11.87109375 C-19.83390625 13.52109375 -20.16390625 15.17109375 -20.50390625 16.87109375 C-22.50390625 14.87109375 -22.50390625 14.87109375 -22.87890625 12.12109375 C-22.39362258 7.9153019 -21.28303573 6.06709266 -18.50390625 2.87109375 C-12.81118214 -1.2095315 -6.57291047 -2.96344949 0 0 Z " fill="#4B2952" transform="translate(195.50390625,31.12890625)"/>
<path d="M0 0 C1.84629931 0.00079173 3.69271581 0.0290494 5.53833008 0.0793457 C6.51071121 0.08642044 7.48309235 0.09349518 8.48493958 0.1007843 C11.59335995 0.12879287 14.69998467 0.19154421 17.80786133 0.25512695 C19.91395512 0.28020142 22.02007713 0.30301607 24.1262207 0.32348633 C29.29162704 0.37864096 34.45568968 0.464959 39.62036133 0.56762695 C37.64036133 4.19762695 35.66036133 7.82762695 33.62036133 11.56762695 C19.43036133 11.56762695 5.24036133 11.56762695 -9.37963867 11.56762695 C-5.6360615 0.33689543 -5.6360615 0.33689543 0 0 Z " fill="#E99C48" transform="translate(113.379638671875,117.432373046875)"/>
<path d="M0 0 C1.45742463 -0.08096803 2.91612807 -0.13917774 4.375 -0.1875 C5.18710938 -0.22230469 5.99921875 -0.25710937 6.8359375 -0.29296875 C7.55007812 -0.19628906 8.26421875 -0.09960938 9 0 C11 3 11 3 10.625 6.1875 C10.315625 7.5796875 10.315625 7.5796875 10 9 C10.66 9 11.32 9 12 9 C12 8.34 12 7.68 12 7 C12.66 7 13.32 7 14 7 C13.65358932 16.07595993 13.65358932 16.07595993 11.1875 19.5625 C9.06118728 20.95979122 7.50581432 21.64202653 5 22 C5.350625 22.7425 5.70125 23.485 6.0625 24.25 C7.04509293 27.1322726 7.0326802 28.21176345 6 31 C2.06069365 30.77273233 -0.31082962 30.580354 -3.375 28 C-5.51885095 24.04212133 -5.80628354 20.44579278 -6 16 C-7.65 15.67 -9.3 15.34 -11 15 C-11.33 13.35 -11.66 11.7 -12 10 C-10.34385343 9.61781233 -8.67542976 9.28604898 -7 9 C-6.67 9.33 -6.34 9.66 -6 10 C-5.67 9.01 -5.34 8.02 -5 7 C-3 5 -3 5 -1 3 C-0.67 2.01 -0.34 1.02 0 0 Z " fill="#F6B698" transform="translate(86,44)"/>
<path d="M0 0 C1.8125 1.25 1.8125 1.25 3 3 C3 4.32 3 5.64 3 7 C2.01 6.67 1.02 6.34 0 6 C-0.20625 6.639375 -0.4125 7.27875 -0.625 7.9375 C-2 10 -2 10 -5.125 10.75 C-6.548125 10.87375 -6.548125 10.87375 -8 11 C-7.93039063 11.59167969 -7.86078125 12.18335937 -7.7890625 12.79296875 C-7.61693749 15.30517423 -7.5942975 17.51141252 -8 20 C-10.62661069 22.8098626 -13.07116034 24.49985557 -16.4375 26.3125 C-20.33677994 28.8803185 -23.00473259 32.45560024 -26 36 C-28.3125 38.5 -28.3125 38.5 -30 40 C-30.66 40 -31.32 40 -32 40 C-35.02390367 34.79888569 -35.02390367 34.79888569 -34.92578125 31.51953125 C-33.64572474 28.03583316 -31.77889553 27.25409262 -28.625 25.375 C-24.1189151 22.3301907 -22.25700897 20.3875215 -21 15.0625 C-20.855625 14.12535156 -20.71125 13.18820313 -20.5625 12.22265625 C-20.376875 11.48917969 -20.19125 10.75570312 -20 10 C-19.01 9.67 -18.02 9.34 -17 9 C-16.67 10.98 -16.34 12.96 -16 15 C-13.52919722 12.18839683 -11.94175872 9.85925024 -10.5 6.375 C-8.2300785 1.26767663 -5.7108019 -0.87858491 0 0 Z " fill="#FEBC9D" transform="translate(136,64)"/>
<path d="M0 0 C1.98 0.66 3.96 1.32 6 2 C6 2.66 6 3.32 6 4 C8.97 4.495 8.97 4.495 12 5 C11.01 6.485 11.01 6.485 10 8 C7.375 8.1875 7.375 8.1875 5 8 C5 8.99 5 9.98 5 11 C6.29585916 10.57507874 7.5866044 10.13454118 8.875 9.6875 C9.59429687 9.44386719 10.31359375 9.20023438 11.0546875 8.94921875 C13.33994905 8.03664453 13.33994905 8.03664453 15 5 C15.99 5.33 16.98 5.66 18 6 C18.33 6.99 18.66 7.98 19 9 C19.99 9 20.98 9 22 9 C22 9.66 22 10.32 22 11 C23.32 11.66 24.64 12.32 26 13 C23.525 12.505 23.525 12.505 21 12 C20.4225 12.78375 19.845 13.5675 19.25 14.375 C17.17102363 16.80047244 15.90959667 17.85694417 13 19 C13 19.99 13 20.98 13 22 C14.65 22.33 16.3 22.66 18 23 C18 23.33 18 23.66 18 24 C15.03 23.67 12.06 23.34 9 23 C8.01 25.475 8.01 25.475 7 28 C8.00836062 29.23267348 8.00836062 29.23267348 10.06640625 29.09765625 C10.89011719 29.08605469 11.71382812 29.07445312 12.5625 29.0625 C13.80193359 29.04896484 13.80193359 29.04896484 15.06640625 29.03515625 C15.70449219 29.02355469 16.34257812 29.01195312 17 29 C17 29.66 17 30.32 17 31 C15.20841511 31.02696365 13.41671527 31.04637917 11.625 31.0625 C10.62726563 31.07410156 9.62953125 31.08570313 8.6015625 31.09765625 C6 31 6 31 4 30 C3.01 32.97 2.02 35.94 1 39 C3.31 39 5.62 39 8 39 C8 39.33 8 39.66 8 40 C5.03 40 2.06 40 -1 40 C-1.33 29.77 -1.66 19.54 -2 9 C0.97 9.495 0.97 9.495 4 10 C4 8.68 4 7.36 4 6 C2.68 5.67 1.36 5.34 0 5 C0 3.35 0 1.7 0 0 Z " fill="#580199" transform="translate(219,116)"/>
<path d="M0 0 C0.0269501 2.93756119 0.04681474 5.87487555 0.0625 8.8125 C0.07087891 9.64587891 0.07925781 10.47925781 0.08789062 11.33789062 C0.09272461 12.54155273 0.09272461 12.54155273 0.09765625 13.76953125 C0.10551147 14.87711792 0.10551147 14.87711792 0.11352539 16.00708008 C0 18 0 18 -1 21 C-3.77117304 20.85919445 -6.54182641 20.71256882 -9.3125 20.5625 C-10.49102539 20.50352539 -10.49102539 20.50352539 -11.69335938 20.44335938 C-12.45068359 20.40146484 -13.20800781 20.35957031 -13.98828125 20.31640625 C-14.68477783 20.27974854 -15.38127441 20.24309082 -16.09887695 20.20532227 C-18 20 -18 20 -21 19 C-21 13.06 -21 7.12 -21 1 C-13.96094956 0.06145994 -7.09727428 -0.10808032 0 0 Z " fill="#C16949" transform="translate(217,130)"/>
<path d="M0 0 C0.61012898 7.56559939 -0.68698197 12.69715965 -5 19 C-9.30273981 23.79782494 -13.88431738 27.00064222 -20 29 C-21.32 29 -22.64 29 -24 29 C-24 27.68 -24 26.36 -24 25 C-23.01 25 -22.02 25 -21 25 C-21.66 24.67 -22.32 24.34 -23 24 C-24.125 20.875 -24.125 20.875 -24 17 C-22.08216018 15.02562522 -19.99891171 13.45123055 -17.81640625 11.77734375 C-15.58053434 9.95752495 -15.58053434 9.95752495 -15.5 6.0625 C-15.665 5.051875 -15.83 4.04125 -16 3 C-14.08487728 2.49411853 -12.16783078 1.99551609 -10.25 1.5 C-8.64898437 1.08234375 -8.64898437 1.08234375 -7.015625 0.65625 C-4 0 -4 0 0 0 Z " fill="#8F00C2" transform="translate(256,137)"/>
<path d="M0 0 C3.51268661 1.37080453 5.20157412 3.06479485 7.5625 6 C7.83707031 7.07121094 8.11164063 8.14242187 8.39453125 9.24609375 C9.75605047 13.62208027 11.72846614 16.41115216 14.5625 19.9375 C15.01367188 20.52595703 15.46484375 21.11441406 15.9296875 21.72070312 C17.08517539 23.19241181 18.31835434 24.60243773 19.5625 26 C20.2225 26 20.8825 26 21.5625 26 C25.92567471 26.467483 28.39367502 29.19126877 31.5625 32 C30.16980712 36.87442507 27.80336927 39.27944235 23.5625 42 C19.55244086 42.0679671 17.51774356 41.89554084 14.5625 39.125 C13.5625 37 13.5625 37 14.5625 34 C15.2225 34 15.8825 34 16.5625 34 C14.77646706 30.70524627 12.98272632 27.41475222 11.1875 24.125 C10.67960937 23.18785156 10.17171875 22.25070313 9.6484375 21.28515625 C8.91367188 19.94130859 8.91367188 19.94130859 8.1640625 18.5703125 C7.71369629 17.74289551 7.26333008 16.91547852 6.79931641 16.06298828 C5.60357654 13.87916097 5.60357654 13.87916097 3.5625 12 C2.5725 12.33 1.5825 12.66 0.5625 13 C-1.625 11.6875 -1.625 11.6875 -3.4375 10 C-3.4375 9.34 -3.4375 8.68 -3.4375 8 C-4.4275 8 -5.4175 8 -6.4375 8 C-6.6875 5.6875 -6.6875 5.6875 -6.4375 3 C-4.31149491 0.63777213 -3.19007637 0 0 0 Z " fill="#FAA28D" transform="translate(166.4375,63)"/>
<path d="M0 0 C2.475 0.99 2.475 0.99 5 2 C5.33 1.34 5.66 0.68 6 0 C9.5222421 4.1119753 12.13336622 8.47841153 14.75 13.1875 C15.36681641 14.27321289 15.36681641 14.27321289 15.99609375 15.38085938 C19 20.74497768 19 20.74497768 19 23 C17.13671875 24.7265625 17.13671875 24.7265625 14.6875 26.625 C13.48673828 27.57246094 13.48673828 27.57246094 12.26171875 28.5390625 C10 30 10 30 7 30 C3.49543993 27.63611045 1.65070962 24.86053056 0 21 C-0.88925455 14.05235785 -0.43386869 6.9714594 0 0 Z " fill="#FEEBCD" transform="translate(164,74)"/>
<path d="M0 0 C0.33 0 0.66 0 1 0 C1 5.61 1 11.22 1 17 C-6.26 17 -13.52 17 -21 17 C-21.99 19.475 -21.99 19.475 -23 22 C-23.95824253 23.36365283 -24.94721175 24.70794169 -26 26 C-29.77363863 11.74777554 -29.77363863 11.74777554 -27.1015625 6.1015625 C-26 4.4375 -26 4.4375 -24 2 C-21 3 -21 3 -19.3125 5.5625 C-17.10022773 8.40936569 -17.10022773 8.40936569 -13.0625 8.5 C-9.36942841 8.27992869 -7.03892013 7.14512009 -4 5 C-3.34 5 -2.68 5 -2 5 C-1.855625 4.360625 -1.71125 3.72125 -1.5625 3.0625 C-1 1 -1 1 0 0 Z " fill="#E42CFD" transform="translate(130,101)"/>
<path d="M0 0 C9.17053917 0.636843 18.00176248 2.20486855 27 4 C27.0270043 5.45823212 27.04639787 6.91660675 27.0625 8.375 C27.07410156 9.18710938 27.08570312 9.99921875 27.09765625 10.8359375 C27 13 27 13 26 15 C19.97504376 14.28174711 13.99057867 13.39912131 8 12.4375 C7.12988281 12.29892578 6.25976562 12.16035156 5.36328125 12.01757812 C3.24199817 11.67957148 1.12097184 11.33995416 -1 11 C-0.67 7.37 -0.34 3.74 0 0 Z " fill="#FAF3EA" transform="translate(59,140)"/>
<path d="M0 0 C0.33 0 0.66 0 1 0 C1 16.17 1 32.34 1 49 C-14.18 49 -29.36 49 -45 49 C-45 48.67 -45 48.34 -45 48 C-30.15 48 -15.3 48 0 48 C-0.33 34.8 -0.66 21.6 -1 8 C-1.66 9.65 -2.32 11.3 -3 13 C-8.51757479 13.02467609 -14.03511761 13.04284856 -19.55273438 13.05493164 C-21.43066975 13.05996763 -23.3086012 13.06679671 -25.18652344 13.07543945 C-27.88217132 13.08753713 -30.57776747 13.09323557 -33.2734375 13.09765625 C-34.11619232 13.10281754 -34.95894714 13.10797882 -35.82723999 13.11329651 C-41.77225659 13.11387171 -41.77225659 13.11387171 -44 12 C-44 13.65 -44 15.3 -44 17 C-43.34 17 -42.68 17 -42 17 C-42 25.91 -42 34.82 -42 44 C-42.33 44 -42.66 44 -43 44 C-43 35.42 -43 26.84 -43 18 C-43.66 18 -44.32 18 -45 18 C-45 16.02 -45 14.04 -45 12 C-49.95 12 -54.9 12 -60 12 C-60 11.67 -60 11.34 -60 11 C-52.21123266 10.18396451 -44.54176583 9.9500419 -36.71875 10 C-33.92902826 9.99975264 -31.13932752 9.99604307 -28.34960938 9.99169922 C-26.435452 9.99727507 -24.52128677 10.01734721 -22.60742188 10.05126953 C-11.93537876 10.8078772 -11.93537876 10.8078772 -2.609375 6.9296875 C-1.30580495 4.59351422 -0.5053081 2.61913624 0 0 Z " fill="#CE844D" transform="translate(152,119)"/>
<path d="M0 0 C0.33 3.3 0.66 6.6 1 10 C-7.99147995 11.26519458 -16.93865155 12.35878726 -26 13 C-27.28317892 9.15046324 -27.06643637 6.05261865 -27 2 C-24.00051609 1.66134859 -21.00055074 1.32894927 -18 1 C-17.16082031 0.90460938 -16.32164063 0.80921875 -15.45703125 0.7109375 C-10.26859055 0.14785091 -5.21873039 -0.09664316 0 0 Z " fill="#F7F5F3" transform="translate(143,135)"/>
<path d="M0 0 C2 1 2 1 2.61328125 2.7734375 C3.0161737 5.0931213 3.16781908 7.27116141 3.1875 9.625 C3.20167969 10.40101562 3.21585938 11.17703125 3.23046875 11.9765625 C3 14 3 14 1 16 C1.26467373 19.04374794 1.69020597 21.41483351 3.125 24.125 C4 26 4 26 3.875 27.8125 C2.28475949 31.78810127 0.59650459 35.7338067 -2.8125 38.4375 C-7.01863869 39.51907852 -10.51064674 39.85952726 -14.35546875 37.640625 C-18.23747537 33.76435251 -20.40575494 29.23510139 -22.875 24.375 C-23.38546875 23.40820312 -23.8959375 22.44140625 -24.421875 21.4453125 C-27.16606404 16.13493586 -27.16606404 16.13493586 -28 14 C-27.67 13.34 -27.34 12.68 -27 12 C-26.62713867 12.55985596 -26.25427734 13.11971191 -25.87011719 13.6965332 C-24.17044671 16.23997244 -22.46036996 18.77624476 -20.75 21.3125 C-19.87021484 22.63411133 -19.87021484 22.63411133 -18.97265625 23.98242188 C-18.39902344 24.82998047 -17.82539062 25.67753906 -17.234375 26.55078125 C-16.44885254 27.72120972 -16.44885254 27.72120972 -15.64746094 28.9152832 C-13.92765244 31.09154947 -12.35223678 32.5366362 -10 34 C-6.55072966 34.28157309 -4.29047207 34.09682402 -1 33 C-1.598125 31.824375 -2.19625 30.64875 -2.8125 29.4375 C-4.14020223 26.79141275 -5.34931274 24.17038224 -6.5 21.4375 C-7.63575196 18.8347351 -8.79557912 16.59825243 -10.25 14.1875 C-11.11625 12.6096875 -11.11625 12.6096875 -12 11 C-11.67 10.34 -11.34 9.68 -11 9 C-7 14.75 -7 14.75 -7 17 C-5.02 16.34 -3.04 15.68 -1 15 C-0.67 10.05 -0.34 5.1 0 0 Z " fill="#DBEAFD" transform="translate(101,78)"/>
<path d="M0 0 C5 5 5 5 6 8 C6.763125 7.525625 7.52625 7.05125 8.3125 6.5625 C11 5 11 5 14 4 C14.18451025 18.78132118 14.18451025 18.78132118 13 25 C12.34 24.67 11.68 24.34 11 24 C11 23.34 11 22.68 11 22 C7.37 22 3.74 22 0 22 C0 14.74 0 7.48 0 0 Z " fill="#E228FC" transform="translate(165,96)"/>
<path d="M0 0 C0 0.99 0 1.98 0 3 C2.22847788 5.47943955 2.22847788 5.47943955 5 8 C7.8125 10.625 7.8125 10.625 10 13 C10 13.99 10 14.98 10 16 C4.72191404 19.51872397 1.37163528 21.11250775 -5 20 C-7.41546151 17.93326754 -9.22878893 15.62998007 -11 13 C-10.62488281 12.56429687 -10.24976562 12.12859375 -9.86328125 11.6796875 C-6.54140223 7.81392401 -3.25357073 3.92342352 0 0 Z " fill="#FDF9FE" transform="translate(118,90)"/>
<path d="M0 0 C0.66 0 1.32 0 2 0 C3.125 5.75 3.125 5.75 2 8 C1.01 8 0.02 8 -1 8 C-1 8.66 -1 9.32 -1 10 C1.46326712 11.6446674 1.46326712 11.6446674 4 13 C3.67 13.66 3.34 14.32 3 15 C2.34 15 1.68 15 1 15 C1.268125 16.03125 1.53625 17.0625 1.8125 18.125 C2 22 2 22 0 25.375 C-3.45987844 28.40239364 -5.47319018 28.82247805 -10 29 C-10 28.01 -10 27.02 -10 26 C-8.02 25.34 -6.04 24.68 -4 24 C-5.98 23.67 -7.96 23.34 -10 23 C-9.95875 22.278125 -9.9175 21.55625 -9.875 20.8125 C-9.83630211 17.95575815 -9.83630211 17.95575815 -11.125 15.375 C-11.41375 14.59125 -11.7025 13.8075 -12 13 C-11.34 12.01 -10.68 11.02 -10 10 C-8.68 10.99 -7.36 11.98 -6 13 C-6.33 10.69 -6.66 8.38 -7 6 C-5.68 6.33 -4.36 6.66 -3 7 C-2.01 4.69 -1.02 2.38 0 0 Z " fill="#D824F5" transform="translate(234,98)"/>
<path d="M0 0 C1.32 0.33 2.64 0.66 4 1 C4 1.66 4 2.32 4 3 C4.02335149 4.39192853 4.04680376 5.78385537 4.0703125 7.17578125 C4.0889672 8.88801625 4.10717739 10.60025614 4.125 12.3125 C4.14175781 13.16779297 4.15851563 14.02308594 4.17578125 14.90429688 C4.21053734 19.39130747 4.13473059 22.92384119 2 27 C-2.78138637 27 -3.384287 26.16772988 -6.75 23 C-7.54921875 22.2575 -8.3484375 21.515 -9.171875 20.75 C-10.07679687 19.88375 -10.07679687 19.88375 -11 19 C-8.58278574 14.62875026 -6.28446011 12.60793224 -2 10 C-0.41727399 8.41727399 -0.65264253 6.61965997 -0.4375 4.4375 C-0.35371094 3.61121094 -0.26992187 2.78492187 -0.18359375 1.93359375 C-0.12300781 1.29550781 -0.06242187 0.65742187 0 0 Z " fill="#FEEBCB" transform="translate(128,75)"/>
<path d="M0 0 C0.66 0.33 1.32 0.66 2 1 C1.71125 2.051875 1.4225 3.10375 1.125 4.1875 C0.590439 7.8420178 0.590439 7.8420178 2.26953125 9.578125 C4.11706493 11.12593904 4.11706493 11.12593904 7 13 C7.33 11.35 7.66 9.7 8 8 C9.32 7.67 10.64 7.34 12 7 C11.34 6.01 10.68 5.02 10 4 C12.375 3.875 12.375 3.875 15 4 C17 6 17 6 17.1953125 8.8203125 C17.17210938 9.91085938 17.14890625 11.00140625 17.125 12.125 C17.10695313 13.22070312 17.08890625 14.31640625 17.0703125 15.4453125 C17.04710938 16.28835937 17.02390625 17.13140625 17 18 C15.35 18 13.7 18 12 18 C12 19.98 12 21.96 12 24 C9.03 24.33 6.06 24.66 3 25 C6.22791555 22.8480563 7.28400809 22.79913557 11 23 C10.01 21.35 9.02 19.7 8 18 C5.69 18.33 3.38 18.66 1 19 C2 17 2 17 5 15 C3.46172153 12.792191 3.46172153 12.792191 1 11 C-2.69432511 11.14612895 -2.69432511 11.14612895 -6 12 C-6 11.34 -6 10.68 -6 10 C-4.35 9.67 -2.7 9.34 -1 9 C-1 8.34 -1 7.68 -1 7 C-1.598125 6.7525 -2.19625 6.505 -2.8125 6.25 C-5.28647521 4.83629988 -6.43370255 3.34944617 -8 1 C-5.50638429 2.20381448 -3.31856917 3.45428722 -1 5 C-0.67 3.35 -0.34 1.7 0 0 Z " fill="#5C059A" transform="translate(42,112)"/>
<path d="M0 0 C0.99 0 1.98 0 3 0 C3.01458252 1.05912598 3.02916504 2.11825195 3.04418945 3.20947266 C3.10237327 7.15707342 3.17960407 11.10411571 3.26245117 15.05126953 C3.29560636 16.75625512 3.32366737 18.46134798 3.34643555 20.16650391 C3.38015568 22.62448634 3.43247794 25.08149406 3.48828125 27.5390625 C3.49786613 28.67379501 3.49786613 28.67379501 3.50764465 29.83145142 C3.6400811 34.65070951 4.65448495 37.69905061 7 42 C7.1875 45.875 7.1875 45.875 7 49 C4.69 49 2.38 49 0 49 C0 32.83 0 16.66 0 0 Z " fill="#A65549" transform="translate(153,119)"/>
<path d="M0 0 C6.6 0 13.2 0 20 0 C20.33 3.3 20.66 6.6 21 10 C15.39 10 9.78 10 4 10 C4 8.02 4 6.04 4 4 C2.68 4 1.36 4 0 4 C0 2.68 0 1.36 0 0 Z " fill="#E49B44" transform="translate(131,157)"/>
<path d="M0 0 C13.6332574 0.96355353 13.6332574 0.96355353 20 2 C19.67 4.64 19.34 7.28 19 10 C16.22882696 9.85919445 13.45817359 9.71256882 10.6875 9.5625 C9.50897461 9.50352539 9.50897461 9.50352539 8.30664062 9.44335938 C7.54931641 9.40146484 6.79199219 9.35957031 6.01171875 9.31640625 C4.96697388 9.26141968 4.96697388 9.26141968 3.90112305 9.20532227 C2 9 2 9 -1 8 C-0.67 5.36 -0.34 2.72 0 0 Z " fill="#F0DABF" transform="translate(197,141)"/>
<path d="M0 0 C5.4375 0.3625 5.4375 0.3625 7.875 3.125 C10.50250802 9.83974272 8.44994267 14.77280526 5.95703125 21.1328125 C4.54265382 25.37017182 4.19272252 29.55774591 4 34 C2.02 34 0.04 34 -2 34 C-3.60725635 30.78548731 -3.05748185 27.56387464 -3 24 C-2.236875 23.855625 -1.47375 23.71125 -0.6875 23.5625 C2.93810027 21.45459287 3.38509979 19.38061438 4.5 15.453125 C5.24502684 11.79783709 5.32134059 8.72755089 5 5 C3.16666667 1.83333333 3.16666667 1.83333333 0 0 Z " fill="#361E3B" transform="translate(200,37)"/>
<path d="M0 0 C4.34962514 3.93681349 7.17954707 8.68563271 10.2890625 13.59960938 C13.43529413 18.48191727 13.43529413 18.48191727 18 22 C22.66012347 22.59490938 25.19469703 21.68609622 29 19 C28.4360709 22.27078876 27.54319569 23.86371562 25 26 C21.89951072 27.55024464 19.42105782 27.28992015 16 27 C10.29221194 23.73167911 8.03523627 18.03245203 5.1875 12.375 C4.68541016 11.40820312 4.18332031 10.44140625 3.66601562 9.4453125 C0 2.30281675 0 2.30281675 0 0 Z " fill="#C4E0FD" transform="translate(73,90)"/>
<path d="M0 0 C0.66 0 1.32 0 2 0 C2.00410889 0.81678223 2.00821777 1.63356445 2.01245117 2.47509766 C2.04543924 6.19245675 2.11609328 9.90818858 2.1875 13.625 C2.19330078 14.91019531 2.19910156 16.19539063 2.20507812 17.51953125 C2.15216382 25.14229991 2.15216382 25.14229991 5.3125 31.8125 C8.28299618 34.24918801 8.28299618 34.24918801 11.8125 35.375 C12.864375 35.58125 13.91625 35.7875 15 36 C15 36.33 15 36.66 15 37 C10.05 37 5.1 37 0 37 C0 24.79 0 12.58 0 0 Z " fill="#A4534C" transform="translate(92,131)"/>
<path d="M0 0 C2.00698975 1.3227887 4.00591923 2.65783025 6 4 C6.78375 4.4125 7.5675 4.825 8.375 5.25 C10.38969427 7.41967075 10.23982232 8.29195083 10.25 11.1875 C10.1675 12.445625 10.085 13.70375 10 15 C8.783125 14.62875 7.56625 14.2575 6.3125 13.875 C2.42539312 12.89299405 0.66483421 13.30853806 -3 15 C-5.3320802 15.07646165 -7.66845878 15.09143299 -10 15 C-10 14.67 -10 14.34 -10 14 C-6.37 13.01 -2.74 12.02 1 11 C0.34 9.68 -0.32 8.36 -1 7 C-1.33 6.34 -1.66 5.68 -2 5 C-1.0625 2.375 -1.0625 2.375 0 0 Z " fill="#710499" transform="translate(40,145)"/>
<path d="M0 0 C3.63 0.33 7.26 0.66 11 1 C11.125 9.75 11.125 9.75 10 12 C2.97234063 11.17321655 -4.00998353 10.09751783 -11 9 C-11.33 8.01 -11.66 7.02 -12 6 C-5.06697907 5.77268784 1.2168636 6.57997892 8 8 C8 6.35 8 4.7 8 3 C5.03 2.67 2.06 2.34 -1 2 C-0.67 1.34 -0.34 0.68 0 0 Z " fill="#FAF5EF" transform="translate(75,143)"/>
<path d="M0 0 C3.39425499 1.32458731 5.21571261 3.2509062 7.5625 6 C7.5625 6.66 7.5625 7.32 7.5625 8 C6.2425 8.33 4.9225 8.66 3.5625 9 C3.2325 10.32 2.9025 11.64 2.5625 13 C0.125 12.1875 0.125 12.1875 -2.4375 11 C-2.7675 10.01 -3.0975 9.02 -3.4375 8 C-4.4275 8 -5.4175 8 -6.4375 8 C-6.6875 5.6875 -6.6875 5.6875 -6.4375 3 C-4.31149491 0.63777213 -3.19007637 0 0 0 Z " fill="#FDA395" transform="translate(166.4375,63)"/>
<path d="M0 0 C0.33 0 0.66 0 1 0 C1 12.54 1 25.08 1 38 C-7.25 38 -15.5 38 -24 38 C-23.67 34.37 -23.34 30.74 -23 27 C-22.34 27 -21.68 27 -21 27 C-20.62875 27.928125 -20.2575 28.85625 -19.875 29.8125 C-17.54497571 33.77354129 -16.35192534 34.54935822 -12 36 C-8.04 36.33 -4.08 36.66 0 37 C0 24.79 0 12.58 0 0 Z " fill="#9B455D" transform="translate(217,130)"/>
<path d="M0 0 C0.66 0 1.32 0 2 0 C2 2.33333333 2 4.66666667 2 7 C2.99 6.34 3.98 5.68 5 5 C5 6.98 5 8.96 5 11 C4.34 11 3.68 11 3 11 C3 11.99 3 12.98 3 14 C3.99 13.67 4.98 13.34 6 13 C6 14.32 6 15.64 6 17 C2.625 17.1875 2.625 17.1875 -1 17 C-1.66 16.01 -2.32 15.02 -3 14 C-1.35 14 0.3 14 2 14 C2 13.01 2 12.02 2 11 C0.02 11.33 -1.96 11.66 -4 12 C-4 11.01 -4 10.02 -4 9 C-3.34 8.67 -2.68 8.34 -2 8 C-4.31 7.34 -6.62 6.68 -9 6 C-7 4 -7 4 -4.375 3.875 C-3.59125 3.91625 -2.8075 3.9575 -2 4 C-1.34 2.68 -0.68 1.36 0 0 Z " fill="#6D0B91" transform="translate(54,97)"/>
<path d="M0 0 C1.51400391 0.01740234 1.51400391 0.01740234 3.05859375 0.03515625 C4.07050781 0.04417969 5.08242187 0.05320313 6.125 0.0625 C7.29869141 0.07990234 7.29869141 0.07990234 8.49609375 0.09765625 C8.49609375 1.74765625 8.49609375 3.39765625 8.49609375 5.09765625 C1.89609375 5.75765625 -4.70390625 6.41765625 -11.50390625 7.09765625 C-11.83390625 5.44765625 -12.16390625 3.79765625 -12.50390625 2.09765625 C-12.17390625 1.76765625 -11.84390625 1.43765625 -11.50390625 1.09765625 C-8.83723958 1.09765625 -6.17057292 1.09765625 -3.50390625 1.09765625 C-2.50390625 0.09765625 -2.50390625 0.09765625 0 0 Z " fill="#69768D" transform="translate(131.50390625,137.90234375)"/>
<path d="M0 0 C0 0.99 0 1.98 0 3 C2.22847788 5.47943955 2.22847788 5.47943955 5 8 C7.8125 10.625 7.8125 10.625 10 13 C10 13.99 10 14.98 10 16 C6.66666667 19 6.66666667 19 4 19 C3.01 16.36 2.02 13.72 1 11 C0.01 12.98 -0.98 14.96 -2 17 C-2.33 17 -2.66 17 -3 17 C-2.125 10.25 -2.125 10.25 -1 8 C-1.185625 7.01 -1.37125 6.02 -1.5625 5 C-1.7790625 3.515 -1.7790625 3.515 -2 2 C-1.34 1.34 -0.68 0.68 0 0 Z " fill="#E0D2FB" transform="translate(118,90)"/>
<path d="M0 0 C4.29 0 8.58 0 13 0 C13 5 13 5 11.9375 6.8125 C8.90624457 8.67036623 6.46577141 8.37133265 3 8 C1.0625 6.8125 1.0625 6.8125 0 5 C0 3.35 0 1.7 0 0 Z " fill="#FFDE8B" transform="translate(142,66)"/>
<path d="M0 0 C0.33 0.66 0.66 1.32 1 2 C-0.0390625 4.53125 -0.0390625 4.53125 -1.625 7.5 C-2.13289063 8.4796875 -2.64078125 9.459375 -3.1640625 10.46875 C-5.26675439 13.36778051 -6.57503563 14.10465498 -10 15 C-13.80924818 14.84452048 -15.47588474 14.45515272 -18.375 11.9375 C-18.91125 11.298125 -19.4475 10.65875 -20 10 C-19.67 9.34 -19.34 8.68 -19 8 C-17.515 8.99 -17.515 8.99 -16 10 C-12.43418365 10.06727955 -10.00482116 9.93254864 -7.31640625 7.4375 C-6.29646817 6.21662649 -5.30833187 4.96823305 -4.359375 3.69140625 C-3 2 -3 2 0 0 Z " fill="#490876" transform="translate(201,94)"/>
<path d="M0 0 C0.66 0 1.32 0 2 0 C3.125 5.75 3.125 5.75 2 8 C1.01 8 0.02 8 -1 8 C-1 8.66 -1 9.32 -1 10 C1.46326712 11.6446674 1.46326712 11.6446674 4 13 C2.9375 14.5625 2.9375 14.5625 1 16 C-2.6875 15.6875 -2.6875 15.6875 -6 15 C-6.33 12.03 -6.66 9.06 -7 6 C-5.68 6.33 -4.36 6.66 -3 7 C-2.01 4.69 -1.02 2.38 0 0 Z " fill="#650889" transform="translate(234,98)"/>
<path d="M0 0 C1.8125 1.25 1.8125 1.25 3 3 C3 4.32 3 5.64 3 7 C2.01 6.67 1.02 6.34 0 6 C-0.2475 6.639375 -0.495 7.27875 -0.75 7.9375 C-2 10 -2 10 -4.125 10.75 C-5.053125 10.87375 -5.053125 10.87375 -6 11 C-6.33 9.35 -6.66 7.7 -7 6 C-7.99 6.33 -8.98 6.66 -10 7 C-9.63206382 4.33246269 -9.18001672 3.18001672 -7.25 1.25 C-4.53981621 -0.25565766 -3.05579737 -0.47012267 0 0 Z " fill="#FEA291" transform="translate(136,64)"/>
<path d="M0 0 C6.27 0 12.54 0 19 0 C19 1.98 19 3.96 19 6 C18.01 5.67 17.02 5.34 16 5 C16.66 5 17.32 5 18 5 C18 4.34 18 3.68 18 3 C17.01 2.67 16.02 2.34 15 2 C14.67 1.67 14.34 1.34 14 1 C14 2.65 14 4.3 14 6 C11.03 6 8.06 6 5 6 C5 4.35 5 2.7 5 1 C3.68 1 2.36 1 1 1 C0.67 1.99 0.34 2.98 0 4 C0 2.68 0 1.36 0 0 Z " fill="#C78A41" transform="translate(131,157)"/>
<path d="M0 0 C0.66 0.33 1.32 0.66 2 1 C1.71125 2.051875 1.4225 3.10375 1.125 4.1875 C0.590439 7.8420178 0.590439 7.8420178 2.26953125 9.578125 C4.11706493 11.12593904 4.11706493 11.12593904 7 13 C7.66 11.68 8.32 10.36 9 9 C8.690625 10.36125 8.690625 10.36125 8.375 11.75 C7.9872755 15.11027897 8.19588033 16.24075815 10 19 C9.01 18.67 8.02 18.34 7 18 C4.99124558 18.27571139 2.98821313 18.60235737 1 19 C2 17 2 17 5 15 C3.46172153 12.792191 3.46172153 12.792191 1 11 C-2.69432511 11.14612895 -2.69432511 11.14612895 -6 12 C-6 11.34 -6 10.68 -6 10 C-4.35 9.67 -2.7 9.34 -1 9 C-1 8.34 -1 7.68 -1 7 C-1.598125 6.7525 -2.19625 6.505 -2.8125 6.25 C-5.28647521 4.83629988 -6.43370255 3.34944617 -8 1 C-5.50638429 2.20381448 -3.31856917 3.45428722 -1 5 C-0.67 3.35 -0.34 1.7 0 0 Z " fill="#4C0384" transform="translate(42,112)"/>
<path d="M0 0 C10.89 0 21.78 0 33 0 C33 0.33 33 0.66 33 1 C27.39 1 21.78 1 16 1 C16 2.65 16 4.3 16 6 C14.02 6 12.04 6 10 6 C10 4.35 10 2.7 10 1 C6.7 1 3.4 1 0 1 C0 0.67 0 0.34 0 0 Z " fill="#F0B977" transform="translate(59,130)"/>
<path d="M0 0 C1.75032844 0.14183696 3.50025534 0.28863429 5.25 0.4375 C6.71179688 0.55931641 6.71179688 0.55931641 8.203125 0.68359375 C10.56461753 0.95074584 12.71901065 1.35371968 15 2 C15 3.32 15 4.64 15 6 C4.44191344 5.03644647 4.44191344 5.03644647 0 4 C0 2.68 0 1.36 0 0 Z " fill="#5C677B" transform="translate(199,143)"/>
<path d="M0 0 C0 0.66 0 1.32 0 2 C-0.66 2 -1.32 2 -2 2 C-2 3.65 -2 5.3 -2 7 C-1.34 7 -0.68 7 0 7 C0 15.91 0 24.82 0 34 C-0.33 34 -0.66 34 -1 34 C-1 25.42 -1 16.84 -1 8 C-1.66 8 -2.32 8 -3 8 C-3 6.02 -3 4.04 -3 2 C-7.95 2 -12.9 2 -18 2 C-18 1.67 -18 1.34 -18 1 C-15.93769732 0.8309093 -13.8751477 0.66482867 -11.8125 0.5 C-10.08966797 0.36078125 -10.08966797 0.36078125 -8.33203125 0.21875 C-5.53927574 0.0354038 -2.79680188 -0.04213637 0 0 Z " fill="#D47D5E" transform="translate(110,129)"/>
<path d="M0 0 C0.66 0 1.32 0 2 0 C2.309375 0.969375 2.61875 1.93875 2.9375 2.9375 C3.69523342 5.84065792 3.69523342 5.84065792 5 7 C8.45821402 7.25003964 8.45821402 7.25003964 12 7 C14.35953094 4.64046906 14.49141413 3.22104383 15 0 C15.66 0 16.32 0 17 0 C16.51834131 6.38197767 16.51834131 6.38197767 14.375 8.9375 C11.00997209 10.44290722 8.64962568 10.44819965 5 10 C2.0625 8.375 2.0625 8.375 0 6 C-0.3125 2.75 -0.3125 2.75 0 0 Z " fill="#FFFAF1" transform="translate(140,66)"/>
<path d="M0 0 C1.45880109 0.14107747 2.91703551 0.28802415 4.375 0.4375 C5.59316406 0.55931641 5.59316406 0.55931641 6.8359375 0.68359375 C9 1 9 1 11 2 C11 3.65 11 5.3 11 7 C7.37 6.34 3.74 5.68 0 5 C0 3.35 0 1.7 0 0 Z " fill="#6D7990" transform="translate(62,143)"/>
<path d="M0 0 C0.33 0.66 0.66 1.32 1 2 C1.99 2.33 2.98 2.66 4 3 C4 3.66 4 4.32 4 5 C5.32 5.66 6.64 6.32 8 7 C6.824375 6.7525 5.64875 6.505 4.4375 6.25 C-0.51865367 5.58741261 -2.96614253 7.22672299 -7 10 C-7 6 -7 6 -5.46875 4.296875 C-4.8190625 3.78640625 -4.169375 3.2759375 -3.5 2.75 C-2.8503125 2.22921875 -2.200625 1.7084375 -1.53125 1.171875 C-0.77328125 0.59179688 -0.77328125 0.59179688 0 0 Z " fill="#8200BB" transform="translate(240,147)"/>
<path d="M0 0 C3.63 0 7.26 0 11 0 C11 1.65 11 3.3 11 5 C8.03 5 5.06 5 2 5 C1.34 3.35 0.68 1.7 0 0 Z " fill="#8791A4" transform="translate(129,138)"/>
<path d="M0 0 C3.33333333 3.33333333 6.66666667 6.66666667 10 10 C7.25 10.75 7.25 10.75 4 11 C1.51627063 9.18754884 0.31299176 7.79451754 -0.8125 4.9375 C-1 3 -1 3 0 0 Z " fill="#6C0A90" transform="translate(223,108)"/>
<path d="M0 0 C2.64 0 5.28 0 8 0 C8 1.98 8 3.96 8 6 C5.36 6 2.72 6 0 6 C0 4.02 0 2.04 0 0 Z " fill="#F9B75F" transform="translate(127,161)"/>
<path d="M0 0 C2.77796325 2.77796325 2.94438557 4.85826856 3.1328125 8.7265625 C3.13023437 9.68304688 3.12765625 10.63953125 3.125 11.625 C3.12886719 13.06746094 3.12886719 13.06746094 3.1328125 14.5390625 C3 17 3 17 2 19 C1.34 19 0.68 19 0 19 C0 12.73 0 6.46 0 0 Z " fill="#FEDD8B" transform="translate(165,77)"/>
<path d="M0 0 C2.97 1.98 2.97 1.98 6 4 C5.67 5.98 5.34 7.96 5 10 C2.31546973 9.62971996 1.1322243 9.12340935 -0.875 7.25 C-2 5 -2 5 -1.1875 2.25 C-0.795625 1.5075 -0.40375 0.765 0 0 Z " fill="#9300C4" transform="translate(40,145)"/>
<path d="M0 0 C1.98 0.66 3.96 1.32 6 2 C6 2.66 6 3.32 6 4 C8.97 4.495 8.97 4.495 12 5 C11.01 6.485 11.01 6.485 10 8 C6.875 8.1875 6.875 8.1875 4 8 C4 7.34 4 6.68 4 6 C2.68 5.67 1.36 5.34 0 5 C0 3.35 0 1.7 0 0 Z " fill="#67098C" transform="translate(219,116)"/>
<path d="M0 0 C0.66 0 1.32 0 2 0 C2.22057835 3.97041037 1.88343932 5.23312136 0 9 C-2.97 8.01 -5.94 7.02 -9 6 C-7 4 -7 4 -4.375 3.875 C-3.59125 3.91625 -2.8075 3.9575 -2 4 C-1.34 2.68 -0.68 1.36 0 0 Z " fill="#760C99" transform="translate(54,97)"/>
<path d="M0 0 C0.33 0 0.66 0 1 0 C1.08681476 3.62484999 1.14032721 7.24943443 1.1875 10.875 C1.22520508 12.42380859 1.22520508 12.42380859 1.26367188 14.00390625 C1.27333984 14.99003906 1.28300781 15.97617188 1.29296875 16.9921875 C1.3086792 17.90339355 1.32438965 18.81459961 1.34057617 19.75341797 C1.22818604 20.49479004 1.1157959 21.23616211 1 22 C0.01 22.66 -0.98 23.32 -2 24 C-1.85873374 20.93722733 -1.71215604 17.87486458 -1.5625 14.8125 C-1.50352539 13.51602539 -1.50352539 13.51602539 -1.44335938 12.19335938 C-1.23652984 8.04085878 -0.99896469 4.05462138 0 0 Z " fill="#FED18B" transform="translate(130,79)"/>
<path d="M0 0 C2.97 0.33 5.94 0.66 9 1 C9 2.65 9 4.3 9 6 C3.375 6.25 3.375 6.25 0 4 C0 2.68 0 1.36 0 0 Z " fill="#6C788F" transform="translate(74,145)"/>
<path d="M0 0 C2.97 0.495 2.97 0.495 6 1 C6 2.98 6 4.96 6 7 C4.02 7 2.04 7 0 7 C0 4.69 0 2.38 0 0 Z " fill="#F8B45D" transform="translate(174,130)"/>
<path d="M0 0 C4.39750672 0.50740462 6.86948922 3.08293314 10 6 C10 6.66 10 7.32 10 8 C7.53199953 6.84826645 5.95216435 5.95216435 4 4 C3.67 5.32 3.34 6.64 3 8 C1.68 6.02 0.36 4.04 -1 2 C-0.67 1.34 -0.34 0.68 0 0 Z " fill="#EF777B" transform="translate(188,89)"/>
<path d="M0 0 C0.33 0 0.66 0 1 0 C1 2.31 1 4.62 1 7 C-7.57142857 7.14285714 -7.57142857 7.14285714 -11 6 C-11 5.34 -11 4.68 -11 4 C-7.7 4.33 -4.4 4.66 -1 5 C-0.67 3.35 -0.34 1.7 0 0 Z " fill="#F7E4C8" transform="translate(215,144)"/>
<path d="M0 0 C1.258125 0.226875 2.51625 0.45375 3.8125 0.6875 C3.60625 1.265 3.4 1.8425 3.1875 2.4375 C2.72588739 5.20717567 3.38305055 6.33311267 4.8125 8.6875 C3.8225 9.1825 3.8225 9.1825 2.8125 9.6875 C2.1525 9.3575 1.4925 9.0275 0.8125 8.6875 C0.8125 7.0375 0.8125 5.3875 0.8125 3.6875 C-1.8275 3.3575 -4.4675 3.0275 -7.1875 2.6875 C-5.15110924 -0.49436057 -3.4972064 -0.45804119 0 0 Z " fill="#DDDDDF" transform="translate(72.1875,141.3125)"/>
<path d="M0 0 C0.99 0.66 1.98 1.32 3 2 C3.40843923 4.71203652 3.13336867 7.2437142 3 10 C1.35 9.01 -0.3 8.02 -2 7 C-1.34 4.69 -0.68 2.38 0 0 Z " fill="#8E00C1" transform="translate(47,150)"/>
<path d="M0 0 C2.92824652 2.92824652 4.27239967 5.2979993 6 9 C4.02 9 2.04 9 0 9 C0 6.03 0 3.06 0 0 Z " fill="#A1514C" transform="translate(176,120)"/>
<path d="M0 0 C1.98 0 3.96 0 6 0 C6 1.65 6 3.3 6 5 C4.02 5 2.04 5 0 5 C0 3.35 0 1.7 0 0 Z " fill="#FBB860" transform="translate(69,131)"/>
<path d="M0 0 C1.65 0.33 3.3 0.66 5 1 C4.67 2.65 4.34 4.3 4 6 C3.01 6.33 2.02 6.66 1 7 C0.34 6.34 -0.32 5.68 -1 5 C-0.625 2.375 -0.625 2.375 0 0 Z " fill="#F2AE91" transform="translate(75,53)"/>
<path d="M0 0 C0.99 0.33 1.98 0.66 3 1 C3 1.66 3 2.32 3 3 C4.65 3 6.3 3 8 3 C8 3.99 8 4.98 8 6 C5.36 5.67 2.72 5.34 0 5 C0 3.35 0 1.7 0 0 Z " fill="#ECD3B9" transform="translate(196,144)"/>
<path d="M0 0 C2.31 0.33 4.62 0.66 7 1 C7 2.32 7 3.64 7 5 C4.69 4.67 2.38 4.34 0 4 C0 2.68 0 1.36 0 0 Z " fill="#697282" transform="translate(207,144)"/>
<path d="M0 0 C0 0.99 0 1.98 0 3 C-3.13349732 4.04449911 -3.98968256 3.93423645 -7 3 C-7 2.01 -7 1.02 -7 0 C-4.3333581 -1.33332095 -2.83319697 -0.67102033 0 0 Z " fill="#600785" transform="translate(237,110)"/>
<path d="M0 0 C1.98 0 3.96 0 6 0 C6.66 1.32 7.32 2.64 8 4 C5.36 4 2.72 4 0 4 C0 2.68 0 1.36 0 0 Z " fill="#AE6E71" transform="translate(186,47)"/>
<path d="M0 0 C1.98 0 3.96 0 6 0 C6 1.32 6 2.64 6 4 C4.02 4 2.04 4 0 4 C0 2.68 0 1.36 0 0 Z " fill="#FBB860" transform="translate(174,163)"/>
<path d="M0 0 C1.98 0 3.96 0 6 0 C6 1.32 6 2.64 6 4 C4.02 4 2.04 4 0 4 C0 2.68 0 1.36 0 0 Z " fill="#FBB860" transform="translate(69,163)"/>
<path d="M0 0 C1.65 0 3.3 0 5 0 C5 1.65 5 3.3 5 5 C3.35 5 1.7 5 0 5 C0 3.35 0 1.7 0 0 Z " fill="#5F6D86" transform="translate(135,138)"/>
<path d="M0 0 C2.475 0.495 2.475 0.495 5 1 C5 2.65 5 4.3 5 6 C3.68 5.67 2.36 5.34 1 5 C0.67 3.35 0.34 1.7 0 0 Z " fill="#5A6882" transform="translate(68,144)"/>
<path d="M0 0 C1.98 0.495 1.98 0.495 4 1 C4.33 2.65 4.66 4.3 5 6 C3.02 6 1.04 6 -1 6 C-0.67 4.02 -0.34 2.04 0 0 Z " fill="#DB9542" transform="translate(145,158)"/>
<path d="M0 0 C0.99 0.99 1.98 1.98 3 3 C4.65 2.34 6.3 1.68 8 1 C6.95125002 3.62187494 6.35068687 4.79371361 3.875 6.25 C3.25625 6.4975 2.6375 6.745 2 7 C0.5393715 4.35261084 0 3.10551666 0 0 Z " fill="#FEAA8C" transform="translate(102,97)"/>
<path d="M0 0 C0.99 0.33 1.98 0.66 3 1 C3 2.32 3 3.64 3 5 C2.34 5 1.68 5 1 5 C1 5.66 1 6.32 1 7 C0.34 7 -0.32 7 -1 7 C-1.04254356 5.00045254 -1.04080783 2.99958364 -1 1 C-0.67 0.67 -0.34 0.34 0 0 Z " fill="#A17174" transform="translate(97,46)"/>
<path d="M0 0 C0.33 0.66 0.66 1.32 1 2 C1.99 2.33 2.98 2.66 4 3 C4 3.66 4 4.32 4 5 C5.32 5.66 6.64 6.32 8 7 C1.125 6.125 1.125 6.125 0 5 C-0.04063832 3.33382885 -0.042721 1.66611905 0 0 Z " fill="#7400B2" transform="translate(240,147)"/>
<path d="M0 0 C2.64 0 5.28 0 8 0 C8 0.66 8 1.32 8 2 C6.02 2.33 4.04 2.66 2 3 C1.34 2.01 0.68 1.02 0 0 Z " fill="#FFFBF8" transform="translate(88,59)"/>
<path d="M0 0 C-0.33 0.99 -0.66 1.98 -1 3 C-2.65 3.33 -4.3 3.66 -6 4 C-6 3.01 -6 2.02 -6 1 C-3 0 -3 0 0 0 Z " fill="#FFEDE8" transform="translate(189,60)"/>
</svg>
