<svg width="24" height="24" viewBox="0 0 24 24" fill="none" xmlns="http://www.w3.org/2000/svg">
<path d="M11 2C10.4477 2 10 2.44772 10 3C10 3.55228 9.55228 4 9 4L5.5 4C4.67157 4 4 4.67157 4 5.5C4 6.32843 4.67157 7 5.5 7L18.5 7C19.3284 7 20 6.32843 20 5.5C20 4.67157 19.3284 4 18.5 4L15 4C14.4477 4 14 3.55228 14 3C14 2.44772 13.5523 2 13 2L11 2Z" fill="#989898"/>
<path fill-rule="evenodd" clip-rule="evenodd" d="M5.16969 9.64655C5.0802 9.0425 5.54825 8.5 6.15889 8.5L17.8408 8.5C18.4514 8.5 18.9195 9.0425 18.83 9.64655L17.3791 19.4396C17.1612 20.9106 15.8986 22 14.4115 22H9.58813C8.10108 22 6.83844 20.9106 6.62052 19.4396L5.16969 9.64655ZM11.9998 11.5C12.276 11.5 12.4998 11.7239 12.4998 12L12.4998 18.5C12.4998 18.7761 12.276 19 11.9998 19C11.7237 19 11.4998 18.7761 11.4998 18.5L11.4998 12C11.4998 11.7239 11.7237 11.5 11.9998 11.5ZM9.99982 13C9.99982 12.7239 9.77596 12.5 9.49982 12.5C9.22368 12.5 8.99982 12.7239 8.99982 13L8.99982 17.5C8.99982 17.7761 9.22368 18 9.49982 18C9.77596 18 9.99982 17.7761 9.99982 17.5L9.99982 13ZM14.9998 13C14.9998 12.7239 14.776 12.5 14.4998 12.5C14.2237 12.5 13.9998 12.7239 13.9998 13L13.9998 17.5C13.9998 17.7761 14.2237 18 14.4998 18C14.776 18 14.9998 17.7761 14.9998 17.5L14.9998 13Z" fill="#989898"/>
</svg>
