<svg width="55" height="49" viewBox="0 0 55 49" fill="none" xmlns="http://www.w3.org/2000/svg">
<g filter="url(#filter0_d_1034_1995)">
<path d="M19.5556 5.73438L9.79639 14.6723V31.8734C9.79639 33.747 11.41 35.2656 13.4008 35.2656H41.6144C43.6053 35.2656 45.2189 33.747 45.2189 31.8734V9.12664C45.2189 7.25302 43.6053 5.73438 41.6144 5.73438H19.5556Z" fill="#FEFEFE"/>
<path d="M43.4799 10.3991V30.4376C43.4799 32.0879 41.9762 33.4255 40.1203 33.4255L14.7917 33.5078C12.9383 33.5078 11.4346 32.1702 11.4346 30.5199V13.173L17.6118 7.49341L31.0405 7.44404L36.7307 7.42289H37.0978L39.286 7.41348H39.5258L40.1203 7.41113C41.9762 7.41113 43.4799 8.74876 43.4799 10.3991Z" fill="#E8E8E8"/>
<path d="M18.6535 15.8259C18.4286 16.1597 17.4795 15.92 17.1772 15.833C17.1198 15.8165 17.0848 15.8048 17.0848 15.8048C17.1098 15.8236 17.1347 15.8424 17.1622 15.8612C17.6893 16.2397 18.651 16.7874 18.3162 17.4551C18.0565 17.9769 16.7825 17.4057 16.1481 17.0813C15.9482 16.9778 15.8134 16.9003 15.7909 16.8885C15.8184 16.9144 16.0007 17.0789 16.2155 17.3117C16.6901 17.8312 17.3246 18.6775 16.7676 19.0207C16.3229 19.2934 14.8767 18.3531 13.7376 17.7325C12.7435 17.1894 12.114 16.7804 12.0141 16.9684C12.0141 16.9684 12.0016 17.0648 12.2938 17.6995C12.5861 18.3366 13.2056 18.9831 12.5661 19.3545C12.3063 19.505 11.8842 19.3357 11.4346 19.0066V13.4516L13.8051 11.2441C13.8675 11.2888 13.9325 11.3358 13.9974 11.3828C14.6019 11.8224 15.0865 12.3608 15.601 12.5559C16.1131 12.7487 18.7234 13.3199 18.656 14.0369C18.6085 14.5377 18.0265 14.5917 17.6793 14.58C17.5519 14.5753 17.4545 14.5612 17.4295 14.5588C17.5294 14.5894 17.6268 14.6246 17.7193 14.6646C18.4037 14.9608 18.8933 15.4757 18.6535 15.8259Z" fill="#FEFEFE"/>
<path d="M12.1115 16.8895C12.0915 16.8895 12.0741 16.8848 12.0566 16.8754C12.0016 16.8472 11.9791 16.7814 12.0116 16.7273C12.0241 16.7061 13.2656 14.541 12.094 13.0412C12.0566 12.9918 12.0666 12.9236 12.119 12.8884C12.1715 12.8531 12.2439 12.8625 12.2814 12.9119C13.5403 14.5246 12.2689 16.739 12.2139 16.8307C12.194 16.8707 12.154 16.8895 12.1115 16.8895Z" fill="#E8E8E8"/>
<path d="M16.1383 17.3405C16.1058 17.3405 16.0758 17.3287 16.0508 17.3029C16.0409 17.2935 15.1566 16.3625 14.2649 16.0828C14.2049 16.064 14.1724 16.0028 14.1924 15.9441C14.2124 15.8853 14.2773 15.8571 14.3398 15.8759C15.289 16.1745 16.1882 17.1171 16.2257 17.1571C16.2682 17.2018 16.2632 17.2699 16.2157 17.3099C16.1932 17.3311 16.1657 17.3405 16.1383 17.3405Z" fill="#E8E8E8"/>
<path d="M17.065 15.9116C17.045 15.9116 17.0225 15.9069 17.0025 15.8952C16.9901 15.8881 15.6537 15.0912 15.1566 14.8843C15.0992 14.8608 15.0717 14.795 15.0967 14.7409C15.1216 14.6868 15.1916 14.661 15.249 14.6845C15.7636 14.8984 17.07 15.6789 17.1274 15.7118C17.1824 15.7447 17.1974 15.8105 17.1624 15.8623C17.1424 15.8928 17.105 15.9116 17.065 15.9116Z" fill="#E8E8E8"/>
<path d="M17.6046 14.7713C17.5896 14.7713 17.5771 14.769 17.5621 14.7643C17.5047 14.7431 16.1158 14.2306 15.5763 13.965C15.5189 13.9368 15.4989 13.8709 15.5263 13.8192C15.5563 13.7652 15.6263 13.7464 15.6812 13.7722C16.2108 14.0332 17.6296 14.555 17.6421 14.5621C17.702 14.5832 17.7295 14.6467 17.707 14.7031C17.6945 14.7455 17.6495 14.7713 17.6046 14.7713Z" fill="#E8E8E8"/>
<path d="M43.48 11.1443V19.0455C42.9604 19.5627 42.3984 20 42.0612 19.8331C41.5291 19.5698 41.8339 18.9233 41.9688 18.6835C41.9962 18.6388 42.0162 18.6083 42.0237 18.5965C41.9987 18.6224 41.9738 18.6459 41.9513 18.6717C41.3992 19.2289 40.6174 19.5251 40.3501 19.1631C40.1153 18.8433 40.7023 18.1287 40.8972 17.9054C40.9371 17.863 40.9596 17.8372 40.9596 17.8372C40.9321 17.8513 40.9047 17.8654 40.8747 17.8842C40.3127 18.1875 39.4284 18.7963 38.9163 18.2627C38.5167 17.8466 39.5308 16.9862 40.0829 16.5701C40.2552 16.4384 40.3801 16.3538 40.4051 16.335C40.3701 16.3491 40.1428 16.4408 39.8406 16.5348C39.1661 16.7417 38.117 16.9627 37.9971 16.3609C37.9022 15.8836 39.346 15.0068 40.3701 14.2733C41.0346 13.7984 41.5516 13.4646 41.714 13.2625C41.7714 13.1919 41.7864 13.1379 41.749 13.0979C41.749 13.0979 41.7215 13.0838 41.5691 13.0697C41.4517 13.0626 41.2569 13.0556 40.9421 13.0603C40.2227 13.0697 39.3685 13.3541 39.2561 12.6724C39.1412 11.9906 41.2494 11.2008 42.5108 11.1185C42.8655 11.095 43.1877 11.1114 43.48 11.1443Z" fill="#C3C3C3"/>
<path d="M43.48 14.0513V14.2911C42.6332 14.0114 41.9713 13.4871 41.714 13.2614C41.6491 13.2074 41.6091 13.1698 41.5991 13.1603C41.5741 13.1345 41.5641 13.1016 41.5691 13.0687C41.5716 13.0452 41.5841 13.0217 41.6016 13.0052C41.6491 12.9629 41.7215 12.9652 41.7665 13.0075C41.7764 13.0169 42.4958 13.6987 43.48 14.0513Z" fill="#E8E8E8"/>
<path d="M43.4803 16.7955V17.04C43.253 16.9295 43.0008 16.7838 42.7535 16.5887V16.5863C42.726 16.5675 42.6985 16.5463 42.671 16.5205C42.3738 16.2736 42.0865 15.9516 41.8617 15.5402C41.8242 15.4744 41.7893 15.4038 41.7568 15.3333C41.6969 15.204 41.6444 15.0653 41.5969 14.9196C41.577 14.8631 41.6119 14.802 41.6744 14.7856C41.7343 14.7668 41.7993 14.7997 41.8168 14.8584C42.1515 15.9093 42.8833 16.4876 43.4803 16.7955Z" fill="#E8E8E8"/>
<path d="M39.9481 16.6069C39.9006 16.6069 39.8557 16.5787 39.8382 16.534C39.8182 16.4776 39.8482 16.4165 39.9106 16.3953C39.9231 16.3906 41.1446 15.9886 41.7466 15.3374C41.789 15.2928 41.8615 15.2881 41.9089 15.328C41.9564 15.368 41.9614 15.4362 41.9189 15.4808C41.277 16.1743 40.0355 16.5834 39.9831 16.5998C39.9731 16.6069 39.9606 16.6069 39.9481 16.6069Z" fill="#E8E8E8"/>
<path d="M40.9701 17.9306C40.9326 17.9306 40.8976 17.9141 40.8752 17.8836C40.8377 17.8342 40.8502 17.766 40.9026 17.7331C40.9151 17.7237 42.179 16.8915 42.5637 16.5459C42.6112 16.5036 42.6836 16.506 42.7261 16.5506C42.771 16.5953 42.7685 16.6635 42.7211 16.7035C42.3239 17.0608 41.085 17.8765 41.0325 17.9118C41.015 17.9259 40.9926 17.9306 40.9701 17.9306Z" fill="#E8E8E8"/>
<path d="M43.4803 17.1172V17.3993C42.9932 17.8083 42.1215 18.657 42.1115 18.6664C42.089 18.6899 42.059 18.6993 42.0266 18.6993C42.0066 18.6993 41.9866 18.6946 41.9691 18.6828C41.9616 18.6805 41.9566 18.6781 41.9516 18.6711C41.9491 18.6711 41.9491 18.6711 41.9466 18.6687C41.9017 18.6288 41.8992 18.5583 41.9441 18.5159C41.9866 18.4736 42.9982 17.491 43.4553 17.1313C43.4628 17.1266 43.4703 17.1219 43.4803 17.1172Z" fill="#E8E8E8"/>
<path d="M20.2146 26.3801C20.1497 26.9419 18.2363 27.4638 16.84 27.9551C15.621 28.3877 14.7892 28.6134 14.8916 28.8296C14.8916 28.8296 14.9741 28.9096 15.7759 29.1258C16.5777 29.3398 17.6268 29.2927 17.5119 30.085C17.397 30.8772 14.7742 31.0935 13.3455 30.7902C12.5461 30.6186 11.9416 30.313 11.4346 30.0732V23.1265C12.1665 22.9972 12.8759 22.9549 13.3554 22.7057C13.905 22.4212 16.3104 20.6793 16.9274 21.2482C17.427 21.7089 16.8575 22.3343 16.6202 22.5576C16.5802 22.5976 16.5477 22.6234 16.5353 22.6352C16.5702 22.614 16.6027 22.5952 16.6377 22.5764C17.4495 22.1274 18.4237 22.0428 18.591 22.5317C18.7409 22.9596 17.8317 23.5732 17.5369 23.7565C17.482 23.7941 17.447 23.8129 17.447 23.8129C17.482 23.8059 17.5169 23.7988 17.5544 23.7894C18.2863 23.6272 19.4878 23.2252 19.8674 23.9799C20.1747 24.584 18.646 25.2446 17.9066 25.5196C17.6768 25.6066 17.5244 25.656 17.5244 25.656C17.5244 25.656 17.9815 25.6019 18.5211 25.609C19.3154 25.616 20.2871 25.7524 20.2146 26.3801Z" fill="#D3D3D3"/>
<path d="M14.8367 28.728C14.8217 28.7327 14.8042 28.7351 14.7892 28.7351C14.7368 28.7351 14.6893 28.7069 14.6668 28.6599C14.6568 28.6317 13.5803 26.1656 11.4346 25.9588V25.7119C13.7526 25.9141 14.8617 28.4577 14.9091 28.5682C14.9366 28.6293 14.9041 28.7022 14.8367 28.728Z" fill="#E8E8E8"/>
<path d="M15.5513 27.2421C15.5463 27.2421 15.5438 27.2421 15.5388 27.2421C15.4664 27.235 15.4139 27.1763 15.4214 27.1081C15.6662 24.7878 13.7429 23.6171 13.7229 23.6053C13.6629 23.5701 13.6429 23.4925 13.6829 23.4361C13.7204 23.3797 13.8003 23.3609 13.8627 23.3985C13.8827 23.4102 15.9435 24.6562 15.6812 27.1316C15.6737 27.1951 15.6163 27.2421 15.5513 27.2421Z" fill="#E8E8E8"/>
<path d="M15.6013 26.1723C15.5538 26.1723 15.5064 26.1465 15.4839 26.1042C15.4514 26.0431 15.4789 25.9702 15.5438 25.9396C16.6654 25.4248 18.339 25.5259 18.4089 25.5306C18.4814 25.5353 18.5338 25.594 18.5288 25.6622C18.5238 25.7304 18.4589 25.7798 18.3889 25.7751C18.3714 25.7751 16.7129 25.674 15.6537 26.1582C15.6413 26.1676 15.6213 26.1723 15.6013 26.1723Z" fill="#E8E8E8"/>
<path d="M15.1443 24.753C15.0968 24.753 15.0519 24.7295 15.0269 24.6849C14.9944 24.6238 15.0194 24.5509 15.0843 24.5203C15.6514 24.25 17.3174 23.7304 17.3874 23.7093C17.4548 23.6881 17.5298 23.7234 17.5522 23.7869C17.5747 23.8503 17.5373 23.9209 17.4698 23.942C17.4523 23.9467 15.7538 24.4756 15.2017 24.7389C15.1843 24.7483 15.1643 24.753 15.1443 24.753Z" fill="#E8E8E8"/>
<path d="M14.3722 23.8194C14.3223 23.8194 14.2723 23.7912 14.2523 23.7442C14.2249 23.6831 14.2548 23.6102 14.3223 23.5843C14.9442 23.3351 16.4505 22.5406 16.4655 22.5311C16.5279 22.4982 16.6078 22.5194 16.6428 22.5782C16.6778 22.6369 16.6553 22.7122 16.5929 22.7451C16.5304 22.778 15.0592 23.5538 14.4247 23.81C14.4072 23.8171 14.3897 23.8194 14.3722 23.8194Z" fill="#E8E8E8"/>
<path d="M24.8136 32.5606C24.6088 32.9274 24.424 33.2377 24.2966 33.4775L22.7529 33.4822L21.3441 33.4869L18.3666 33.4963H18.2417C18.3591 33.1954 18.5414 32.9015 18.7887 32.5747C18.8137 32.5418 18.8412 32.5066 18.8712 32.4736C19.2458 31.9964 19.6855 31.5968 19.8403 31.1877C20.0052 30.7505 20.4523 28.5383 21.1343 28.5689C21.6763 28.5924 21.6963 29.2201 21.6788 29.4763C21.6763 29.5445 21.6713 29.5845 21.6713 29.5845C21.6813 29.5492 21.6938 29.5163 21.7063 29.481C21.9386 28.8228 22.4606 28.3009 22.8278 28.5031C23.1475 28.6794 22.9652 29.4669 22.8903 29.7326C22.8803 29.7749 22.8703 29.8054 22.8678 29.8172C22.8853 29.7937 22.9053 29.7702 22.9227 29.7467C23.2625 29.2859 23.7445 28.4725 24.384 28.7288C24.8786 28.9239 24.4115 29.9794 24.1242 30.5318C24.1242 30.5318 24.1242 30.5319 24.1217 30.5342C24.0268 30.7176 23.9519 30.8469 23.9394 30.868C23.9619 30.8422 24.1167 30.6823 24.334 30.4895C24.8061 30.0734 25.5805 29.5163 25.9252 29.97C26.2 30.3344 25.3632 31.5827 24.8136 32.5606Z" fill="#FEFEFE"/>
<path d="M26.385 33.4703L25.4033 33.4727C25.783 33.2682 26.1302 33.1342 26.385 33.4703Z" fill="#FEFEFE"/>
<path d="M22.7526 33.4812L21.3438 33.4859C21.8308 33.3848 22.3254 33.4107 22.7526 33.4812Z" fill="#E8E8E8"/>
<path d="M23.5896 32.8139C23.5546 32.8139 23.5196 32.7974 23.4946 32.7692C22.3531 31.2882 20.5771 31.5468 20.5596 31.5491C20.4972 31.5585 20.4372 31.5186 20.4272 31.4598C20.4172 31.401 20.4597 31.3446 20.5222 31.3352C20.5421 31.3328 22.4555 31.0507 23.6845 32.6423C23.722 32.6916 23.7095 32.7598 23.6595 32.7951C23.637 32.8068 23.6145 32.8139 23.5896 32.8139Z" fill="#E8E8E8"/>
<path d="M23.135 32.2592C23.125 32.2592 23.1125 32.2568 23.1025 32.2545C23.04 32.238 23.0051 32.1769 23.0226 32.1205C23.2723 31.3094 24.1341 30.5196 24.1716 30.4866C24.2166 30.4443 24.2915 30.4467 24.334 30.489C24.3789 30.5313 24.3764 30.6018 24.3315 30.6418C24.324 30.6488 23.4772 31.4246 23.2449 32.1792C23.2299 32.2286 23.1849 32.2592 23.135 32.2592Z" fill="#E8E8E8"/>
<path d="M21.9658 31.5463C21.9508 31.5463 21.9383 31.544 21.9233 31.5393C21.8634 31.5181 21.8359 31.4546 21.8584 31.3982C22.0432 30.9586 22.7351 29.8302 22.7626 29.7832C22.7951 29.7315 22.865 29.7127 22.92 29.7432C22.9749 29.7738 22.9949 29.8396 22.9625 29.8913C22.955 29.9031 22.2506 31.0527 22.0732 31.4758C22.0557 31.5205 22.0108 31.5463 21.9658 31.5463Z" fill="#E8E8E8"/>
<path d="M20.9916 31.3773C20.9741 31.3773 20.9591 31.3749 20.9416 31.3679C20.8842 31.342 20.8592 31.2786 20.8867 31.2221C21.114 30.7708 21.5586 29.5601 21.5611 29.5483C21.5811 29.4919 21.6485 29.4614 21.7085 29.4802C21.7684 29.499 21.8009 29.5624 21.7809 29.6189C21.7634 29.6682 21.3288 30.853 21.0965 31.3162C21.0765 31.3561 21.034 31.3773 20.9916 31.3773Z" fill="#E8E8E8"/>
<path d="M18.8662 32.5998C18.8412 32.6304 18.5639 32.9783 18.3666 33.4955H18.1343C18.3491 32.8843 18.6763 32.4752 18.6838 32.4658C18.7213 32.4188 18.7962 32.4118 18.8462 32.447C18.8562 32.4541 18.8662 32.4635 18.8712 32.4729C18.8986 32.5105 18.8986 32.5622 18.8662 32.5998Z" fill="#E8E8E8"/>
<path d="M37.4203 33.4343L34.5502 33.4437H34.1655L31.4179 33.4531H31.1381L30.3438 33.4578H30.3413C29.8742 32.7831 28.9849 31.5207 29.3771 31.1493C29.7593 30.7896 30.2688 31.1963 30.4587 31.3773C30.5111 31.4243 30.5386 31.4572 30.5386 31.4572C30.5186 31.4267 30.4986 31.3961 30.4812 31.3632C30.1165 30.759 30.054 30.0444 30.4612 29.9245C30.8134 29.8187 31.3129 30.4746 31.4753 30.705C31.5003 30.7402 31.5178 30.7661 31.5253 30.7778C31.5228 30.752 31.5153 30.7214 31.5078 30.6909C31.3729 30.1455 31.0532 29.2639 31.6826 28.9865C32.1672 28.7726 32.6843 29.8046 32.9291 30.3758C33.009 30.5639 33.059 30.7026 33.069 30.7308C33.0665 30.6932 33.0415 30.4793 33.039 30.2019C33.0265 29.5907 33.1089 28.6809 33.6959 28.7444C34.1655 28.7961 34.5877 30.2183 34.9923 31.2574C35.347 32.1625 35.5319 32.7831 35.7117 32.7055C35.7117 32.7055 35.7792 32.6468 35.964 32.0543C36.1514 31.4596 36.1164 30.6815 36.7808 30.7731C37.3603 30.8507 37.5602 32.3529 37.4203 33.4343Z" fill="#C3C3C3"/>
<path d="M35.5718 32.8843C35.5618 32.8867 35.0722 33.0724 34.5501 33.4438H34.168C34.7849 32.9454 35.4394 32.6986 35.4894 32.6821C35.5468 32.6586 35.6142 32.6868 35.6392 32.7433C35.6617 32.7997 35.6317 32.8608 35.5718 32.8843Z" fill="#E8E8E8"/>
<path d="M34.4004 32.2214C34.3929 32.2802 34.3355 32.3225 34.273 32.3178C32.6394 32.1533 31.6802 33.1383 31.4179 33.4533H31.1382C31.1407 33.4462 31.1432 33.4392 31.1482 33.4321C31.1507 33.4274 31.2281 33.3169 31.3755 33.1618C31.4179 33.1171 31.4654 33.0701 31.5204 33.0231C31.6727 32.8797 31.8726 32.7198 32.1174 32.5717C32.1798 32.5341 32.2422 32.4988 32.3097 32.4636C32.6094 32.3084 32.9691 32.1791 33.3863 32.118C33.4662 32.1062 33.5511 32.0968 33.6361 32.0898C33.8434 32.0757 34.0657 32.078 34.298 32.1015C34.3605 32.1062 34.4079 32.1603 34.4004 32.2214Z" fill="#E8E8E8"/>
<path d="M33.5438 32.2632C33.5064 32.2632 33.4664 32.2444 33.4464 32.2114C32.9743 31.4944 32.9293 30.3613 32.9268 30.3143C32.9243 30.2532 32.9743 30.2038 33.0393 30.2015C33.0967 30.1968 33.1567 30.2461 33.1592 30.3073C33.1592 30.319 33.2041 31.4286 33.6437 32.0986C33.6762 32.1503 33.6612 32.2162 33.6063 32.2491C33.5838 32.2585 33.5638 32.2632 33.5438 32.2632Z" fill="#E8E8E8"/>
<path d="M32.1974 32.6015C32.1549 32.6015 32.1149 32.5804 32.0949 32.5404C31.8701 32.1172 31.4455 30.8783 31.428 30.8243C31.408 30.7679 31.443 30.7067 31.5029 30.6879C31.5629 30.6691 31.6278 30.702 31.6478 30.7585C31.6528 30.7702 32.085 32.035 32.3023 32.444C32.3297 32.4981 32.3073 32.5639 32.2498 32.5898C32.2323 32.5992 32.2148 32.6015 32.1974 32.6015Z" fill="#E8E8E8"/>
<path d="M31.4129 33.1686C31.3679 33.1686 31.3255 33.1427 31.3055 33.1027C31.1007 32.642 30.4437 31.5206 30.4387 31.5089C30.4088 31.4571 30.4287 31.3913 30.4837 31.3608C30.5386 31.3325 30.6086 31.3514 30.6411 31.4031C30.6685 31.4501 31.3105 32.5456 31.5203 33.0181C31.5453 33.0745 31.5178 33.138 31.4579 33.1615C31.4429 33.1662 31.4279 33.1686 31.4129 33.1686Z" fill="#E8E8E8"/>
<path d="M27.1218 10.3699C26.7521 10.7061 26.2775 10.3182 26.0951 10.1395C26.0452 10.0902 26.0177 10.0572 26.0177 10.0572C26.0377 10.0902 26.0577 10.1207 26.0752 10.1536C26.4074 10.7343 26.4498 11.4137 26.0627 11.5218C25.7254 11.6158 25.2658 10.9882 25.1135 10.7625C25.081 10.7155 25.0635 10.6849 25.0635 10.6849C25.0685 10.7131 25.076 10.7437 25.0835 10.7766C25.2009 11.3008 25.4832 12.1424 24.8812 12.394C24.4166 12.5891 23.9445 11.6088 23.7221 11.0587C23.6397 10.8495 23.5898 10.7014 23.5898 10.7014C23.5898 10.7014 23.6122 10.9247 23.6122 11.2162C23.6097 11.7992 23.5123 12.662 22.9553 12.5914C22.5082 12.5327 22.131 11.1692 21.7663 10.1724C21.4466 9.30027 21.2817 8.70786 21.1069 8.77603C21.1069 8.77603 21.0419 8.83245 20.8546 9.3943C20.6647 9.95851 20.6822 10.7014 20.0527 10.6026C19.4208 10.5063 19.3009 8.64674 19.5732 7.64058C19.5881 7.58651 19.6031 7.53479 19.6206 7.48542L22.9353 7.47367H23.2326L25.8978 7.46191C25.9328 7.59121 25.9727 7.70875 26.0302 7.81219C26.245 8.20713 27.5889 9.9444 27.1218 10.3699Z" fill="#D3D3D3"/>
<path d="M23.2322 7.47461C22.5578 8.37028 21.3888 8.78638 21.3213 8.80989C21.3089 8.81459 21.2964 8.81694 21.2814 8.81694C21.2339 8.81694 21.1915 8.79108 21.174 8.74641C21.1515 8.68999 21.1815 8.62652 21.2414 8.60536C21.2564 8.60066 22.2805 8.23393 22.935 7.47461H23.2322Z" fill="#E8E8E8"/>
<path d="M22.8776 9.41129C22.7378 9.41129 22.5929 9.40188 22.443 9.38543C22.3806 9.37838 22.3356 9.32431 22.3431 9.26318C22.3506 9.20441 22.4105 9.1621 22.473 9.16915C24.3139 9.38778 25.2781 8.05956 25.2881 8.04545C25.3231 7.99608 25.3955 7.98198 25.448 8.01489C25.5004 8.0478 25.5154 8.11598 25.4804 8.16534C25.4705 8.17945 24.5787 9.41129 22.8776 9.41129Z" fill="#E8E8E8"/>
<path d="M23.6096 11.2168C23.5471 11.2168 23.4947 11.1698 23.4947 11.1086C23.4947 11.0969 23.4747 10.039 23.0676 9.39488C23.0351 9.34316 23.0526 9.27733 23.1075 9.24677C23.1625 9.21621 23.2324 9.23267 23.2649 9.28439C23.702 9.97789 23.7245 11.0593 23.7245 11.1063C23.727 11.1674 23.6745 11.2168 23.6096 11.2168C23.6121 11.2168 23.6096 11.2168 23.6096 11.2168Z" fill="#E8E8E8"/>
<path d="M25.0534 10.7819C25.0034 10.7819 24.9584 10.7513 24.9435 10.7043C24.9385 10.6926 24.5513 9.47953 24.354 9.08694C24.3265 9.03287 24.3515 8.96705 24.4089 8.94119C24.4664 8.91533 24.5363 8.93884 24.5638 8.99291C24.7686 9.40195 25.1508 10.5915 25.1658 10.6408C25.1833 10.6973 25.1483 10.7584 25.0883 10.7772C25.0758 10.7819 25.0634 10.7819 25.0534 10.7819Z" fill="#E8E8E8"/>
<path d="M26.0201 10.1687C25.9776 10.1687 25.9376 10.1475 25.9176 10.1099C25.8927 10.0653 25.3007 9.00737 25.1108 8.55366C25.0883 8.49724 25.1158 8.43377 25.1758 8.41261C25.2332 8.3891 25.3032 8.41731 25.3256 8.47373C25.513 8.91804 26.115 9.99708 26.1225 10.0088C26.1524 10.0629 26.13 10.1287 26.075 10.1569C26.055 10.164 26.0375 10.1687 26.0201 10.1687Z" fill="#E8E8E8"/>
<path d="M39.4161 7.41309C39.3587 7.80333 39.2013 8.18416 38.964 8.62847C38.9415 8.67079 38.919 8.71075 38.8965 8.75071C38.5768 9.31492 38.1772 9.80624 38.0847 10.2647C37.9848 10.756 37.8899 13.1773 37.158 13.2479C36.4286 13.3184 36.4112 12.2488 36.4112 12.2488C36.3087 13.0316 35.8167 13.7415 35.3695 13.5746C34.9199 13.4077 35.1023 12.1782 35.1023 12.1782C34.8125 12.6954 34.4403 13.7557 33.6735 13.5746C32.9391 13.3983 33.7084 11.4095 33.7759 11.2379C33.661 11.3978 32.4545 13.0974 31.8225 12.4862C31.4678 12.143 32.1423 10.6855 32.5569 9.56175C32.9191 8.5791 33.2114 7.94438 33.0065 7.89266C33.0065 7.89266 32.9066 7.89971 32.3221 8.27349C31.7401 8.64963 31.2056 9.31962 30.7185 8.81889C30.4762 8.57205 30.666 8.02195 31.0407 7.44365L36.7309 7.42249H37.0981L39.2862 7.41309H39.4161Z" fill="#FEFEFE"/>
<path d="M37.0981 7.42285C36.4186 8.09284 35.4969 8.26915 34.7176 8.26915C33.8933 8.26915 33.2263 8.07403 33.1739 8.05758C33.1089 8.03642 33.0715 7.9706 33.094 7.90948C33.1139 7.84835 33.1839 7.81309 33.2488 7.83425C33.2713 7.8413 35.4145 8.46898 36.7309 7.42285H37.0981Z" fill="#E8E8E8"/>
<path d="M36.3613 10.3299C35.6394 10.3299 34.6303 10.1442 33.746 9.30255C33.6986 9.25553 33.6986 9.18266 33.746 9.13799C33.7935 9.09333 33.8734 9.09333 33.9209 9.13799C35.3897 10.5391 37.2356 9.9937 37.2531 9.989C37.318 9.97019 37.388 10.0031 37.4104 10.0642C37.4329 10.1253 37.3955 10.1912 37.3305 10.2123C37.3255 10.2147 36.9333 10.3299 36.3613 10.3299Z" fill="#E8E8E8"/>
<path d="M33.6312 11.5084C33.6062 11.5084 33.5812 11.5013 33.5613 11.4849C33.5113 11.4496 33.5013 11.3791 33.5388 11.3321C33.5463 11.3227 34.2582 10.4364 34.3681 9.65828C34.3756 9.59951 34.4355 9.55719 34.498 9.56424C34.5604 9.5713 34.6054 9.62772 34.5979 9.68649C34.4805 10.5234 33.7561 11.4261 33.7236 11.4661C33.6986 11.4943 33.6662 11.5084 33.6312 11.5084Z" fill="#E8E8E8"/>
<path d="M35.1172 12.0275C35.1022 12.0275 35.0897 12.0252 35.0747 12.0205C35.0147 11.9993 34.9873 11.9358 35.0098 11.8794C35.0147 11.8677 35.5293 10.6311 35.6367 10.1868C35.6517 10.128 35.7142 10.0904 35.7741 10.1045C35.8366 10.1186 35.8765 10.1751 35.8615 10.2338C35.7516 10.6946 35.2471 11.9076 35.2246 11.9593C35.2071 12.0017 35.1646 12.0275 35.1172 12.0275Z" fill="#E8E8E8"/>
<path d="M36.3363 12.1102C36.3288 12.1102 36.3213 12.1102 36.3163 12.1079C36.2538 12.0961 36.2114 12.0397 36.2239 11.9809C36.2339 11.9292 36.4737 10.6974 36.6285 10.206C36.646 10.1496 36.7109 10.1167 36.7734 10.1331C36.8333 10.1496 36.8683 10.2107 36.8508 10.2695C36.6985 10.7491 36.4537 12.0068 36.4512 12.0209C36.4412 12.0749 36.3912 12.1102 36.3363 12.1102Z" fill="#E8E8E8"/>
<path d="M39.5259 7.41309C39.416 8.16771 39.1013 8.71545 39.0938 8.72721C39.0713 8.76482 39.0289 8.78598 38.9864 8.78598C38.9664 8.78598 38.9439 8.78127 38.9264 8.77187C38.914 8.76717 38.904 8.75777 38.8965 8.75071C38.859 8.71545 38.849 8.65903 38.8765 8.61436C38.9015 8.57205 39.1812 8.08308 39.2861 7.41309H39.5259Z" fill="#E8E8E8"/>
<path d="M13.6229 16.5436C13.5829 16.5436 13.5454 16.5247 13.523 16.4895C13.4905 16.4378 13.5105 16.3719 13.5654 16.3414C15.6487 15.2012 15.2965 13.5086 15.279 13.4381C15.2665 13.3793 15.3065 13.3205 15.3689 13.3088C15.4313 13.297 15.4938 13.3347 15.5063 13.3911C15.5113 13.4099 15.9159 15.307 13.6828 16.5294C13.6628 16.5388 13.6429 16.5436 13.6229 16.5436Z" fill="#E8E8E8"/>
<path d="M43.4803 23.0152V30.4368C43.4803 31.0574 43.268 31.6334 42.9033 32.1106C42.8758 32.1482 42.8458 32.1835 42.8159 32.2211L42.0065 31.5699C42.0065 31.5699 42.0065 31.5699 42.004 31.5699L41.9041 31.4876H41.8866C40.0307 31.45 39.2464 31.0363 38.2822 29.9855C38.2547 29.9573 38.2297 29.9267 38.2048 29.8961C37.6977 29.3249 37.323 28.7043 36.8359 28.4033C36.3238 28.0836 33.6062 26.8988 33.8734 26.1677C34.0982 25.5588 34.99 25.7845 35.2797 25.8738C35.3272 25.8903 35.3572 25.9021 35.3672 25.9044C35.3397 25.8903 35.3122 25.8738 35.2872 25.8597C34.4904 25.399 33.9683 24.6491 34.358 24.3082C34.6927 24.0167 35.6469 24.4633 35.9716 24.6279C35.9866 24.6373 36.0016 24.6444 36.0141 24.6514C36.0491 24.6679 36.0716 24.682 36.0791 24.6843C36.0641 24.6655 36.0466 24.6467 36.0291 24.6279C36.0166 24.6161 36.0066 24.6044 35.9966 24.5926C35.512 24.0755 34.6303 23.302 35.1723 22.6885C35.6169 22.1854 36.9533 23.1633 37.5303 23.6288C37.6777 23.7463 37.7751 23.8333 37.7951 23.8498C37.7726 23.8169 37.6252 23.6123 37.4579 23.3349C37.0732 22.6908 36.5861 21.6447 37.3005 21.4119C37.8625 21.2286 39.2014 22.5333 40.2855 23.4384C41.2322 24.2283 41.8167 24.7972 41.9766 24.6232C41.9766 24.6232 42.0165 24.5268 41.8667 23.7981C41.7168 23.0693 41.2097 22.2559 42.014 22.0161C42.4262 21.8939 42.9882 22.3593 43.4803 23.0152Z" fill="#FEFEFE"/>
<path d="M40.7053 28.8301C40.6678 28.8301 40.6328 28.8089 40.6153 28.776C39.6711 26.8224 41.7244 24.7537 41.7444 24.7325C41.7818 24.6949 41.8443 24.6926 41.8843 24.7302C41.9242 24.7654 41.9267 24.8242 41.8892 24.8618C41.8693 24.8806 39.9084 26.86 40.7977 28.6984C40.8202 28.7454 40.7977 28.8018 40.7477 28.823C40.7327 28.8277 40.7202 28.8301 40.7053 28.8301Z" fill="#E8E8E8"/>
<path d="M37.4006 27.8153C37.3981 27.8153 37.3931 27.8153 37.3906 27.8153C37.3356 27.8106 37.2957 27.7636 37.3032 27.7119C37.3056 27.6907 37.5779 25.5444 40.0309 24.724C40.0833 24.7075 40.1383 24.731 40.1582 24.7804C40.1757 24.8297 40.1508 24.8815 40.0983 24.9003C37.7678 25.6808 37.5055 27.7119 37.503 27.7307C37.4955 27.7801 37.4505 27.8153 37.4006 27.8153Z" fill="#E8E8E8"/>
<path d="M39.1888 25.2276C39.1713 25.2276 39.1538 25.2229 39.1388 25.2158C38.1821 24.6939 37.4503 23.5161 37.4203 23.4644C37.3928 23.4198 37.4103 23.3633 37.4578 23.3375C37.5052 23.3116 37.5652 23.3281 37.5926 23.3727C37.6001 23.3845 38.327 24.5576 39.2387 25.0559C39.2862 25.0818 39.3012 25.1382 39.2737 25.1829C39.2587 25.2087 39.2238 25.2276 39.1888 25.2276Z" fill="#E8E8E8"/>
<path d="M37.8752 26.2686C37.8552 26.2686 37.8352 26.2639 37.8177 26.2522C37.3107 25.916 36.0842 24.8087 36.0318 24.7617C35.9918 24.7265 35.9918 24.6677 36.0293 24.6301C36.0667 24.5925 36.1292 24.5925 36.1691 24.6277C36.1816 24.6395 37.4356 25.7726 37.9302 26.1017C37.9751 26.1323 37.9851 26.1887 37.9526 26.231C37.9376 26.2545 37.9052 26.2686 37.8752 26.2686Z" fill="#E8E8E8"/>
<path d="M37.3279 27.2729C37.3054 27.2729 37.2829 27.2659 37.2654 27.2518C36.7533 26.8615 35.332 25.9941 35.3171 25.9847C35.2721 25.9565 35.2571 25.8977 35.2871 25.8554C35.3171 25.8131 35.377 25.799 35.4245 25.8272C35.4844 25.8624 36.8682 26.7087 37.3903 27.106C37.4328 27.1389 37.4403 27.1977 37.4053 27.2377C37.3853 27.2612 37.3578 27.2729 37.3279 27.2729Z" fill="#E8E8E8"/>
<path d="M41.4994 31.6033C39.4911 31.6033 38.1622 30.0658 38.1447 30.047C38.1097 30.0071 38.1172 29.9483 38.1597 29.9154C38.2022 29.8825 38.2646 29.8895 38.2996 29.9295C38.3171 29.9506 40.1955 32.1181 42.8283 31.1778C42.8782 31.159 42.9357 31.1825 42.9556 31.2319C42.9756 31.2812 42.9506 31.3329 42.8982 31.3517C42.4061 31.5304 41.9365 31.6033 41.4994 31.6033Z" fill="#E8E8E8"/>
<path d="M42.9034 32.111C42.8759 32.1487 42.8459 32.1839 42.816 32.2215C42.806 32.2356 42.7935 32.2474 42.7835 32.2615L41.9492 31.5774L41.9192 31.5516C41.8992 31.5351 41.8868 31.5116 41.8868 31.4881C41.8818 31.4622 41.8892 31.4387 41.9092 31.4199C41.9442 31.3799 42.0066 31.3776 42.0491 31.4105L42.2065 31.5398L42.9034 32.111Z" fill="#E8E8E8"/>
<path d="M39.9085 24.1654C39.6437 23.9561 39.304 23.8597 38.9493 23.8903C38.6845 23.9138 38.4497 24.0126 38.2549 24.1795C38.155 24.2641 38.07 24.3652 37.9951 24.4804C37.8977 24.3816 37.7878 24.2994 37.6729 24.2335C37.4431 24.1042 37.1908 24.0525 36.926 24.076C36.5713 24.1089 36.2616 24.2664 36.0492 24.5203C35.8419 24.7695 35.7495 25.0939 35.787 25.4325C35.8269 25.7804 36.0093 26.086 36.359 26.394C36.6712 26.669 37.1058 26.937 37.6104 27.2497C37.7828 27.3554 37.9776 27.4753 38.1799 27.6046C38.2324 27.6375 38.2998 27.654 38.3648 27.6493C38.4297 27.6422 38.4897 27.6164 38.5346 27.5741C38.7045 27.4119 38.8669 27.2567 39.0092 27.1227C39.4289 26.7254 39.7936 26.3845 40.0359 26.0578C40.3081 25.6934 40.4155 25.3596 40.3731 25.0117C40.3356 24.6708 40.1707 24.3722 39.9085 24.1654Z" fill="#ADADAD"/>
<path d="M39.1441 26.3562C39.1166 26.3562 39.0891 26.3445 39.0716 26.321C39.0417 26.2834 39.0516 26.2316 39.0916 26.2034C39.9958 25.5828 39.5662 24.7859 39.5462 24.753C39.5237 24.713 39.5412 24.6613 39.5837 24.6401C39.6262 24.619 39.6811 24.6354 39.7036 24.6754C39.7086 24.6848 40.2207 25.6345 39.1965 26.3398C39.1815 26.3515 39.1616 26.3562 39.1441 26.3562Z" fill="#E8E8E8"/>
<path opacity="0.1" d="M20.5446 11.9408L20.5646 5.73926H19.558L9.79624 14.6725L9.78125 15.594L16.6205 15.6128C18.7811 15.6175 20.5371 13.9742 20.5446 11.9408Z" fill="#6A6A6A"/>
<path d="M19.5381 11.28L19.5556 5.73438L9.79639 14.6723L15.9237 14.6629C17.9145 14.6676 19.5331 13.1536 19.5381 11.28Z" fill="#ADADAD"/>
<path d="M27.6613 24.6347C29.9306 24.6347 31.7703 22.9033 31.7703 20.7675C31.7703 18.6318 29.9306 16.9004 27.6613 16.9004C25.3919 16.9004 23.5522 18.6318 23.5522 20.7675C23.5522 22.9033 25.3919 24.6347 27.6613 24.6347Z" fill="#ADADAD"/>
<path d="M29.0054 21.125C28.898 21.125 28.7955 21.1462 28.7031 21.1838C28.6631 21.1932 28.3534 21.2496 28.0886 21.071C27.8039 20.8782 27.8139 20.763 27.8139 20.763C27.8139 20.763 27.9188 20.4903 28.2035 20.3963C28.4883 20.2999 28.6232 20.3281 28.6806 20.3422C28.6831 20.3422 28.6856 20.3422 28.6906 20.3422C28.7905 20.3845 28.9004 20.4104 29.0178 20.4104C29.4475 20.4104 29.7997 20.0789 29.7997 19.6746C29.7997 19.2702 29.4475 18.9388 29.0178 18.9388C28.6257 18.9388 28.301 19.2138 28.246 19.5688C28.221 19.6464 28.1811 19.7474 28.1261 19.7945C28.0312 19.8791 27.7789 20.2176 27.2693 20.0742C27.2693 20.0742 27.1944 19.8062 27.4816 19.5124C27.664 19.3784 27.7839 19.1691 27.7839 18.9341C27.7839 18.5297 27.4317 18.1982 27.0021 18.1982C26.5724 18.1982 26.2202 18.5297 26.2202 18.9341C26.2202 19.1644 26.3351 19.369 26.51 19.5053V19.5077C26.51 19.5077 26.7073 19.6816 26.7273 19.8885C26.7373 19.9802 26.7373 20.0272 26.7398 20.0719C26.435 20.1729 26.2227 20.4668 26.2227 20.7865C26.2227 21.1086 26.445 21.3836 26.7523 21.4824C26.7523 21.4824 26.7473 21.6234 26.7448 21.6281C26.7448 21.6328 26.7398 21.8138 26.485 22.0607C26.3226 22.197 26.2202 22.3921 26.2202 22.6108C26.2202 23.0151 26.5724 23.3466 27.0021 23.3466C27.4317 23.3466 27.7839 23.0151 27.7839 22.6108C27.7839 22.3686 27.659 22.1547 27.4667 22.0207C27.4392 21.9878 27.2568 21.7645 27.2568 21.607C27.2568 21.5341 27.2568 21.4777 27.2568 21.4589C27.2993 21.4448 27.3093 21.4377 27.3892 21.4259C27.4142 21.4259 27.6965 21.4048 27.8813 21.5341C28.0711 21.6634 28.1811 21.7856 28.2385 21.9996C28.3035 22.3428 28.6257 22.6061 29.0079 22.6061C29.4375 22.6061 29.7897 22.2746 29.7897 21.8703C29.7872 21.4565 29.435 21.125 29.0054 21.125ZM29.0428 22.1923C28.8405 22.1923 28.7656 22.0748 28.7506 22.0536C28.7381 22.0372 28.5607 21.7128 28.4733 21.527L27.4267 20.9887C27.3468 21.1062 27.2119 21.1885 27.057 21.1979C27.057 21.1979 27.057 21.9525 27.057 21.9596C27.057 21.9666 27.3867 22.4109 27.3867 22.5873C27.3867 22.7777 27.2244 22.9305 27.022 22.9305C26.8197 22.9305 26.6573 22.7777 26.6573 22.5873C26.6598 22.4086 26.9321 22.0466 26.9921 21.9619V21.1979C26.7423 21.1838 26.5424 20.9887 26.5424 20.7489C26.5424 20.5091 26.7398 20.314 26.9921 20.2999V19.5312C26.9921 19.5312 26.6548 19.0916 26.6548 18.9129C26.6548 18.7225 26.8172 18.5697 27.0195 18.5697C27.2219 18.5697 27.3842 18.7225 27.3842 18.9129C27.3842 19.0916 27.0545 19.5312 27.0545 19.5312V20.2999C27.2094 20.3116 27.3418 20.3892 27.4217 20.5044L28.4758 19.9567C28.4758 19.9567 28.7231 19.503 28.7331 19.4795C28.7456 19.4559 28.848 19.3008 29.0503 19.3008C29.2527 19.3008 29.415 19.4536 29.415 19.644C29.415 19.8344 29.2527 19.9872 29.0503 19.9872C28.9454 19.9872 28.7081 20.0037 28.6831 20.0037C28.6582 20.0037 28.5133 20.0037 28.5133 20.0037L27.4567 20.5561C27.4841 20.6149 27.5016 20.6784 27.5016 20.7466C27.5016 20.8124 27.4866 20.8759 27.4592 20.9323C27.4592 20.9323 28.5133 21.4847 28.5108 21.4847C28.5008 21.4847 28.793 21.4941 29.0453 21.5012C29.2477 21.5059 29.41 21.654 29.41 21.8444C29.4075 22.0372 29.2452 22.1923 29.0428 22.1923Z" fill="#E8E8E8"/>
<path d="M28.3458 15.1457C28.3458 15.5007 28.041 15.7875 27.6639 15.7875C27.2867 15.7875 26.9819 15.5007 26.9819 15.1457C26.9819 14.7907 27.2867 14.5039 27.6639 14.5039C28.0385 14.5039 28.3458 14.7907 28.3458 15.1457Z" fill="#989898"/>
<path d="M28.3458 26.3615C28.3458 26.7165 28.041 27.0033 27.6639 27.0033C27.2867 27.0033 26.9819 26.7165 26.9819 26.3615C26.9819 26.0065 27.2867 25.7197 27.6639 25.7197C28.0385 25.7174 28.3458 26.0065 28.3458 26.3615Z" fill="#C3C3C3"/>
<path d="M33.6214 21.3968C33.2442 21.3968 32.9395 21.11 32.9395 20.7551C32.9395 20.4001 33.2442 20.1133 33.6214 20.1133C33.9986 20.1133 34.3033 20.4001 34.3033 20.7551C34.3033 21.1077 33.9986 21.3968 33.6214 21.3968Z" fill="#D3D3D3"/>
<path d="M21.7039 21.3968C21.3267 21.3968 21.022 21.11 21.022 20.7551C21.022 20.4001 21.3267 20.1133 21.7039 20.1133C22.0811 20.1133 22.3858 20.4001 22.3858 20.7551C22.3858 21.1077 22.0811 21.3968 21.7039 21.3968Z" fill="#A8A8A8"/>
<path d="M32.3575 17.2426C32.0902 17.4941 31.6581 17.4941 31.3933 17.2426C31.1261 16.991 31.1261 16.5843 31.3933 16.3351C31.6606 16.0836 32.0927 16.0836 32.3575 16.3351C32.6248 16.5843 32.6248 16.991 32.3575 17.2426Z" fill="#DDDDDD"/>
<path d="M23.9322 25.1713C23.6649 25.4228 23.2328 25.4228 22.968 25.1713C22.7008 24.9197 22.7008 24.513 22.968 24.2639C23.2353 24.0123 23.6674 24.0123 23.9322 24.2639C24.1995 24.513 24.1995 24.9197 23.9322 25.1713Z" fill="#B8B8B8"/>
<path d="M31.3933 25.1713C31.1261 24.9197 31.1261 24.513 31.3933 24.2639C31.6606 24.0123 32.0927 24.0123 32.3575 24.2639C32.6248 24.5154 32.6248 24.9221 32.3575 25.1713C32.0927 25.4228 31.6606 25.4228 31.3933 25.1713Z" fill="#CDCDCD"/>
<path d="M23.45 17.43C23.8266 17.43 24.1319 17.1427 24.1319 16.7883C24.1319 16.4338 23.8266 16.1465 23.45 16.1465C23.0734 16.1465 22.7681 16.4338 22.7681 16.7883C22.7681 17.1427 23.0734 17.43 23.45 17.43Z" fill="#A3A3A3"/>
<path d="M30.5587 15.8112C30.4163 16.1403 30.0167 16.2955 29.667 16.1615C29.3173 16.0275 29.1524 15.6513 29.2948 15.3222C29.4372 14.9931 29.8368 14.8379 30.1865 14.9719C30.5362 15.1083 30.7011 15.4821 30.5587 15.8112Z" fill="#E3E3E3"/>
<path d="M26.0279 26.1833C25.8856 26.5124 25.4859 26.6675 25.1362 26.5335C24.7865 26.3995 24.6216 26.0234 24.764 25.6943C24.9064 25.3652 25.3061 25.21 25.6558 25.344C26.0055 25.4804 26.1728 25.8565 26.0279 26.1833Z" fill="#BDBDBD"/>
<path d="M32.9145 23.4789C32.5648 23.3449 32.4 22.9687 32.5423 22.6396C32.6847 22.3105 33.0844 22.1553 33.4341 22.2893C33.7838 22.4233 33.9486 22.7995 33.8063 23.1286C33.6614 23.4553 33.2617 23.6129 32.9145 23.4789Z" fill="#D3D3D3"/>
<path d="M21.8911 19.2152C21.5414 19.0812 21.3765 18.705 21.5189 18.3759C21.6613 18.0468 22.0609 17.8917 22.4106 18.0257C22.7603 18.1597 22.9252 18.5358 22.7828 18.8649C22.6379 19.194 22.2408 19.3515 21.8911 19.2152Z" fill="#A8A8A8"/>
<path d="M33.4238 19.1865C33.0766 19.3228 32.677 19.1677 32.5321 18.8409C32.3872 18.5141 32.5521 18.138 32.8993 18.0016C33.2465 17.8653 33.6461 18.0204 33.791 18.3472C33.9359 18.6716 33.771 19.0478 33.4238 19.1865Z" fill="#D8D8D8"/>
<path d="M22.4258 23.5058C22.0786 23.6421 21.6789 23.487 21.534 23.1602C21.3892 22.8335 21.554 22.4573 21.9012 22.321C22.2484 22.1846 22.6481 22.3398 22.793 22.6665C22.9378 22.9933 22.7755 23.3694 22.4258 23.5058Z" fill="#ADADAD"/>
<path d="M29.3275 26.1758C29.1826 25.8491 29.3475 25.4729 29.6947 25.3366C30.0419 25.2002 30.4415 25.3554 30.5864 25.6822C30.7313 26.0089 30.5664 26.3851 30.2192 26.5214C29.872 26.6578 29.4724 26.5026 29.3275 26.1758Z" fill="#C8C8C8"/>
<path d="M24.7362 15.8253C24.5913 15.4985 24.7562 15.1224 25.1034 14.986C25.4506 14.8497 25.8502 15.0048 25.9951 15.3316C26.14 15.6584 25.9751 16.0345 25.6279 16.1708C25.2807 16.3072 24.8811 16.1544 24.7362 15.8253Z" fill="#9D9D9D"/>
</g>
<defs>
<filter id="filter0_d_1034_1995" x="0.921875" y="0.8125" width="53.1562" height="47.25" filterUnits="userSpaceOnUse" color-interpolation-filters="sRGB">
<feFlood flood-opacity="0" result="BackgroundImageFix"/>
<feColorMatrix in="SourceAlpha" type="matrix" values="0 0 0 0 0 0 0 0 0 0 0 0 0 0 0 0 0 0 127 0" result="hardAlpha"/>
<feOffset dy="3.9375"/>
<feGaussianBlur stdDeviation="4.42969"/>
<feColorMatrix type="matrix" values="0 0 0 0 0 0 0 0 0 0 0 0 0 0 0 0 0 0 0.06 0"/>
<feBlend mode="normal" in2="BackgroundImageFix" result="effect1_dropShadow_1034_1995"/>
<feBlend mode="normal" in="SourceGraphic" in2="effect1_dropShadow_1034_1995" result="shape"/>
</filter>
</defs>
</svg>
