<?xml version="1.0" encoding="UTF-8"?>
<svg version="1.1" xmlns="http://www.w3.org/2000/svg" width="512" height="512">
<path d="M0 0 C1.01790619 0.00215515 2.03581238 0.0043103 3.08456421 0.00653076 C17.69363523 0.05620146 32.02575853 0.30709809 46.375 3.3125 C47.34985352 3.51117676 48.32470703 3.70985352 49.32910156 3.91455078 C97.7109774 14.03517194 141.69928269 35.9516877 177.375 70.3125 C178.3640332 71.26068604 178.3640332 71.26068604 179.37304688 72.22802734 C188.86130305 81.37247479 197.6012044 90.66984009 205.375 101.3125 C206.23306152 102.46355017 207.09113451 103.61459177 207.94921875 104.765625 C213.98736829 112.95680614 219.34595521 121.47054105 224.375 130.3125 C224.73948242 130.94430176 225.10396484 131.57610352 225.47949219 132.22705078 C247.00981855 169.84336237 256.83759735 212.56515288 256.75 255.625 C256.74918427 257.13927582 256.74918427 257.13927582 256.74835205 258.68414307 C256.70758601 275.19373539 255.80029309 291.11032001 252.375 307.3125 C252.15537598 308.35438477 251.93575195 309.39626953 251.70947266 310.46972656 C242.71140931 351.72199434 223.99081216 390.29861405 196.375 422.3125 C195.74078125 423.05757813 195.1065625 423.80265625 194.453125 424.5703125 C182.64198485 438.07529833 169.89139772 450.74668743 155.375 461.3125 C154.22505169 462.16899066 153.07531411 463.02576433 151.92578125 463.8828125 C143.73410474 469.9234414 135.21854922 475.28255071 126.375 480.3125 C125.74319824 480.67698242 125.11139648 481.04146484 124.46044922 481.41699219 C98.37322731 496.34845085 69.04007053 505.82130201 39.375 510.3125 C38.25689941 510.48982666 37.13879883 510.66715332 35.98681641 510.84985352 C25.22545702 512.39416151 14.5855899 512.65229671 3.72314453 512.62817383 C0.77468385 512.62502635 -2.17275697 512.64852578 -5.12109375 512.67382812 C-18.51105903 512.71844438 -31.42266733 511.51675057 -44.625 509.3125 C-45.76195312 509.12437744 -46.89890625 508.93625488 -48.0703125 508.74243164 C-91.33774735 500.97113308 -132.38813234 480.98328041 -165.625 452.3125 C-166.37007813 451.67828125 -167.11515625 451.0440625 -167.8828125 450.390625 C-181.38779833 438.57948485 -194.05918743 425.82889772 -204.625 411.3125 C-205.48149066 410.16255169 -206.33826433 409.01281411 -207.1953125 407.86328125 C-213.23534209 399.67315742 -218.61867614 391.16870382 -223.625 382.3125 C-224.0271875 381.60528809 -224.429375 380.89807617 -224.84375 380.16943359 C-237.8691741 357.03404164 -246.61801461 331.86287591 -251.9375 305.875 C-252.08485596 305.15610596 -252.23221191 304.43721191 -252.3840332 303.6965332 C-255.35789088 288.05024391 -255.99800362 272.57681954 -255.9375 256.6875 C-255.93534485 255.66959381 -255.9331897 254.65168762 -255.93096924 253.60293579 C-255.88129854 238.99386477 -255.63040191 224.66174147 -252.625 210.3125 C-252.42632324 209.33764648 -252.22764648 208.36279297 -252.02294922 207.35839844 C-241.90232806 158.9765226 -219.9858123 114.98821731 -185.625 79.3125 C-184.99287598 78.65314453 -184.36075195 77.99378906 -183.70947266 77.31445312 C-174.56502521 67.82619695 -165.26765991 59.0862956 -154.625 51.3125 C-153.47394983 50.45443848 -152.32290823 49.59636549 -151.171875 48.73828125 C-142.98224019 42.70072604 -134.47961724 37.31792698 -125.625 32.3125 C-124.91778809 31.9103125 -124.21057617 31.508125 -123.48193359 31.09375 C-100.34654164 18.0683259 -75.17537591 9.31948539 -49.1875 4 C-48.46860596 3.85264404 -47.74971191 3.70528809 -47.0090332 3.5534668 C-31.36274391 0.57960912 -15.88931954 -0.06050362 0 0 Z " fill="#1BB1F3" transform="translate(255.625,-0.3125)"/>
<path d="M0 0 C0.50789062 0.61101562 1.01578125 1.22203125 1.5390625 1.8515625 C3.01508252 3.27064884 3.01508252 3.27064884 5.47265625 2.875 C8.19174913 1.9336139 9.41803073 1.01480537 11.4375 -1 C37.66928154 -24.93160666 72.18931134 -30.21063572 106.3828125 -29.18652344 C129.09294546 -28.01545557 151.86831202 -17.6524681 169 -3 C170.14275391 -2.07574219 170.14275391 -2.07574219 171.30859375 -1.1328125 C185.95294097 11.10042036 194.61360787 28.02834096 200 46 C200.34289062 47.134375 200.68578125 48.26875 201.0390625 49.4375 C207.15742192 74.13966138 203.15102888 102.25542646 194.71826172 125.97070312 C193.93417715 128.18596857 193.18877056 130.41271965 192.44140625 132.640625 C187.35522333 147.45650685 180.53537432 161.16741497 170.38256836 173.2277832 C168.86322796 175.11516652 168.86322796 175.11516652 167.24438477 177.77807617 C161.93961657 185.50127681 161.93961657 185.50127681 156.55615234 186.88549805 C152.62934566 187.08161005 148.8588934 186.96387223 144.9375 186.6875 C143.58158067 186.6322126 142.22544259 186.58204168 140.86914062 186.53710938 C137.57376697 186.40810898 134.28976162 186.22794646 131 186 C130.99857498 185.4097554 130.99714996 184.8195108 130.99568176 184.21138 C130.97598083 178.06273041 130.92169898 171.91507305 130.84741211 165.7668457 C130.82422858 163.47297283 130.80983559 161.17899345 130.80444336 158.88500977 C130.7951568 155.58542484 130.75417012 152.28751586 130.70703125 148.98828125 C130.71293022 147.45207878 130.71293022 147.45207878 130.71894836 145.88484192 C130.62868768 141.47076817 130.41599849 138.71068937 128.15893555 134.85473633 C123.42447255 132.07494536 119.15049273 132.2839898 113.75 132.3359375 C112.65913086 132.33115387 111.56826172 132.32637024 110.44433594 132.32144165 C108.14126135 132.31804387 105.83813845 132.32723757 103.53515625 132.34814453 C100.01192583 132.3749094 96.49188144 132.34838999 92.96875 132.31640625 C90.72915964 132.31971037 88.48957126 132.32611663 86.25 132.3359375 C85.19780273 132.32581635 84.14560547 132.31569519 83.06152344 132.30526733 C78.57600928 132.3770741 75.75568024 132.55631016 71.84106445 134.85473633 C69.11349679 139.51449686 69.27256561 143.67492123 69.29296875 148.98828125 C69.27784744 150.04661667 69.26272614 151.10495209 69.24714661 152.19535828 C69.20423841 155.56795506 69.19542819 158.93965734 69.1875 162.3125 C69.16435826 164.60223738 69.13899361 166.89195344 69.11132812 169.18164062 C69.04844505 174.78776887 69.01353557 180.39354712 69 186 C68.1146331 186.00213753 68.1146331 186.00213753 67.21138 186.00431824 C61.06273041 186.02401917 54.91507305 186.07830102 48.7668457 186.15258789 C46.47297283 186.17577142 44.17899345 186.19016441 41.88500977 186.19555664 C38.58542484 186.2048432 35.28751586 186.24582988 31.98828125 186.29296875 C30.96414627 186.2890361 29.94001129 186.28510345 28.88484192 186.28105164 C22.92435354 186.39348901 22.92435354 186.39348901 17.87573242 189.41918945 C15.43056403 192.78348401 14.87382541 194.37858327 14.85473633 198.4621582 C14.84835648 199.38684402 14.84197662 200.31152985 14.83540344 201.26423645 C14.83429062 202.26629623 14.8331778 203.26835602 14.83203125 204.30078125 C14.82870285 205.3293071 14.82537445 206.35783295 14.82194519 207.41752625 C14.81687531 209.59727531 14.81453688 211.77703215 14.81469727 213.95678711 C14.81251579 217.28837955 14.79437442 220.61963828 14.77539062 223.95117188 C14.77245571 226.0677072 14.77047157 228.1842441 14.76953125 230.30078125 C14.75875298 231.79476189 14.75875298 231.79476189 14.74775696 233.31892395 C14.65106799 239.93570218 14.65106799 239.93570218 17 246 C19.8914023 246.96380077 21.82653923 247.15112024 24.83862305 247.20532227 C25.8194133 247.22526749 26.80020355 247.24521271 27.81071472 247.26576233 C28.86704605 247.28247482 29.92337738 247.29918732 31.01171875 247.31640625 C32.63676079 247.3475779 32.63676079 247.3475779 34.29463196 247.37937927 C37.75885616 247.44481797 41.2231568 247.50373353 44.6875 247.5625 C47.03451315 247.60569061 49.38151853 247.64930507 51.72851562 247.69335938 C57.48559604 247.80049357 63.24275267 247.90227064 69 248 C70.28317066 266.49615507 70.28317066 266.49615507 67.58642578 271.75830078 C65.50975229 273.60651387 63.54606409 274.81730959 61.0625 276.0625 C59.40034916 277.0678664 57.73890711 278.07440544 56.078125 279.08203125 C55.22927734 279.5610791 54.38042969 280.04012695 53.50585938 280.53369141 C49.57518727 282.833732 45.97762494 285.55514288 42.3125 288.25 C36.94533683 292.05804994 31.49158391 295.69487449 25.875 299.125 C25.28372314 299.49141602 24.69244629 299.85783203 24.08325195 300.23535156 C17.80248093 303.97754378 11.95077312 305.29830229 4.6875 305.375 C3.47449219 305.40335937 2.26148438 305.43171875 1.01171875 305.4609375 C-7.4492127 304.93340255 -14.7828951 300.21021965 -21.5625 295.5 C-22.33424561 294.97374023 -23.10599121 294.44748047 -23.90112305 293.90527344 C-26.27485793 292.28069345 -28.63803729 290.64163373 -31 289 C-31.70576172 288.51466797 -32.41152344 288.02933594 -33.13867188 287.52929688 C-55.15274682 272.38811193 -76.06311853 255.74959631 -96.36279297 238.39453125 C-98.091211 236.92230879 -99.82826861 235.46073031 -101.56640625 234 C-107.82377341 228.71981996 -113.84600256 223.3640737 -119.5234375 217.44921875 C-121.56207901 215.4330859 -123.63093753 213.57494394 -125.8046875 211.7109375 C-130.05590126 208.02321523 -133.91909978 204.05548008 -137.75 199.9375 C-138.44319336 199.19435547 -139.13638672 198.45121094 -139.85058594 197.68554688 C-163.04405542 172.68493293 -190 139.09559888 -190 103 C-179.11 103 -168.22 103 -157 103 C-155.35 106.155625 -153.7 109.31125 -152 112.5625 C-151.43144287 113.64708496 -150.86288574 114.73166992 -150.27709961 115.84912109 C-147.44140749 121.27057091 -144.63503192 126.70375062 -141.88418579 132.1686554 C-140.46647285 134.98396369 -139.04030598 137.79495709 -137.61401367 140.60592651 C-136.91576695 141.98817374 -136.22171634 143.37254903 -135.53198242 144.75906372 C-134.5540687 146.72383982 -133.56175353 148.68072994 -132.56640625 150.63671875 C-131.99865479 151.76811279 -131.43090332 152.89950684 -130.84594727 154.06518555 C-128.87982239 157.19106666 -127.06652121 158.96749942 -124 161 C-120.32947402 161.61175433 -118.68157677 161.43004654 -115.52583313 159.43890381 C-112.45105469 156.46994725 -111.09306577 153.38693717 -109.58666992 149.47753906 C-109.2835791 148.72593002 -108.98048828 147.97432098 -108.66821289 147.19993591 C-107.67502663 144.72714826 -106.70273207 142.24670518 -105.73046875 139.765625 C-105.04386296 138.04447346 -104.3559629 136.32383773 -103.66682434 134.60369873 C-101.86034397 130.08455585 -100.07149618 125.55863441 -98.28625488 121.03106689 C-96.45991666 116.40840823 -94.61695574 111.79238984 -92.77539062 107.17578125 C-89.16731199 98.12360211 -85.57782994 89.06417329 -82 80 C-81.34 80 -80.68 80 -80 80 C-79.69296143 80.79696289 -79.38592285 81.59392578 -79.06958008 82.41503906 C-77.91652284 85.38678694 -76.75025221 88.35290429 -75.57495117 91.31591797 C-75.07029357 92.59606446 -74.57085874 93.87828331 -74.0769043 95.16259766 C-73.3634345 97.01488882 -72.62917177 98.85912798 -71.89453125 100.703125 C-71.45987549 101.81333008 -71.02521973 102.92353516 -70.57739258 104.06738281 C-68.80466122 107.36316505 -67.11669005 108.96369369 -64 111 C-60.03821982 111.6602967 -58.54825861 111.36550574 -55.1875 109.125 C-52.56834254 106.58067561 -52.08053836 105.7109943 -51.6706543 102.0925293 C-51.76540825 96.53533102 -54.19323849 91.58827841 -56.26953125 86.51953125 C-56.92474007 84.88391487 -56.92474007 84.88391487 -57.59318542 83.21525574 C-58.51644816 80.91764651 -59.44555833 78.62237944 -60.38012695 76.3293457 C-61.80968194 72.81941907 -63.21972536 69.30213255 -64.62695312 65.78320312 C-65.52750745 63.54901997 -66.42916289 61.31528027 -67.33203125 59.08203125 C-67.75402298 58.03094681 -68.17601471 56.97986237 -68.61079407 55.89692688 C-69.21107674 54.42971443 -69.21107674 54.42971443 -69.82348633 52.93286133 C-70.17212234 52.07461258 -70.52075836 51.21636383 -70.87995911 50.33210754 C-72.03718672 47.92257119 -73.22903932 46.00236979 -75 44 C-78.63782632 42.78739123 -81.17735999 42.60455448 -85 43 C-89.40049986 46.57161363 -91.41712531 50.52354066 -93.3815918 55.71191406 C-93.68147003 56.47181641 -93.98134827 57.23171875 -94.29031372 58.01464844 C-95.27201578 60.5104344 -96.23537053 63.01289659 -97.19921875 65.515625 C-97.88096771 67.25538865 -98.56407834 68.99461927 -99.24848938 70.7333374 C-101.04247573 75.2989061 -102.82192954 79.8699847 -104.59716797 84.44287109 C-107.44603945 91.77747124 -110.31182506 99.10541081 -113.18729591 106.42961884 C-114.18976872 108.99147511 -115.1828906 111.55681894 -116.17521667 114.12261963 C-116.78534854 115.68376209 -117.39578982 117.24478367 -118.0065918 118.80566406 C-118.28141891 119.52357117 -118.55624603 120.24147827 -118.83940125 120.98114014 C-120.77268308 125.88634154 -120.77268308 125.88634154 -123 127 C-123.24532471 126.49887695 -123.49064941 125.99775391 -123.7434082 125.48144531 C-128.6168986 115.55667383 -133.59141777 105.68447822 -138.8125 95.9375 C-139.2556958 95.08768555 -139.6988916 94.23787109 -140.15551758 93.36230469 C-140.58501709 92.57114258 -141.0145166 91.77998047 -141.45703125 90.96484375 C-142.0135437 89.92251587 -142.0135437 89.92251587 -142.58129883 88.85913086 C-144.934207 85.77577245 -147.24207225 84.23888809 -151.14500427 83.70851135 C-153.80457771 83.55630163 -156.44942136 83.50645457 -159.11328125 83.48828125 C-160.08283249 83.47033005 -161.05238373 83.45237885 -162.05131531 83.43388367 C-165.13833306 83.37983951 -168.2251967 83.34590353 -171.3125 83.3125 C-173.40952662 83.27932176 -175.50653293 83.24483163 -177.60351562 83.20898438 C-182.7355658 83.12411622 -187.86757072 83.05727663 -193 83 C-193.80055919 53.20328465 -187.81057425 25.85598518 -166.72412109 3.57519531 C-122.72328369 -40.96544476 -46.60543457 -39.72217039 0 0 Z " fill="#F34545" transform="translate(221,155)"/>
<path d="M0 0 C1.01790619 0.00215515 2.03581238 0.0043103 3.08456421 0.00653076 C17.69363523 0.05620146 32.02575853 0.30709809 46.375 3.3125 C47.34985352 3.51117676 48.32470703 3.70985352 49.32910156 3.91455078 C97.7109774 14.03517194 141.69928269 35.9516877 177.375 70.3125 C178.3640332 71.26068604 178.3640332 71.26068604 179.37304688 72.22802734 C188.86130305 81.37247479 197.6012044 90.66984009 205.375 101.3125 C206.23306152 102.46355017 207.09113451 103.61459177 207.94921875 104.765625 C213.98736829 112.95680614 219.34595521 121.47054105 224.375 130.3125 C224.73948242 130.94430176 225.10396484 131.57610352 225.47949219 132.22705078 C240.27532399 158.07731473 249.48724183 187.01144122 254.375 216.3125 C254.60058594 217.60929688 254.82617188 218.90609375 255.05859375 220.2421875 C257.18198602 234.79840764 256.555779 249.64019845 256.375 264.3125 C254.08990268 261.42310368 252.33405979 258.50523203 250.66015625 255.2265625 C250.14469238 254.22399414 249.62922852 253.22142578 249.09814453 252.18847656 C248.55013184 251.1156543 248.00211914 250.04283203 247.4375 248.9375 C242.11518701 238.60515643 236.64705329 228.36723265 231.0390625 218.1875 C229.3880006 215.18641787 227.77228533 212.17369814 226.2109375 209.125 C225.89431152 208.51237305 225.57768555 207.89974609 225.25146484 207.26855469 C224.45054509 205.70954989 223.6621106 204.14414713 222.875 202.578125 C221.21389825 200.06916923 220.18979204 199.28330496 217.375 198.3125 C213.05674724 197.76290419 211.1511941 197.73035443 207.625 200.375 C205.12013562 203.6452396 203.80647697 206.47011444 202.375 210.3125 C202.045 210.3125 201.715 210.3125 201.375 210.3125 C201.23964844 209.08660156 201.10429687 207.86070312 200.96484375 206.59765625 C198.42029851 185.52168781 193.03150322 165.26753871 183.375 146.3125 C183.00004395 145.5695166 182.62508789 144.8265332 182.23876953 144.06103516 C174.3336071 128.60958689 164.395791 114.84006971 152.375 102.3125 C151.49714844 101.37148437 150.61929687 100.43046875 149.71484375 99.4609375 C120.26556999 68.45665322 76.81832145 50.69171924 34.4375 48.8125 C33.19097656 48.7815625 31.94445312 48.750625 30.66015625 48.71875 C26.98441965 48.26419993 25.2353009 47.65230397 22.375 45.3125 C20.35546875 42.24609375 20.35546875 42.24609375 18.5625 38.75 C17.95792969 37.59371094 17.35335938 36.43742187 16.73046875 35.24609375 C15.375 32.3125 15.375 32.3125 15.375 30.3125 C14.385 30.3125 13.395 30.3125 12.375 30.3125 C12.09785156 31.0240625 11.82070313 31.735625 11.53515625 32.46875 C5.65229397 46.88869526 5.65229397 46.88869526 -1.6953125 50.33984375 C-6.25915494 51.85503944 -10.91566429 52.83140672 -15.62158203 53.80126953 C-33.16613166 57.42831972 -49.49910482 64.57117238 -64.83203125 73.7109375 C-67.625 75.3125 -67.625 75.3125 -70.625 76.3125 C-67.27069921 80.17111875 -62.68457314 82.11510288 -58.2421875 84.49609375 C-55.625 86.3125 -55.625 86.3125 -54.7578125 88.53515625 C-54.69207031 89.41494141 -54.69207031 89.41494141 -54.625 90.3125 C-55.615 90.71597656 -56.605 91.11945313 -57.625 91.53515625 C-68.66933457 96.46548807 -73.1062944 102.22506902 -77.625 113.3125 C-78.615 113.3125 -79.605 113.3125 -80.625 113.3125 C-81.96358524 111.02375827 -83.29601014 108.73180344 -84.625 106.4375 C-85.0065625 105.78652344 -85.388125 105.13554688 -85.78125 104.46484375 C-88.625 99.5390625 -88.625 99.5390625 -88.625 97.3125 C-91.36971401 96.40099927 -91.36971401 96.40099927 -94.625 96.3125 C-97.38320503 98.10252931 -97.38320503 98.10252931 -99.8125 100.875 C-100.27591797 101.36299072 -100.73933594 101.85098145 -101.21679688 102.35375977 C-107.22692309 108.8158588 -113.30432371 115.91275381 -117.9309082 123.43603516 C-120.19757838 125.94671781 -121.71563903 126.00922172 -125.04296875 126.40234375 C-126.12505615 126.54406006 -127.20714355 126.68577637 -128.32202148 126.83178711 C-129.47387939 126.96979736 -130.6257373 127.10780762 -131.8125 127.25 C-161.18766598 131.26623831 -188.92738039 143.53203235 -207.625 167.3125 C-222.95374879 188.96543846 -227.22055973 212.24004893 -227.625 238.3125 C-228.23496826 238.3218457 -228.84493652 238.33119141 -229.47338867 238.34082031 C-232.25389487 238.39471326 -235.03275262 238.47832069 -237.8125 238.5625 C-238.77220703 238.57667969 -239.73191406 238.59085938 -240.72070312 238.60546875 C-246.26854234 238.79743551 -249.63651693 239.06024951 -253.625 243.3125 C-254.615 244.3025 -254.615 244.3025 -255.625 245.3125 C-258.86906911 189.44242093 -229.774109 129.71446782 -194.0859375 88.37109375 C-191.31763284 85.29752287 -188.49422443 82.29152269 -185.625 79.3125 C-184.99287598 78.65314453 -184.36075195 77.99378906 -183.70947266 77.31445312 C-174.56502521 67.82619695 -165.26765991 59.0862956 -154.625 51.3125 C-153.47394983 50.45443848 -152.32290823 49.59636549 -151.171875 48.73828125 C-142.98224019 42.70072604 -134.47961724 37.31792698 -125.625 32.3125 C-124.91778809 31.9103125 -124.21057617 31.508125 -123.48193359 31.09375 C-100.34654164 18.0683259 -75.17537591 9.31948539 -49.1875 4 C-48.46860596 3.85264404 -47.74971191 3.70528809 -47.0090332 3.5534668 C-31.36274391 0.57960912 -15.88931954 -0.06050362 0 0 Z " fill="#07A9EF" transform="translate(255.625,-0.3125)"/>
<path d="M0 0 C0.98474808 -0.01283524 1.96949615 -0.02567047 2.98408508 -0.03889465 C4.0517662 -0.04628159 5.11944733 -0.05366852 6.21948242 -0.0612793 C7.31459641 -0.06935104 8.40971039 -0.07742279 9.53800964 -0.08573914 C11.85898247 -0.09958709 14.17997573 -0.11030605 16.50097656 -0.11816406 C20.050116 -0.13537759 23.59832433 -0.17925864 27.1472168 -0.22338867 C29.40046514 -0.23351529 31.65372142 -0.24203149 33.90698242 -0.2487793 C34.96859085 -0.26628738 36.03019928 -0.28379547 37.12397766 -0.30183411 C44.50591578 -0.28011186 44.50591578 -0.28011186 48.40966797 2.07861328 C51.12617204 5.1552179 51.38648042 6.79782932 51.37597656 10.81030273 C51.37586327 12.25157028 51.37586327 12.25157028 51.37574768 13.72195435 C51.3705864 14.76157318 51.36542511 15.80119202 51.36010742 16.87231445 C51.35869247 17.93489471 51.35727753 18.99747498 51.3558197 20.09225464 C51.35020951 23.49553204 51.33765526 26.89874434 51.32495117 30.30200195 C51.31993749 32.60538642 51.31537435 34.90877192 51.3112793 37.2121582 C51.30023677 42.86712844 51.28348869 48.52206055 51.26245117 54.17700195 C52.12569504 54.16367828 52.12569504 54.16367828 53.00637817 54.15008545 C59.00862676 54.06143294 65.01068865 54.00119359 71.01342773 53.95727539 C73.25211138 53.93718879 75.49074275 53.90991415 77.72924805 53.87524414 C80.95138466 53.82659732 84.17282619 53.80400321 87.39526367 53.78637695 C88.39236359 53.76573181 89.3894635 53.74508667 90.41677856 53.72381592 C96.34818176 53.72191057 99.75393557 54.20330105 104.26245117 58.17700195 C105.47687324 60.60584609 105.40869098 62.19988157 105.43945312 64.91455078 C105.45870598 66.3916729 105.45870598 66.3916729 105.47834778 67.89863586 C105.48573471 68.96631699 105.49312164 70.03399811 105.50073242 71.1340332 C105.50880417 72.22914719 105.51687592 73.32426117 105.52519226 74.45256042 C105.53904021 76.77353325 105.54975917 79.09452651 105.55761719 81.41552734 C105.57483072 84.96466678 105.61871177 88.51287511 105.6628418 92.06176758 C105.67296842 94.31501593 105.68148462 96.5682722 105.68823242 98.8215332 C105.70574051 99.88314163 105.7232486 100.94475006 105.74128723 102.03852844 C105.71956498 109.42046657 105.71956498 109.42046657 103.36083984 113.32421875 C100.28423522 116.04072282 98.64162381 116.3010312 94.62915039 116.29052734 C93.66830536 116.29045181 92.70746033 116.29037628 91.71749878 116.29029846 C90.67787994 116.28513718 89.63826111 116.27997589 88.56713867 116.2746582 C87.50455841 116.27324326 86.44197815 116.27182831 85.34719849 116.27037048 C81.94392108 116.26476029 78.54070879 116.25220604 75.13745117 116.23950195 C72.8340667 116.23448827 70.53068121 116.22992513 68.22729492 116.22583008 C62.57232468 116.21478755 56.91739258 116.19803947 51.26245117 116.17700195 C51.27244392 117.04357674 51.27244392 117.04357674 51.28263855 117.92765808 C51.34906115 123.94601877 51.39428052 129.96427515 51.42724609 135.98291016 C51.442323 138.2283959 51.4627877 140.47385224 51.48876953 142.71923828 C51.52520035 145.94872294 51.54218872 149.17781789 51.55541992 152.4074707 C51.57090378 153.4097319 51.58638763 154.4119931 51.6023407 155.44462585 C51.60450404 164.42475291 51.60450404 164.42475291 48.26245117 168.17700195 C43.70068066 172.20319334 38.42894682 171.61089562 32.66870117 171.57543945 C31.13227966 171.57974472 31.13227966 171.57974472 29.56481934 171.58413696 C27.40298916 171.58617503 25.24114043 171.58066323 23.0793457 171.56811523 C19.77407519 171.55205842 16.47002749 171.56797319 13.16479492 171.5871582 C11.06192764 171.58517573 8.95906113 171.58133196 6.85620117 171.57543945 C5.86962524 171.58151215 4.88304932 171.58758484 3.86657715 171.59384155 C-4.80833572 171.5051041 -4.80833572 171.5051041 -8.73754883 168.17700195 C-10.89944735 164.93415416 -10.98381637 164.07603974 -10.96459961 160.33837891 C-10.96444855 159.35758865 -10.96429749 158.3767984 -10.96414185 157.36628723 C-10.95381927 156.3099559 -10.9434967 155.25362457 -10.93286133 154.1652832 C-10.93003143 153.08192184 -10.92720154 151.99856049 -10.92428589 150.88237 C-10.91307974 147.41796887 -10.88797417 143.9538251 -10.86254883 140.48950195 C-10.8525196 138.14250048 -10.84339365 135.79549495 -10.83520508 133.44848633 C-10.81313899 127.69123688 -10.7796571 121.9341378 -10.73754883 116.17700195 C-11.3403215 116.18810501 -11.94309418 116.19920807 -12.56413269 116.21064758 C-18.84192069 116.32132752 -25.11943126 116.39670499 -31.39794922 116.45166016 C-33.74051167 116.47679321 -36.08299578 116.51090503 -38.42529297 116.55419922 C-41.79389781 116.61490124 -45.16146532 116.64322447 -48.53051758 116.6652832 C-50.09953072 116.70399284 -50.09953072 116.70399284 -51.70024109 116.7434845 C-58.99492145 116.74629376 -58.99492145 116.74629376 -62.87548828 113.77148438 C-65.2860515 110.41275155 -65.86534512 108.79150157 -65.91455078 104.73071289 C-65.92738602 103.80925476 -65.94022125 102.88779663 -65.95344543 101.93841553 C-65.96083237 100.9394928 -65.9682193 99.94057007 -65.97583008 98.91137695 C-65.98390182 97.88522278 -65.99197357 96.8590686 -66.00028992 95.80181885 C-66.01413772 93.62627862 -66.02485675 91.4507166 -66.03271484 89.27514648 C-66.04990776 85.95424954 -66.09378604 82.6343531 -66.13793945 79.3137207 C-66.14806802 77.20044678 -66.15658361 75.08716438 -66.16333008 72.97387695 C-66.18083817 71.98305115 -66.19834625 70.99222534 -66.21638489 69.97137451 C-66.19830973 64.20039021 -65.71741633 60.68970676 -61.73754883 56.17700195 C-58.51580634 54.02917362 -57.69417573 53.93051047 -53.99072266 53.94995117 C-52.54956841 53.95017776 -52.54956841 53.95017776 -51.07929993 53.95040894 C-50.04484238 53.96073151 -49.01038483 53.97105408 -47.94458008 53.98168945 C-46.35283211 53.9859343 -46.35283211 53.9859343 -44.72892761 53.99026489 C-41.33585386 54.00147011 -37.94304296 54.02657549 -34.55004883 54.05200195 C-32.25122451 54.0620313 -29.95239606 54.07115723 -27.65356445 54.0793457 C-22.01480272 54.10141055 -16.37619455 54.13489151 -10.73754883 54.17700195 C-10.74643127 53.58675735 -10.75531372 52.99651276 -10.76446533 52.38838196 C-10.85301891 46.24030245 -10.91331631 40.09240437 -10.95727539 33.94384766 C-10.97737989 31.64982748 -11.00466774 29.35585847 -11.03930664 27.06201172 C-11.08787442 23.76297369 -11.11052959 20.46461373 -11.12817383 17.1652832 C-11.14881897 16.14114822 -11.16946411 15.11701324 -11.19073486 14.06184387 C-11.19297912 6.92612039 -11.19297912 6.92612039 -8.83813477 3.05273438 C-5.74903293 0.29429999 -4.05037304 0.04589811 0 0 Z " fill="#FEF4F4" transform="translate(300.737548828125,286.822998046875)"/>
<path d="M0 0 C10.89 0 21.78 0 33 0 C35.475 4.7334375 35.475 4.7334375 38 9.5625 C38.85283569 11.18937744 38.85283569 11.18937744 39.72290039 12.84912109 C42.55859251 18.27057091 45.36496808 23.70375062 48.11581421 29.1686554 C49.53352715 31.98396369 50.95969402 34.79495709 52.38598633 37.60592651 C53.08423305 38.98817374 53.77828366 40.37254903 54.46801758 41.75906372 C55.4459313 43.72383982 56.43824647 45.68072994 57.43359375 47.63671875 C58.00134521 48.76811279 58.56909668 49.89950684 59.15405273 51.06518555 C61.12017761 54.19106666 62.93347879 55.96749942 66 58 C69.56461898 58.59410316 71.2953981 58.40376064 74.43359375 56.60546875 C78.70832419 52.26567392 80.06179133 46.66402431 82.04882812 41.00195312 C82.53706055 39.6803418 82.53706055 39.6803418 83.03515625 38.33203125 C83.3175415 37.52483643 83.59992676 36.7176416 83.89086914 35.88598633 C85 34 85 34 87.12280273 33.22924805 C88.05201538 33.11577026 88.05201538 33.11577026 89 33 C89.58265625 33.84820312 90.1653125 34.69640625 90.765625 35.5703125 C103.89540396 54.4518484 119.5804106 71.9738256 137 87 C137.61681641 87.53447754 138.23363281 88.06895508 138.86914062 88.61962891 C155.24661024 102.71084233 173.12618444 115.4413398 192.4140625 125.26953125 C193.51488159 125.84525879 193.51488159 125.84525879 194.63793945 126.43261719 C196.04613496 127.16430337 197.46625413 127.87365851 198.89916992 128.55566406 C201.55367438 129.94377174 203.62590271 131.14366625 204.85302734 133.95263672 C205.35010849 135.94323523 205.68208763 137.97305554 206 140 C206.33 140.99 206.66 141.98 207 143 C209.8914023 143.96380077 211.82653923 144.15112024 214.83862305 144.20532227 C215.8194133 144.22526749 216.80020355 144.24521271 217.81071472 144.26576233 C218.86704605 144.28247482 219.92337738 144.29918732 221.01171875 144.31640625 C222.63676079 144.3475779 222.63676079 144.3475779 224.29463196 144.37937927 C227.75885616 144.44481797 231.2231568 144.50373353 234.6875 144.5625 C237.03451315 144.60569061 239.38151853 144.64930507 241.72851562 144.69335938 C247.48559604 144.80049357 253.24275267 144.90227064 259 145 C260.28317066 163.49615507 260.28317066 163.49615507 257.58642578 168.75830078 C255.50975229 170.60651387 253.54606409 171.81730959 251.0625 173.0625 C249.40034916 174.0678664 247.73890711 175.07440544 246.078125 176.08203125 C245.22927734 176.5610791 244.38042969 177.04012695 243.50585938 177.53369141 C239.57518727 179.833732 235.97762494 182.55514288 232.3125 185.25 C226.94533683 189.05804994 221.49158391 192.69487449 215.875 196.125 C215.28372314 196.49141602 214.69244629 196.85783203 214.08325195 197.23535156 C207.80248093 200.97754378 201.95077312 202.29830229 194.6875 202.375 C193.47449219 202.40335938 192.26148438 202.43171875 191.01171875 202.4609375 C182.5507873 201.93340255 175.2171049 197.21021965 168.4375 192.5 C167.66575439 191.97374023 166.89400879 191.44748047 166.09887695 190.90527344 C163.72514207 189.28069345 161.36196271 187.64163373 159 186 C158.29423828 185.51466797 157.58847656 185.02933594 156.86132812 184.52929688 C134.84725318 169.38811193 113.93688147 152.74959631 93.63720703 135.39453125 C91.908789 133.92230879 90.17173139 132.46073031 88.43359375 131 C82.17622659 125.71981996 76.15399744 120.3640737 70.4765625 114.44921875 C68.43792099 112.4330859 66.36906247 110.57494394 64.1953125 108.7109375 C59.94409874 105.02321523 56.08090022 101.05548008 52.25 96.9375 C51.55680664 96.19435547 50.86361328 95.45121094 50.14941406 94.68554688 C26.95594458 69.68493293 0 36.09559888 0 0 Z " fill="#D53030" transform="translate(31,258)"/>
<path d="M0 0 C5.33858622 1.98645068 6.76309451 6.11609812 9 11 C10.49654008 14.4383004 11.92036713 17.90342088 13.328125 21.37890625 C13.91892853 22.83525734 13.91892853 22.83525734 14.52166748 24.32102966 C15.34714514 26.36157967 16.17062134 28.40294037 16.9921875 30.44506836 C18.2494216 33.56106647 19.52304867 36.67005168 20.796875 39.77929688 C21.59998264 41.77042049 22.40210016 43.76194382 23.203125 45.75390625 C23.58430481 46.67700089 23.96548462 47.60009552 24.35821533 48.55116272 C26.36924354 53.6130353 27.55108392 57.54498372 27 63 C25.41248673 66.04172389 23.09696325 68.45151837 20 70 C16.21706925 70.51585419 14.42765482 70.25810774 11.1328125 68.26953125 C6.41838504 64.14660338 4.75986159 58.02373848 2.625 52.3125 C1.95017578 50.58290039 1.95017578 50.58290039 1.26171875 48.81835938 C-2 40.36664134 -2 40.36664134 -2 38 C-2.66 38 -3.32 38 -4 38 C-4.14708908 38.54254929 -4.29417816 39.08509857 -4.44572449 39.64408875 C-6.76335859 47.78927377 -9.85861005 55.60006753 -12.98828125 63.45703125 C-13.27592031 64.18080145 -13.56355938 64.90457165 -13.85991478 65.65027428 C-15.37893147 69.47065886 -16.90345833 73.28879111 -18.43237305 77.10522461 C-20.00374512 81.0311042 -21.55478249 84.96469718 -23.10155964 88.9003191 C-24.30236402 91.94448034 -25.51842354 94.98237818 -26.73863792 98.01880455 C-27.31728852 99.46650175 -27.89018451 100.91651365 -28.45702553 102.3688755 C-29.25121783 104.39969077 -30.06681213 106.42062665 -30.88793945 108.44067383 C-31.34521927 109.58965652 -31.80249908 110.73863922 -32.27363586 111.92243958 C-34.41906612 115.74706215 -36.43679586 117.46527098 -40 120 C-43 120.625 -43 120.625 -46 120 C-51.89778486 116.0435145 -54.39368748 111.19648013 -57.4765625 104.9140625 C-57.96909515 103.93891693 -58.46162781 102.96377136 -58.96908569 101.95907593 C-60.53411142 98.85407308 -62.08002036 95.74001822 -63.625 92.625 C-65.18121562 89.51931815 -66.74127408 86.41559484 -68.30233765 83.31234741 C-69.26995219 81.38536103 -70.23402941 79.456593 -71.19400024 77.52578735 C-73.14437939 73.61331011 -75.11036919 69.74796114 -77.32568359 65.97802734 C-79 63 -79 63 -79 61 C-79.71552536 61.00888245 -80.43105072 61.01776489 -81.16825867 61.0269165 C-87.92133444 61.10716473 -94.67427657 61.16801602 -101.42772198 61.20724869 C-104.89953184 61.22809712 -108.37094673 61.25636295 -111.8425293 61.30175781 C-115.83646369 61.35365439 -119.82998515 61.37296773 -123.82421875 61.390625 C-125.68852791 61.42159271 -125.68852791 61.42159271 -127.59049988 61.45318604 C-128.75132584 61.45348816 -129.91215179 61.45379028 -131.1081543 61.45410156 C-132.63704536 61.46742523 -132.63704536 61.46742523 -134.19682312 61.48101807 C-137.75473579 60.87048925 -139.42582242 59.47878845 -142 57 C-143.23446739 53.9957652 -143.39505379 51.21607167 -143 48 C-141.3453246 44.87233904 -139.20579162 42.60289581 -136 41 C-133.96935395 40.88797741 -131.93502393 40.84068052 -129.90136719 40.82299805 C-127.97861969 40.80374519 -127.97861969 40.80374519 -126.01702881 40.78410339 C-124.6103148 40.77593495 -123.20359642 40.76849142 -121.796875 40.76171875 C-121.0890815 40.75764322 -120.38128799 40.7535677 -119.6520462 40.74936867 C-115.90393872 40.72850437 -112.15586785 40.71420568 -108.40771484 40.70483398 C-104.54288483 40.69378379 -100.67863284 40.6594019 -96.81400681 40.61966228 C-93.83706622 40.59346648 -90.86026255 40.58513945 -87.88321686 40.58155251 C-86.45909991 40.57669215 -85.03498885 40.56509374 -83.6109848 40.54651451 C-81.6128688 40.52207058 -79.61447134 40.52551302 -77.61621094 40.5300293 C-76.480849 40.52416306 -75.34548706 40.51829681 -74.17572021 40.51225281 C-69.46080534 41.23639925 -66.19941397 43.38810334 -63.36010742 47.20385742 C-62.94607666 47.99638916 -62.5320459 48.7889209 -62.10546875 49.60546875 C-61.62400391 50.50845703 -61.14253906 51.41144531 -60.64648438 52.34179688 C-60.16501953 53.28087891 -59.68355469 54.21996094 -59.1875 55.1875 C-58.48270508 56.52071289 -58.48270508 56.52071289 -57.76367188 57.88085938 C-56.7855115 59.73455773 -55.81380442 61.59167616 -54.84867859 63.45219421 C-52.68673646 67.61215495 -50.48985147 71.75351928 -48.29418945 75.89575195 C-47.67258816 77.06912991 -47.67258816 77.06912991 -47.03842926 78.26621246 C-46.02583236 80.17758776 -45.01294597 82.08880968 -44 84 C-43.61020462 83.00663635 -43.22040924 82.01327271 -42.81880188 80.98980713 C-39.14201138 71.62546257 -35.44972661 62.26736028 -31.74221516 52.91513443 C-29.83667548 48.10694181 -27.93664542 43.29672255 -26.04907227 38.48144531 C-24.22698636 33.8338218 -22.39060641 29.19208627 -20.54421043 24.55406952 C-19.84257983 22.78429724 -19.14610906 21.01247027 -18.45491982 19.23859406 C-17.48527032 16.75269623 -16.49746628 14.27476273 -15.50512695 11.79785156 C-15.08325607 10.69733459 -15.08325607 10.69733459 -14.65286255 9.57458496 C-11.66555623 2.23273097 -8.05886367 -1.00735796 0 0 Z " fill="#D4EEFB" transform="translate(143,197)"/>
<path d="M0 0 C8.75486737 7.32037052 14.35352452 16.55960403 18.4375 27.12109375 C18.75847656 27.94867188 19.07945312 28.77625 19.41015625 29.62890625 C22.86223346 40.12964342 23.66944296 54.18414559 18.61328125 64.26171875 C16.73345509 67.2344671 15.70092358 68.62535794 12.4375 70.12109375 C-3.29160533 72.34111763 -17.4991246 63.51916807 -29.66503906 54.44799805 C-35.91217049 49.653408 -41.83850448 44.52759348 -47.5625 39.12109375 C-48.92181641 37.87585938 -48.92181641 37.87585938 -50.30859375 36.60546875 C-58.3788157 28.94939134 -68.35538542 18.10427201 -69.8984375 6.62109375 C-69.95967311 2.70201443 -69.92808091 -0.13112713 -68.1875 -3.69140625 C-48.66385589 -19.96110967 -18.96109518 -13.90287619 0 0 Z " fill="#FB7878" transform="translate(364.5625,175.87890625)"/>
<path d="M0 0 C4.41422062 2.06990402 6.12052358 4.32776619 8.34765625 8.609375 C8.94707031 9.74560303 9.54648437 10.88183105 10.1640625 12.05249023 C10.79713784 13.2848585 11.42994427 14.51736494 12.0625 15.75 C12.72405823 17.01503372 13.38683254 18.27943217 14.05078125 19.54321289 C15.72912267 22.74491203 17.39223708 25.95424439 19.05108643 29.16607666 C21.0147975 32.96125429 23.00073465 36.74484695 24.9831543 40.53027344 C25.98665816 42.45361546 26.98431869 44.38001863 27.97583008 46.30957031 C29.98107521 50.20587059 31.98562178 54.06045144 34.296875 57.78515625 C42.83279477 71.8352802 38.51039256 87.59713926 36 103 C32.53487409 99.89068521 30.61877865 96.74668056 28.53125 92.6015625 C28.21408524 91.9783461 27.89692047 91.3551297 27.57014465 90.71302795 C26.89176123 89.37857411 26.21674819 88.04240241 25.54483032 86.7046814 C23.77883992 83.18956769 21.98816636 79.68706418 20.19921875 76.18359375 C19.66448189 75.13426414 19.66448189 75.13426414 19.11894226 74.06373596 C15.5148106 67.00998625 11.73464282 60.05719912 7.89453125 53.12939453 C5.13395205 48.13687902 2.54589637 43.10084469 0.10229492 37.94458008 C-0.85056631 35.84239549 -0.85056631 35.84239549 -3 35 C-3.10716843 35.67260361 -3.21433685 36.34520721 -3.32475281 37.03819275 C-4.14512181 40.63654144 -5.43805188 43.97194708 -6.80395508 47.38891602 C-7.23344704 48.47765015 -7.23344704 48.47765015 -7.6716156 49.58837891 C-8.61626397 51.97876332 -9.56742269 54.3664843 -10.51953125 56.75390625 C-11.18120415 58.41866539 -11.84279866 60.08345568 -12.50431824 61.74827576 C-13.89073097 65.23376958 -15.28086632 68.71775353 -16.6730957 72.20092773 C-18.45513261 76.6613603 -20.22358477 81.12704458 -21.98874378 85.5941782 C-23.35006794 89.032804 -24.72071426 92.46765687 -26.09396935 95.90153313 C-26.74999743 97.54639601 -27.40262775 99.19261831 -28.05176735 100.84021187 C-28.96070329 103.14434082 -29.88260607 105.44286329 -30.80786133 107.74047852 C-31.07243134 108.41954758 -31.33700134 109.09861664 -31.60958862 109.79826355 C-33.1760273 113.64191994 -34.79503305 116.33847301 -38 119 C-39.9296875 119.78515625 -39.9296875 119.78515625 -41.875 120.0625 C-42.51179688 120.17722656 -43.14859375 120.29195313 -43.8046875 120.41015625 C-47.42785839 119.73322931 -49.70002621 117.74330986 -52 115 C-53.76666784 111.73870556 -55.04629302 108.35644484 -56.3125 104.875 C-56.65861328 103.96878906 -57.00472656 103.06257813 -57.36132812 102.12890625 C-61.22011798 91.97419611 -61.22011798 91.97419611 -58.8125 85.9375 C-55.63840607 77.47029414 -53.79542778 68.8467447 -52 60 C-50.01457269 63.75881869 -48.45310017 67.68352494 -46.875 71.625 C-46.59785156 72.305625 -46.32070313 72.98625 -46.03515625 73.6875 C-44 78.76035252 -44 78.76035252 -44 81 C-43.34 81 -42.68 81 -42 81 C-41.85331879 80.45785858 -41.70663757 79.91571716 -41.55551147 79.35714722 C-39.23551757 71.19541055 -36.12093568 63.37629474 -32.9765625 55.5078125 C-32.68767529 54.78279415 -32.39878807 54.0577758 -32.1011467 53.3107872 C-30.57654373 49.48517087 -29.04681835 45.66165186 -27.51269531 41.83984375 C-25.93405734 37.90422789 -24.37325914 33.96178566 -22.81630898 30.01754951 C-21.60955304 26.96982596 -20.38981201 23.92742325 -19.16648483 20.88631821 C-18.58513874 19.43464259 -18.00865705 17.98100874 -17.43724442 16.52539444 C-16.63802722 14.49305926 -15.82065284 12.46896044 -14.99853516 10.44580078 C-14.53903473 9.29459747 -14.0795343 8.14339417 -13.60610962 6.95730591 C-10.34462222 0.95197735 -6.72667045 -0.84083381 0 0 Z " fill="#B2E6FC" transform="translate(473,197)"/>
<path d="M0 0 C0.06731323 1.12305542 0.06731323 1.12305542 0.13598633 2.26879883 C2.57923208 42.00272937 10.29418973 83.43582604 31.765625 117.828125 C33.67745957 121.19198582 32.92370405 123.30518379 32 127 C30.78859759 130.06269884 29.44307386 133.04002059 28 136 C24.97775169 132.35557623 23.05226752 128.31542567 20.98046875 124.09375 C20.19798452 122.52958807 19.41475832 120.96579715 18.63085938 119.40234375 C17.40583837 116.95033738 16.18571378 114.49635976 14.97827148 112.03564453 C13.80587813 109.65170642 12.61367547 107.27856224 11.41796875 104.90625 C11.0646196 104.17386108 10.71127045 103.44147217 10.34721375 102.68688965 C7.9858363 98.0515215 5.8890516 95.24517917 1 93 C-2.41001667 92.44039027 -5.76028962 92.39517647 -9.2109375 92.390625 C-10.17907379 92.37408875 -11.14721008 92.35755249 -12.14468384 92.34051514 C-15.22152102 92.29212655 -18.29786426 92.2706842 -21.375 92.25 C-23.46747264 92.22183272 -25.55992237 92.19190424 -27.65234375 92.16015625 C-32.76818849 92.08636978 -37.8837605 92.03673912 -43 92 C-43.80540269 62.02301035 -37.72767599 34.82472624 -16.53515625 12.44995117 C-4.31049924 0 -4.31049924 0 0 0 Z " fill="#D53031" transform="translate(71,146)"/>
<path d="M0 0 C0.66163651 0.0028299 1.32327301 0.00565979 2.00495911 0.00857544 C4.11416862 0.01975332 6.2229505 0.04485269 8.33203125 0.0703125 C9.76366573 0.08034543 11.19530689 0.08947074 12.62695312 0.09765625 C16.13295102 0.11968455 19.63869938 0.15419765 23.14453125 0.1953125 C22.71942764 0.57291718 22.29432404 0.95052185 21.8563385 1.33956909 C17.44335291 5.75033513 16.44817769 9.00134946 16.38780212 15.17849731 C16.42013695 16.67568802 16.42013695 16.67568802 16.453125 18.203125 C16.45449966 19.24677216 16.45587433 20.29041931 16.45729065 21.36569214 C16.46632099 23.56274709 16.48986915 25.75978493 16.52709961 27.95654297 C16.58197345 31.31677318 16.5886275 34.674524 16.58789062 38.03515625 C16.60263499 40.17450057 16.62011947 42.31382814 16.640625 44.453125 C16.64396347 45.4553006 16.64730194 46.4574762 16.65074158 47.49002075 C16.78052351 53.85059879 17.51953639 57.57031764 22.14453125 62.1953125 C17.96372524 62.31934371 13.78390623 62.40984851 9.60180664 62.4699707 C8.18071834 62.49504397 6.75975812 62.52911249 5.33911133 62.57250977 C3.29085663 62.63349108 1.24431242 62.66159012 -0.8046875 62.68359375 C-2.65066528 62.72286987 -2.65066528 62.72286987 -4.53393555 62.76293945 C-8.76160236 62.04046056 -10.18194236 60.46439143 -12.85546875 57.1953125 C-14.0343581 54.8375338 -14.00060358 53.37891684 -14.0324707 50.74902344 C-14.04530594 49.82756531 -14.05814117 48.90610718 -14.07136536 47.95672607 C-14.07875229 46.95780334 -14.08613922 45.95888062 -14.09375 44.9296875 C-14.10182175 43.90353333 -14.10989349 42.87737915 -14.11820984 41.82012939 C-14.13205764 39.64458916 -14.14277667 37.46902714 -14.15063477 35.29345703 C-14.16782768 31.97256008 -14.21170597 28.65266365 -14.25585938 25.33203125 C-14.26598794 23.21875732 -14.27450353 21.10547493 -14.28125 18.9921875 C-14.29875809 18.00136169 -14.31626617 17.01053589 -14.33430481 15.98968506 C-14.31622965 10.21870076 -13.83533625 6.70801731 -9.85546875 2.1953125 C-6.1761743 -0.25755046 -4.38168968 -0.03697628 0 0 Z " fill="#D5EFFC" transform="translate(248.85546875,340.8046875)"/>
<path d="M0 0 C3.56234428 -0.08741124 7.12441108 -0.14052896 10.6875 -0.1875 C11.69490234 -0.21263672 12.70230469 -0.23777344 13.74023438 -0.26367188 C23.1579348 -0.35691643 23.1579348 -0.35691643 27 3 C29.02125782 6.03188674 29.25066791 6.62453234 29.27124023 10.02490234 C29.28142685 10.82938812 29.29161346 11.6338739 29.30210876 12.46273804 C29.30424881 13.32839386 29.30638885 14.19404968 29.30859375 15.0859375 C29.33375481 16.92187816 29.35915282 18.75781559 29.38476562 20.59375 C29.41350141 23.48599402 29.43752066 26.37818183 29.45629883 29.27050781 C29.47797723 32.06344787 29.51741967 34.85572672 29.55859375 37.6484375 C29.55870956 38.51004486 29.55882538 39.37165222 29.5589447 40.2593689 C29.63652879 44.97527496 29.91587676 48.18102301 33 52 C35.29308963 53.14654482 36.79909656 53.19729117 39.3515625 53.31640625 C40.62773437 53.37924805 40.62773437 53.37924805 41.9296875 53.44335938 C42.81914062 53.48267578 43.70859375 53.52199219 44.625 53.5625 C45.97078125 53.62727539 45.97078125 53.62727539 47.34375 53.69335938 C49.56234283 53.79956861 51.7810488 53.90161194 54 54 C54 54.33 54 54.66 54 55 C47.39810582 55.07612856 40.79632506 55.12863283 34.1940918 55.16479492 C31.94860606 55.17987182 29.70314971 55.20033653 27.45776367 55.22631836 C24.22827901 55.26274918 20.99918406 55.27973755 17.76953125 55.29296875 C16.76727005 55.30845261 15.76500885 55.32393646 14.7323761 55.33988953 C5.90806093 55.34201533 5.90806093 55.34201533 2 52 C-0.16189853 48.75715221 -0.24626755 47.89903779 -0.22705078 44.16137695 C-0.22689972 43.1805867 -0.22674866 42.19979645 -0.22659302 41.18928528 C-0.21627045 40.13295395 -0.20594788 39.07662262 -0.1953125 37.98828125 C-0.1924826 36.90491989 -0.18965271 35.82155853 -0.18673706 34.70536804 C-0.17553091 31.24096692 -0.15042534 27.77682315 -0.125 24.3125 C-0.11497077 21.96549852 -0.10584482 19.618493 -0.09765625 17.27148438 C-0.07559016 11.51423493 -0.04210827 5.75713585 0 0 Z " fill="#D4F0FD" transform="translate(290,403)"/>
<path d="M0 0 C1.30195313 0.00322266 2.60390625 0.00644531 3.9453125 0.00976562 C5.32552149 0.01812159 6.70572982 0.02658654 8.0859375 0.03515625 C9.47395676 0.04017124 10.86197772 0.04473415 12.25 0.04882812 C15.65368882 0.06064649 19.05729189 0.07712191 22.4609375 0.09765625 C21.24096069 1.5369751 21.24096069 1.5369751 19.99633789 3.00537109 C16.82667763 7.46498743 16.79045151 11.23781885 16.89453125 16.57421875 C16.88607933 17.90663101 16.88607933 17.90663101 16.87745667 19.26596069 C16.86108166 22.08540531 16.87649392 24.90326755 16.8984375 27.72265625 C16.91505475 30.54903441 16.92410822 33.37438075 16.90870667 36.20077515 C16.89945523 37.9537286 16.90849621 39.70690143 16.93833923 41.45962524 C16.92022404 45.4967917 16.77068348 47.5903059 14.62133789 51.11083984 C11.32809016 54.1394815 8.65023699 54.22013775 4.35546875 54.1953125 C3.37255859 54.19208984 2.38964844 54.18886719 1.37695312 54.18554688 C0.35279297 54.17716797 -0.67136719 54.16878906 -1.7265625 54.16015625 C-2.76232422 54.15564453 -3.79808594 54.15113281 -4.86523438 54.14648438 C-7.42323516 54.13469635 -9.98111983 54.1182414 -12.5390625 54.09765625 C-12.64055512 47.35340236 -12.71056683 40.6093457 -12.75878906 33.86450195 C-12.77889356 31.57048177 -12.80618141 29.27651277 -12.84082031 26.98266602 C-12.88938809 23.68362799 -12.91204327 20.38526803 -12.9296875 17.0859375 C-12.95033264 16.06180252 -12.97097778 15.03766754 -12.99224854 13.98249817 C-12.99449279 6.84677469 -12.99449279 6.84677469 -10.63964844 2.97338867 C-7.04488375 -0.23658077 -4.75575237 -0.02067718 0 0 Z " fill="#D5F0FD" transform="translate(302.5390625,286.90234375)"/>
<path d="M0 0 C7.81150056 0.55796433 13.91500195 2.38191572 19.3125 8.3125 C23.94326771 14.28076465 25.57799381 19.71954605 25.3515625 27.22265625 C24.4620483 34.24981842 21.00508074 40.10867109 16 45 C9.04511195 49.33118777 2.17293732 51.0186899 -6 50 C-12.81050611 47.77310431 -18.24400001 44.16083167 -22 38 C-24.9317628 32.01385314 -26.1222227 25.60307822 -25 19 C-23.61518692 15.48507512 -21.93204311 12.24307236 -20 9 C-17.24766542 11.37136171 -16.28447202 13.52577922 -15.125 16.9375 C-13.48455966 21.19394557 -12.19240673 23.80397743 -8 26 C-4.03821982 26.6602967 -2.54825861 26.36550574 0.8125 24.125 C3.47549246 21.53809304 3.92793969 20.69177902 4.3125 17 C4.28522423 12.67224403 2.61921055 9.13462358 0.875 5.234375 C0 3 0 3 0 0 Z " fill="#B02828" transform="translate(165,240)"/>
<path d="M0 0 C2.68593805 1.34296902 2.75679994 2.54068186 3.76953125 5.33203125 C4.10146484 6.21310547 4.43339844 7.09417969 4.77539062 8.00195312 C5.46159058 9.86154209 6.1413861 11.72350808 6.81445312 13.58789062 C8.73441126 18.64758836 10.13527096 22.14069871 15 25 C15.99 25.33 16.98 25.66 18 26 C16.40735545 30.93052234 13.54041779 34.62081172 10.4375 38.6875 C9.64037598 39.74227539 9.64037598 39.74227539 8.82714844 40.81835938 C4.49753076 46.4855614 -0.08056852 51.83211238 -5 57 C-7.24609375 55.09570312 -7.24609375 55.09570312 -9.4921875 53.19140625 C-12.07243622 51.15260869 -13.91386958 50.84227403 -17.1328125 50.68359375 C-17.93847656 50.64169922 -18.74414062 50.59980469 -19.57421875 50.55664062 C-20.83685547 50.49766602 -20.83685547 50.49766602 -22.125 50.4375 C-23.39923828 50.37272461 -23.39923828 50.37272461 -24.69921875 50.30664062 C-26.79928223 50.20045764 -28.89961948 50.09971503 -31 50 C-30.236875 48.989375 -29.47375 47.97875 -28.6875 46.9375 C-28.1409375 46.20402344 -27.594375 45.47054687 -27.03125 44.71484375 C-25.52177793 42.69737627 -23.99978389 40.69234451 -22.46875 38.69140625 C-14.04406605 27.57262551 -6.41494507 15.91922267 -1.65625 2.72265625 C-1 1 -1 1 0 0 Z " fill="#41C0F8" transform="translate(412,291)"/>
<path d="M0 0 C0.99 0 1.98 0 3 0 C3.41507813 0.99 3.83015625 1.98 4.2578125 3 C8.56164883 12.46700172 12.67541921 17.02996281 22.12109375 21.38671875 C25 23 25 23 25.91015625 25.20703125 C25.95462891 26.09455078 25.95462891 26.09455078 26 27 C25.01 27.40347656 24.02 27.80695313 23 28.22265625 C11.95566543 33.15298807 7.5187056 38.91256902 3 50 C2.01 50 1.02 50 0 50 C-1.33858524 47.71125827 -2.67101014 45.41930344 -4 43.125 C-4.3815625 42.47402344 -4.763125 41.82304688 -5.15625 41.15234375 C-8 36.2265625 -8 36.2265625 -8 34 C-8.78375 33.79375 -9.5675 33.5875 -10.375 33.375 C-15.29273755 31.50965127 -19.55842103 28.79134805 -24 26 C-22.65458308 21.96374924 -20.14052535 21.14552047 -16.5625 19.3125 C-15.96373047 18.99216797 -15.36496094 18.67183594 -14.74804688 18.34179688 C-10.28914579 16 -10.28914579 16 -8 16 C-7.73445313 15.29488281 -7.46890625 14.58976562 -7.1953125 13.86328125 C-5.93501033 10.84432214 -4.46042006 8.04814924 -2.875 5.1875 C-2.33617187 4.21167969 -1.79734375 3.23585938 -1.2421875 2.23046875 C-0.83226562 1.49441406 -0.42234375 0.75835937 0 0 Z " fill="#057BAE" transform="translate(175,63)"/>
<path d="M0 0 C0.99 0 1.98 0 3 0 C3.40347656 0.99 3.80695313 1.98 4.22265625 3 C9.15298807 14.04433457 14.91256902 18.4812944 26 23 C26 24.32 26 25.64 26 27 C25.01 27.40347656 24.02 27.80695312 23 28.22265625 C11.95566543 33.15298807 7.5187056 38.91256902 3 50 C2.01 50 1.02 50 0 50 C-0.40347656 49.01 -0.80695313 48.02 -1.22265625 47 C-6.15298807 35.95566543 -11.91256902 31.5187056 -23 27 C-23 25.68 -23 24.36 -23 23 C-20.87767021 21.82823482 -18.75242209 20.66245215 -16.625 19.5 C-16.02171875 19.16613281 -15.4184375 18.83226563 -14.796875 18.48828125 C-10.2265625 16 -10.2265625 16 -8 16 C-7.73445313 15.29488281 -7.46890625 14.58976562 -7.1953125 13.86328125 C-5.93501033 10.84432214 -4.46042006 8.04814924 -2.875 5.1875 C-2.33617187 4.21167969 -1.79734375 3.23585937 -1.2421875 2.23046875 C-0.83226562 1.49441406 -0.42234375 0.75835938 0 0 Z " fill="#FBF3F5" transform="translate(268,30)"/>
<path d="M0 0 C15.18 0 30.36 0 46 0 C46 6.93 46 13.86 46 21 C45.67 21 45.34 21 45 21 C45 15.72 45 10.44 45 5 C41.82617188 4.70703125 41.82617188 4.70703125 38.65234375 4.4140625 C36 4 36 4 32.7734375 3 C29.03664143 2.00971036 25.82704995 1.68872133 21.97265625 1.5859375 C20.68681641 1.54726563 19.40097656 1.50859375 18.07617188 1.46875 C16.73828582 1.43730501 15.40039511 1.40605741 14.0625 1.375 C12.69724244 1.33675658 11.33200736 1.2977013 9.96679688 1.2578125 C6.6446646 1.16390063 3.32253259 1.07822213 0 1 C0 0.67 0 0.34 0 0 Z " fill="#EA6768" transform="translate(244,403)"/>
</svg>
