<svg width="40" height="40" viewBox="0 0 40 40" fill="none" xmlns="http://www.w3.org/2000/svg">
<g clip-path="url(#clip0)">
<path d="M39.3181 24.3977H38.6514C38.2805 24.4027 37.9797 24.102 37.9747 23.7311V23.7261V23.0545C37.9797 22.6837 37.679 22.3829 37.3131 22.3779H37.3081C36.9371 22.3779 36.6314 22.6786 36.6314 23.0545V23.7211C36.6314 24.092 36.3356 24.3927 35.9647 24.3927H35.9597H35.288C34.9171 24.3927 34.6113 24.6934 34.6113 25.0693C34.6113 25.4402 34.9121 25.7459 35.288 25.7459H35.9547C36.3256 25.7459 36.6314 26.0466 36.6314 26.4225V27.0891C36.6314 27.46 36.9321 27.7657 37.3081 27.7657C37.679 27.7657 37.9797 27.47 37.9797 27.0991V27.0941V26.4225C37.9797 26.0517 38.2805 25.7459 38.6564 25.7459H39.3231C39.694 25.7459 39.9998 25.4452 39.9998 25.0693C39.9998 24.6984 39.694 24.3977 39.3181 24.3977Z" fill="#ADDCFD"/>
<path d="M35.8141 3.02172C36.2459 3.02172 36.5959 2.67167 36.5959 2.23986C36.5959 1.80806 36.2459 1.45801 35.8141 1.45801C35.3823 1.45801 35.0322 1.80806 35.0322 2.23986C35.0322 2.67167 35.3823 3.02172 35.8141 3.02172Z" fill="#ADDCFD"/>
<path d="M0 7.87375C0 6.87638 0.81203 6.06445 1.80952 6.06445H25.1228C26.1203 6.06445 26.9323 6.87638 26.9323 7.87375V38.1857C26.9323 39.1831 26.1203 39.995 25.1228 39.995H4.52632C2.02506 40 0 37.9702 0 35.4743V7.87375Z" fill="#10A8E5"/>
<path d="M5.87012 39.9552H28.4967C31.0481 39.9552 33.1132 37.8903 33.1132 35.3392C33.1132 34.9132 32.7674 34.5674 32.3413 34.5674H11.2586C10.8325 34.5674 10.4867 34.9132 10.4867 35.3392C10.4867 37.8853 8.4215 39.9552 5.87012 39.9552Z" fill="#1D7EDD"/>
<path d="M2.77148 5.82883C2.77148 4.83146 3.58351 4.01953 4.58101 4.01953H27.8943C28.8918 4.01953 29.7038 4.83146 29.7038 5.82883V36.1408C29.7038 37.1382 28.8918 37.9501 27.8943 37.9501H6.39053C4.39053 37.9501 2.77148 36.3313 2.77148 34.3315V5.82883Z" fill="url(#paint0_linear)"/>
<path d="M7.8793 15.8172C8.51594 15.8172 9.03204 15.3011 9.03204 14.6645C9.03204 14.0278 8.51594 13.5117 7.8793 13.5117C7.24266 13.5117 6.72656 14.0278 6.72656 14.6645C6.72656 15.3011 7.24266 15.8172 7.8793 15.8172Z" fill="#10A8E5"/>
<path d="M11.6593 13.7578H19.6242C20.0252 13.7578 20.346 14.0836 20.346 14.4795C20.346 14.8805 20.0202 15.2012 19.6242 15.2012H11.6593C11.2583 15.2012 10.9375 14.8755 10.9375 14.4795C10.9375 14.0836 11.2633 13.7578 11.6593 13.7578Z" fill="#10A8E5"/>
<path fill-rule="evenodd" clip-rule="evenodd" d="M8.76706 1.08758C7.91994 1.08758 7.23323 1.77421 7.23323 2.62123V3.98446H6.14551V2.62123C6.14551 1.17279 7.31844 0 8.76706 0H9.81468C11.3235 0 12.5515 1.2229 12.5515 2.7365V8.5052C12.5515 9.76319 11.534 10.7806 10.2758 10.7806C9.01769 10.7806 8.00014 9.76319 8.00014 8.5052V3.42814C8.00014 2.55607 8.70691 1.84438 9.58411 1.84438C10.4563 1.84438 11.1681 2.55106 11.1681 3.42814V7.92883C11.1681 8.22955 10.9225 8.47012 10.6267 8.47012C10.331 8.47012 10.0854 8.22453 10.0854 7.92883V3.42814C10.0854 3.15249 9.86481 2.93196 9.58912 2.93196C9.31343 2.93196 9.09288 3.15249 9.09288 3.42814V8.5052C9.09288 9.16176 9.6242 9.69302 10.2808 9.69302C10.9375 9.69302 11.4688 9.16176 11.4688 8.5052V2.7365C11.4688 1.82433 10.732 1.08758 9.81969 1.08758H8.76706Z" fill="#10A8E5"/>
<path d="M7.58905 17.8174H25.4186C25.8196 17.8174 26.1404 18.1432 26.1404 18.5391C26.1404 18.9401 25.8146 19.2608 25.4186 19.2608H7.58905C7.18805 19.2608 6.86724 18.935 6.86724 18.5391C6.86223 18.1432 7.18805 17.8174 7.58905 17.8174Z" fill="#FAFEFF"/>
<path d="M7.8793 24.6834C8.51594 24.6834 9.03204 24.1673 9.03204 23.5307C9.03204 22.894 8.51594 22.3779 7.8793 22.3779C7.24266 22.3779 6.72656 22.894 6.72656 23.5307C6.72656 24.1673 7.24266 24.6834 7.8793 24.6834Z" fill="#10A8E5"/>
<path d="M11.6593 22.6289H19.6242C20.0252 22.6289 20.346 22.9547 20.346 23.3506C20.346 23.7516 20.0202 24.0723 19.6242 24.0723H11.6593C11.2583 24.0723 10.9375 23.7466 10.9375 23.3506C10.9375 22.9547 11.2633 22.6289 11.6593 22.6289Z" fill="#10A8E5"/>
<path d="M7.58905 26.6885H21.4086C21.8096 26.6885 22.1304 27.0142 22.1304 27.4102C22.1304 27.8111 21.8046 28.1319 21.4086 28.1319H7.58905C7.18805 28.1319 6.86724 27.8061 6.86724 27.4102C6.86223 27.0142 7.18805 26.6885 7.58905 26.6885Z" fill="#FAFEFF"/>
<path d="M7.41895 37.9503H28.1959C30.7473 37.9503 32.8124 35.8854 32.8124 33.3343V32.5625H11.5493C10.7974 32.5625 10.1909 33.1689 10.1909 33.9207V35.1787C10.1909 36.7124 8.94777 37.9503 7.41895 37.9503Z" fill="#358DD9" fill-opacity="0.3"/>
<path d="M7.84961 37.9503H30.4762C33.0276 37.9503 35.0927 35.8854 35.0927 33.3343C35.0927 32.9083 34.7469 32.5625 34.3208 32.5625H13.2381C12.812 32.5625 12.4662 32.9083 12.4662 33.3343C12.4662 35.8854 10.401 37.9503 7.84961 37.9503Z" fill="#10A8E5"/>
<path opacity="0.2" d="M38.4508 11.1318L23.4634 23.5363L22.2002 26.769C22.7415 26.9544 23.1977 27.3504 23.4483 27.8666L26.536 26.7389L26.5461 26.7539L39.4934 13.8333C40.4659 12.866 39.8242 11.202 38.4508 11.1318ZM26.8969 23.0802C27.333 22.7945 27.7992 22.554 28.2603 22.3084C27.8042 22.559 27.338 22.8046 26.8969 23.0802Z" fill="#1364D1"/>
<path d="M26.195 22.1622C27.1274 21.4104 28.2251 20.8491 29.0121 19.9419C30.1249 18.6488 30.4557 16.8496 31.4532 15.4663C32.6161 13.8725 34.5209 13.0255 35.9595 11.6623C36.6011 11.0207 33.3229 14.5992 33.8492 13.8575L34.7063 12.7799C35.8993 11.1911 37.1174 9.52718 37.774 7.67779C36.8667 7.2618 35.789 7.50237 35.1424 8.26418L22.8467 22.9641L24.6362 24.4677C24.8768 23.5455 25.4281 22.7285 26.195 22.1622Z" fill="#FF9566"/>
<path d="M37.7546 7.70312C37.0979 9.54751 35.8799 11.2115 34.6869 12.8052L33.8298 13.8828C33.3034 14.6246 36.5816 11.0411 35.94 11.6876C34.5165 13.0458 32.5967 13.8978 31.4338 15.4916C30.4363 16.8699 30.1055 18.6742 28.9927 19.9673C28.2057 20.8744 27.113 21.4307 26.1756 22.1875C25.4037 22.7489 24.8423 23.5658 24.5967 24.488L26.2308 25.8613L38.5365 11.1613C39.3235 10.2241 39.2032 8.82579 38.2709 8.03391C38.1155 7.9036 37.94 7.80336 37.7596 7.72317" fill="#FF7C4E"/>
<path d="M21.9144 26.3574L21.5987 27.5202C21.5536 27.6956 21.6538 27.881 21.8292 27.9312C21.9094 27.9512 21.9896 27.9412 22.0648 27.9111L23.2726 27.3197C22.9669 26.8235 22.4808 26.4777 21.9144 26.3574Z" fill="#60304B"/>
<path d="M22.8325 22.9795L21.9102 26.3274C22.4716 26.4527 22.9628 26.7986 23.2686 27.2847L26.246 25.8263L22.8325 22.9795Z" fill="#FAFEFF"/>
</g>
<defs>
<linearGradient id="paint0_linear" x1="47.6569" y1="8.79868" x2="-7.7861" y2="30.308" gradientUnits="userSpaceOnUse">
<stop stop-color="white"/>
<stop offset="0.9407" stop-color="#ADDCFD"/>
</linearGradient>
<clipPath id="clip0">
<rect width="40" height="40" fill="white"/>
</clipPath>
</defs>
</svg>
