<svg width="40" height="40" viewBox="0 0 40 40" fill="none" xmlns="http://www.w3.org/2000/svg">
<g clip-path="url(#clip0)">
<path d="M0.00524049 1.53C0.00524049 0.685 0.69024 0 1.53524 0H30.2502C31.0952 0 31.7802 0.685 31.7802 1.53V38.47C31.7802 39.315 31.0952 40 30.2502 40H6.26524C-0.41476 40 0.00524049 34.725 0.00524049 33.04V1.53Z" fill="url(#paint0_linear)"/>
<path d="M15.5504 6.31473C15.4204 6.26973 15.2704 6.25473 15.1104 6.27473L15.0354 6.28473C14.2354 6.38973 13.6454 5.53473 14.0004 4.78973C14.4954 3.75473 13.2354 2.77473 12.4104 3.55473L12.3154 3.63973C11.7154 4.20473 10.7504 3.87473 10.5954 3.05473C10.3804 1.89973 8.77045 1.89973 8.55545 3.05473C8.40045 3.87473 7.43544 4.20473 6.83544 3.63973L6.75044 3.55473C5.92544 2.77473 4.66044 3.75473 5.16044 4.78973C5.52044 5.53473 4.92544 6.38973 4.12544 6.28473L4.05044 6.27473C2.94544 6.12973 2.47544 7.67473 3.46044 8.20473C4.17544 8.58973 4.17544 9.63973 3.46044 10.0247C2.61044 10.4847 2.84544 11.6947 3.64044 11.9247C7.01544 11.9897 12.1504 11.1647 15.5504 6.31473Z" fill="#FF9566"/>
<path d="M15.7007 8.20445C16.5407 7.74945 16.3207 6.56445 15.5507 6.31445C12.1507 11.1645 7.01574 11.9895 3.63574 11.9245C3.76074 11.9595 3.89574 11.9745 4.04574 11.9545L4.12074 11.9445C4.92074 11.8395 5.51074 12.6945 5.15574 13.4395C4.66074 14.4745 5.92074 15.4545 6.74574 14.6745L6.84074 14.5895C7.44074 14.0245 8.40574 14.3545 8.56074 15.1745C8.77574 16.3295 10.3857 16.3295 10.6007 15.1745C10.7557 14.3545 11.7207 14.0245 12.3207 14.5895L12.4157 14.6745C13.2407 15.4545 14.5057 14.4745 14.0057 13.4395C13.6457 12.6945 14.2407 11.8395 15.0407 11.9445L15.1157 11.9545C16.2207 12.0995 16.6907 10.5545 15.7057 10.0245C14.9857 9.63945 14.9857 8.58945 15.7007 8.20445Z" fill="#FF7C4E"/>
<path d="M4.31984 24.4404H22.3198C22.7248 24.4404 23.0498 24.7654 23.0498 25.1604C23.0498 25.5604 22.7248 25.8804 22.3198 25.8804H4.31984C3.91484 25.8804 3.58984 25.5554 3.58984 25.1604C3.58984 24.7654 3.91484 24.4404 4.31984 24.4404Z" fill="white"/>
<path d="M4.31984 27.8701H18.2748C18.6798 27.8701 19.0048 28.1951 19.0048 28.5901C19.0048 28.9901 18.6798 29.3101 18.2748 29.3101H4.31984C3.91484 29.3101 3.58984 28.9851 3.58984 28.5901C3.58984 28.1901 3.91484 27.8701 4.31984 27.8701Z" fill="white"/>
<path d="M39.9998 17.0146L39.9748 29.4095C39.9748 30.4195 39.1448 31.2295 38.1298 31.2295L24.7298 31.2045L22.3348 31.1996H21.6698L21.3848 31.2045H21.2748L19.9798 31.1996L18.7998 31.1945L18.2548 31.1896H18.2498L17.9648 31.1945L17.9198 31.1896H16.8148L16.5648 31.1845C16.5498 31.1845 16.5298 31.1895 16.5148 31.1845C16.0998 31.1745 15.7198 31.0246 15.4148 30.7896C15.3198 30.7146 15.2298 30.6245 15.1548 30.5345C15.1048 30.4696 15.0548 30.4096 15.0098 30.3396C14.8248 30.0546 14.7198 29.7196 14.7248 29.3596L14.7448 20.3646L14.7498 18.1746L14.7548 16.9646C14.7548 15.9596 15.5848 15.1396 16.5998 15.1446L20.2098 15.1496H20.5198L24.4098 15.1546H24.6148L26.4598 15.1596H26.7398L27.6098 15.1646H28.2248L29.6248 15.1696H31.7248L34.1748 15.1746L38.1648 15.1846C39.1748 15.1896 39.9998 16.0046 39.9998 17.0146Z" fill="#10A8E5"/>
<path d="M22.9764 18.0111C22.7118 18.0111 22.5 18.2333 22.5 18.5056C22.5 18.7778 22.7118 19 22.9764 19V18.0111ZM32.0236 18.9889C32.2882 18.9889 32.5 18.7667 32.5 18.4944C32.5 18.2222 32.2882 18 32.0236 18V18.9889ZM22.9764 19L32.0236 18.9889V18.0056L22.9764 18.0167V19Z" fill="#1D7EDD"/>
<path d="M17.6895 27.3896L25.8195 27.4096" stroke="#ADDCFD" stroke-width="2" stroke-miterlimit="10" stroke-linecap="round"/>
<path d="M17.7949 25.0947L25.9249 25.1147" stroke="#ADDCFD" stroke-width="2" stroke-miterlimit="10" stroke-linecap="round"/>
<path d="M17.8994 22.7998L26.0294 22.8198" stroke="#ADDCFD" stroke-width="2" stroke-miterlimit="10" stroke-linecap="round"/>
<path d="M30.9247 21.0098H35.9897C36.8147 21.0098 37.4847 21.6698 37.4847 22.4898V27.9648C37.4847 28.7798 36.8147 29.4448 35.9897 29.4448H30.9247C30.0997 29.4448 29.4297 28.7848 29.4297 27.9648V22.4898C29.4297 21.6748 30.0997 21.0098 30.9247 21.0098Z" fill="#1D7EDD"/>
<path d="M33.5746 26.6294C34.6874 26.6294 35.5896 25.7385 35.5896 24.6394C35.5896 23.5404 34.6874 22.6494 33.5746 22.6494C32.4617 22.6494 31.5596 23.5404 31.5596 24.6394C31.5596 25.7385 32.4617 26.6294 33.5746 26.6294Z" fill="white"/>
<path fill-rule="evenodd" clip-rule="evenodd" d="M36.9396 29.1045C36.6796 29.3145 36.3496 29.4395 35.9896 29.4395H30.9246C30.6546 29.4395 30.4046 29.3695 30.1846 29.2445C30.4496 27.6295 31.8696 26.3945 33.5796 26.3945C35.2346 26.3995 36.6196 27.5595 36.9396 29.1045Z" fill="white"/>
<path opacity="0.1" d="M26.7302 15.1642L17.3052 31.1892H16.8102L16.5602 31.1842C16.5452 31.1842 16.5252 31.1892 16.5102 31.1842C16.0952 31.1742 15.7152 31.0242 15.4102 30.7892L24.6102 15.1592L26.4552 15.1642H26.7302Z" fill="white"/>
<path opacity="0.1" d="M31.7149 15.1691C31.6799 15.2741 31.6349 15.3841 31.5749 15.4841L22.3299 31.1941H21.6649L21.3799 31.1991H21.2699L19.9749 31.1941L18.7949 31.1891L28.2199 15.1641L29.6199 15.1691H31.7149Z" fill="white"/>
<path d="M38.7068 2.93972H38.0401C37.6692 2.94473 37.3684 2.64402 37.3634 2.27313V2.26812V1.59653C37.3684 1.22565 37.0677 0.924934 36.7018 0.919922H36.6967C36.3258 0.919922 36.02 1.22064 36.02 1.59653V2.26311C36.02 2.63399 35.7243 2.93471 35.3534 2.93471H35.3484H34.6767C34.3058 2.93471 34 3.23542 34 3.61131C34 3.98219 34.3008 4.28792 34.6767 4.28792H35.3434C35.7143 4.28792 36.02 4.58864 36.02 4.96453V5.63111C36.02 6.00199 36.3208 6.30772 36.6967 6.30772C37.0677 6.30772 37.3684 6.01201 37.3684 5.64113V5.63612V4.96453C37.3684 4.59365 37.6692 4.28792 38.0451 4.28792H38.7118C39.0827 4.28792 39.3885 3.98721 39.3885 3.61131C39.3885 3.24043 39.0827 2.93972 38.7068 2.93972Z" fill="#ADDCFD"/>
<path d="M4.1748 40.0004H28.8298C31.8548 40.0004 34.3098 37.5654 34.3098 34.5604V33.6504H8.6198C7.9798 33.6504 7.46481 34.1654 7.46481 34.7954V36.7304C7.46481 38.5404 5.9898 40.0004 4.1748 40.0004Z" fill="#358DD9" fill-opacity="0.3"/>
<path d="M5.27051 40.0003H31.1505C34.0655 40.0003 36.4305 37.5653 36.4305 34.5603C36.4305 34.0603 36.0355 33.6553 35.5505 33.6553H11.4305C10.9455 33.6553 10.5505 34.0603 10.5505 34.5603C10.5505 37.5653 8.18551 40.0003 5.27051 40.0003Z" fill="#10A8E5"/>
<path d="M26.0754 4.35004C26.0754 3.62504 25.4804 3.04004 24.7503 3.04004C24.0154 3.04004 23.4253 3.62504 23.4253 4.35004V6.31504H21.4354C20.7004 6.31504 20.1104 6.90004 20.1104 7.62504C20.1104 8.35004 20.7054 8.93504 21.4354 8.93504H23.4253V10.9C23.4253 11.625 24.0204 12.21 24.7503 12.21C25.4854 12.21 26.0754 11.625 26.0754 10.9V8.93504H28.0654C28.8004 8.93504 29.3903 8.35004 29.3903 7.62504C29.3903 6.90004 28.7954 6.31504 28.0654 6.31504H26.0754V4.35004Z" fill="#ADDCFD"/>
<path fill-rule="evenodd" clip-rule="evenodd" d="M12.1706 6.87494C12.5556 7.15994 12.6306 7.69994 12.3456 8.07994L9.86063 11.1799C9.71063 11.3799 9.48062 11.5049 9.23062 11.5199C8.98062 11.5399 8.73563 11.4449 8.55563 11.2699L7.14563 9.79994C6.80562 9.46494 6.80562 8.91994 7.14563 8.57994C7.48563 8.24494 8.03062 8.24494 8.37063 8.57994L9.07563 9.34994L10.9606 7.04494C11.2456 6.66494 11.7856 6.58994 12.1706 6.87494Z" fill="white"/>
<path d="M34.7819 12.5637C35.2137 12.5637 35.5637 12.2137 35.5637 11.7819C35.5637 11.35 35.2137 11 34.7819 11C34.35 11 34 11.35 34 11.7819C34 12.2137 34.35 12.5637 34.7819 12.5637Z" fill="#ADDCFD"/>
</g>
<defs>
<linearGradient id="paint0_linear" x1="49.5706" y1="10.0374" x2="-5.37441" y2="26.292" gradientUnits="userSpaceOnUse">
<stop stop-color="white"/>
<stop offset="0.9407" stop-color="#ADDCFD"/>
</linearGradient>
<clipPath id="clip0">
<rect width="40" height="40" fill="white"/>
</clipPath>
</defs>
</svg>
