<?xml version="1.0" encoding="UTF-8"?>
<svg version="1.1" xmlns="http://www.w3.org/2000/svg" width="512" height="512">
<path d="M0 0 C1.29129322 -0.00644889 2.58258644 -0.01289778 3.91300976 -0.0195421 C5.33371973 -0.01660023 6.75442931 -0.01346483 8.17513847 -0.01015663 C9.69396848 -0.01389521 11.21279657 -0.01849756 12.73162162 -0.02388728 C16.89791108 -0.03610736 21.06412017 -0.03585797 25.23042345 -0.03349853 C29.72685448 -0.0330901 34.22325984 -0.04413206 38.71967888 -0.05361366 C47.52697308 -0.07021994 56.33424051 -0.07572307 65.14154907 -0.07683842 C72.30279289 -0.07778921 79.4640279 -0.08190105 86.62526894 -0.08823967 C106.93761074 -0.10585219 127.24993142 -0.11507869 147.56228091 -0.11357872 C149.20452312 -0.11345885 149.20452312 -0.11345885 150.87994194 -0.11333656 C152.5241944 -0.11321392 152.5241944 -0.11321392 154.20166408 -0.1130888 C171.95925462 -0.11227622 189.71676027 -0.13140677 207.47432627 -0.1596133 C225.71640688 -0.18836026 243.95844613 -0.20215255 262.20054996 -0.20042574 C272.43851612 -0.1997624 282.67639333 -0.2052302 292.91433907 -0.22678185 C301.6328975 -0.24501762 310.35132666 -0.2493214 319.06989594 -0.235763 C323.51508051 -0.22924504 327.96001726 -0.22907354 332.40517807 -0.2464695 C336.4815951 -0.2622577 340.55756901 -0.25927844 344.63397561 -0.24190123 C346.10168849 -0.23884389 347.56943491 -0.24241559 349.0371082 -0.25362138 C363.40401833 -0.35597077 375.67273935 2.27060347 386.4121685 12.25726891 C395.53347532 22.53025587 399.6256525 33.21202518 399.4963665 46.87907982 C399.49354325 47.62655749 399.49072001 48.37403516 399.48781121 49.14416367 C399.47744719 51.63820904 399.4600618 54.13215808 399.44293022 56.62616539 C399.43449896 58.41862287 399.42666607 60.21108324 399.41938591 62.00354576 C399.40764207 64.86515512 399.3954471 67.72675674 399.38141704 70.5883559 C399.34682027 77.67926931 399.33068966 84.77005056 399.32577324 91.86104393 C399.32504055 92.89085158 399.32430786 93.92065924 399.32355297 94.98167318 C399.32088925 99.22768726 399.31884248 103.47370141 399.3170774 107.71971595 C399.31128997 119.77101855 399.2874105 131.82167301 399.21002007 143.87274742 C399.14862518 153.4519163 399.12595071 163.03028966 399.14883244 172.60964066 C399.15947471 177.67699346 399.15047464 182.74260516 399.09450722 187.8096962 C399.04230614 192.575281 399.04148736 197.33812165 399.07987595 202.10381126 C399.0848662 203.85055211 399.07108997 205.59746459 399.03699112 207.3438797 C398.58186707 216.8198886 398.58186707 216.8198886 402.84579659 224.81328583 C405.63995741 226.60859162 408.36068009 227.96250002 411.4121685 229.25726891 C441.95136986 251.23256724 461.9789428 284.37035604 468.4121685 321.25726891 C469.63912681 328.87935229 469.65591059 336.43620439 469.6621685 344.13226891 C469.66318062 345.24491615 469.66318062 345.24491615 469.66421318 346.38004112 C469.64841409 357.29484967 469.25629429 367.65747479 466.4121685 378.25726891 C466.24056206 378.90824547 466.06895561 379.55922203 465.89214897 380.22992516 C455.66475384 418.17822238 431.63365095 449.35148079 397.5996685 469.00726891 C384.36040602 476.35485715 370.2058682 481.19703373 355.4121685 484.25726891 C353.83048882 484.59564781 353.83048882 484.59564781 352.216856 484.94086266 C317.68072808 491.09287561 280.18761097 483.26630494 250.8496685 464.19476891 C245.51737539 460.43775795 240.3810669 456.48272907 235.4121685 452.25726891 C234.45439507 451.44644859 233.49662163 450.63562828 232.50982475 449.80023766 C205.04060177 425.94140785 189.79241905 391.06891928 186.4121685 355.25726891 C185.31330427 339.32684162 187.05271857 323.40080295 190.97149467 307.94086266 C191.24136696 306.87279381 191.51123924 305.80472496 191.78928947 304.70429039 C191.99483955 303.8967733 192.20038963 303.08925621 192.4121685 302.25726891 C191.40886655 302.25580235 190.40556459 302.25433578 189.37185955 302.25282478 C164.92412159 302.21617905 140.47652009 302.15666296 116.02889538 302.07336617 C104.20604865 302.0336097 92.38326816 302.00119995 80.56036186 301.98627281 C70.25176889 301.97323874 59.94332187 301.94622919 49.6348111 301.90265584 C44.17991645 301.88008064 38.72520155 301.86435587 33.27025604 301.86538506 C28.12788844 301.86613399 22.9859176 301.84808958 17.84365273 301.81610107 C15.96405219 301.80763553 14.08440698 301.80582921 12.20479584 301.81146622 C-3.29262221 301.85172534 -17.74075605 300.11787525 -29.77142525 289.29242516 C-36.64957997 282.10221804 -42.69573286 272.40430654 -42.72205257 262.18819141 C-42.72651042 261.38234653 -42.73096826 260.57650164 -42.73556119 259.74623722 C-42.73537683 258.86658284 -42.73519247 257.98692847 -42.73500252 257.0806179 C-42.73867921 256.14166083 -42.74235589 255.20270376 -42.746144 254.23529345 C-42.75717906 251.08107338 -42.76102441 247.92688625 -42.76483345 244.77264977 C-42.7710983 242.51407326 -42.77774511 240.25549779 -42.78474617 237.99692345 C-42.80578857 230.57199382 -42.81614955 223.14706398 -42.82611275 215.72211266 C-42.8301604 213.16542169 -42.83427733 210.60873084 -42.83846283 208.0520401 C-42.85533252 197.41559499 -42.86996652 186.77915328 -42.87721157 176.14269733 C-42.87912134 173.3837687 -42.88104169 170.62484008 -42.88299751 167.86591148 C-42.88348125 167.18022689 -42.88396499 166.4945423 -42.88446339 165.78807939 C-42.89275725 154.68945401 -42.91808369 143.59093664 -42.95057819 132.49235838 C-42.98369757 121.08695431 -43.00133237 109.68163073 -43.00485581 98.27617365 C-43.00720493 91.87680922 -43.01614759 85.47761548 -43.04131699 79.07829666 C-43.06462645 73.05445245 -43.06881916 67.03089097 -43.0585556 61.00701332 C-43.05806082 58.80080474 -43.06436424 56.5945821 -43.07811165 54.38841629 C-43.17878259 37.26955337 -41.28884945 24.7193801 -29.4628315 11.56976891 C-21.74012127 4.19029025 -10.57705953 0.01340991 0 0 Z " fill="#3B97D2" transform="translate(42.58783149719238,12.742731094360352)"/>
<path d="M0 0 C0.81581543 0.34192383 1.63163086 0.68384766 2.47216797 1.03613281 C18.00299784 7.6743837 30.78392283 16.29703754 43 28 C43.87011719 28.79535156 44.74023438 29.59070313 45.63671875 30.41015625 C68.79887107 52.31672827 84.71026356 85.55154075 86.16113281 117.55419922 C86.20711832 121.66134648 86.24666014 125.76759064 86.25 129.875 C86.25067474 130.61676483 86.25134949 131.35852966 86.25204468 132.12277222 C86.23624559 143.03758076 85.84412579 153.40020588 83 164 C82.82839355 164.65097656 82.65678711 165.30195313 82.47998047 165.97265625 C72.25258534 203.92095347 48.22148245 235.09421188 14.1875 254.75 C0.94823751 262.09758824 -13.2063003 266.93976482 -28 270 C-29.05445313 270.22558594 -30.10890625 270.45117188 -31.1953125 270.68359375 C-65.73144042 276.83560671 -103.22455753 269.00903604 -132.5625 249.9375 C-137.89479311 246.18048904 -143.0311016 242.22546017 -148 238 C-148.95777344 237.18917969 -149.91554688 236.37835938 -150.90234375 235.54296875 C-178.37156674 211.68413894 -193.61974945 176.81165038 -197 141 C-199.55463924 103.96494745 -187.32216116 67.04932927 -163 39 C-162.29230469 38.17113281 -161.58460938 37.34226562 -160.85546875 36.48828125 C-139.79038322 12.39808712 -111.37788948 -3.27078439 -80 -9 C-79.08863281 -9.20496094 -78.17726563 -9.40992188 -77.23828125 -9.62109375 C-51.86406781 -14.86968284 -23.57761656 -9.94522133 0 0 Z " fill="#4FBA6F" transform="translate(426,227)"/>
<path d="M0 0 C1.45617036 -0.00706692 2.91233337 -0.01581517 4.3684845 -0.02610779 C8.3044942 -0.04852351 12.24010032 -0.04568083 16.17614937 -0.03678632 C19.46888415 -0.03166051 22.76154415 -0.03898175 26.05427122 -0.04625839 C33.82449659 -0.06323205 41.59452544 -0.05971661 49.36474609 -0.04296875 C57.36746396 -0.02604233 65.36963656 -0.04189456 73.3722949 -0.07419163 C80.25749086 -0.10092092 87.14251742 -0.10815478 94.02776003 -0.09967655 C98.13379812 -0.09475795 102.23950812 -0.09690503 106.34550476 -0.11746407 C110.20683982 -0.13587454 114.06739264 -0.12979815 117.92868614 -0.10526466 C119.34115398 -0.10027399 120.753682 -0.10370118 122.16610146 -0.11641312 C130.17779442 -0.18278577 136.39367734 -0.00338457 142.54101562 5.53344727 C147.6282862 10.63377927 148.6901951 14.7506902 148.68145752 21.7877655 C148.68442864 22.53197433 148.68739976 23.27618316 148.69046092 24.04294378 C148.69915258 26.54393997 148.70065657 29.04488832 148.70214844 31.54589844 C148.70677635 33.33629458 148.71180098 35.12668974 148.7171936 36.91708374 C148.73032389 41.78712226 148.73676402 46.657147 148.74120426 51.52720046 C148.74413454 54.57009489 148.74823931 57.61298554 148.75270844 60.65587807 C148.76638626 70.17703045 148.776051 79.69817421 148.77991033 89.21933573 C148.78438912 100.20846838 148.80192756 111.19747651 148.83091092 122.1865713 C148.8525363 130.68095663 148.8626151 139.17530696 148.86395144 147.66971952 C148.86499904 152.74267791 148.87089704 157.81551931 148.88877106 162.88844872 C148.90526604 167.66302854 148.90740028 172.43740362 148.89863205 177.2120018 C148.89786239 178.96149939 148.90219504 180.71100805 148.9120903 182.46047783 C148.92483788 184.85529759 148.91891811 187.2493953 148.9085083 189.64421082 C148.91656471 190.33090526 148.92462111 191.01759971 148.93292165 191.72510308 C148.8780256 197.1526905 147.86919573 202.87765133 144.19528317 207.0685479 C139.2082216 211.43806494 134.7647669 212.78103526 128.24757385 212.8008728 C126.97883423 212.80940277 125.7100946 212.81793274 124.40290833 212.82672119 C123.00436389 212.82602223 121.60581955 212.82509921 120.20727539 212.82397461 C118.72860373 212.82996153 117.24993519 212.83676746 115.77127075 212.84432983 C111.76094453 212.86197838 107.75070368 212.86668467 103.74034238 212.86796141 C101.23381175 212.86938398 98.72730276 212.87365553 96.22077751 212.87895584 C87.47358702 212.89745086 78.72645744 212.90562693 69.97924805 212.90405273 C61.82952241 212.9028508 53.68006139 212.92396454 45.53040272 212.95554006 C38.52897954 212.98169881 31.52764282 212.99242023 24.52617115 212.99114192 C20.34640408 212.99063225 16.16687233 212.99631802 11.98715401 213.01749802 C8.0562257 213.03687432 4.12575739 213.03700937 0.19481277 213.02246475 C-1.24591685 213.02037492 -2.68667523 213.02508807 -4.12735558 213.03718567 C-6.09769839 213.05265651 -8.06819829 213.04092283 -10.03855896 213.02792358 C-11.69081057 213.02955789 -11.69081057 213.02955789 -13.376441 213.0312252 C-18.31254029 212.23412974 -21.42131798 209.68640992 -24.70898438 206.03344727 C-28.04088344 201.27359146 -28.75409225 197.84591677 -28.73986816 192.05171204 C-28.74581041 191.29510369 -28.75175265 190.53849534 -28.75787497 189.75895947 C-28.77522766 187.22191127 -28.77826357 184.68505206 -28.78125 182.14794922 C-28.79050799 180.32946876 -28.80055753 178.51099219 -28.81134033 176.69252014 C-28.83757928 171.75016305 -28.85047675 166.80786028 -28.85936165 161.86544442 C-28.86522538 158.7764661 -28.87343549 155.68750259 -28.88237 152.59853172 C-28.90971927 142.93054883 -28.92905213 133.26259984 -28.93677378 123.59458095 C-28.94573147 112.44060772 -28.98081054 101.28712513 -29.03877497 90.13330108 C-29.08203975 81.50808789 -29.10218402 72.88301257 -29.10485601 64.25769204 C-29.10695016 59.10800227 -29.11872226 53.95877374 -29.15449524 48.80919838 C-29.18751091 43.96219138 -29.19174269 39.1159909 -29.17421722 34.26891136 C-29.17267922 32.49401562 -29.1813262 30.71907604 -29.20113373 28.94429016 C-29.37613707 12.28085821 -29.37613707 12.28085821 -24.24462891 6.16694069 C-17.04867152 -0.41586393 -9.39705237 -0.04809241 0 0 Z " fill="#9EC8D2" transform="translate(72.458984375,56.466552734375)"/>
<path d="M0 0 C13.97810014 9.2955525 19.50177299 19.32960978 25.625 35.25 C25.625 50.43 25.625 65.61 25.625 81.25 C-9.025 81.25 -43.675 81.25 -79.375 81.25 C-79.375 24.47972973 -79.375 24.47972973 -64.3515625 8.03515625 C-47.09794385 -8.6732737 -20.84243573 -11.77211648 0 0 Z " fill="#955BA5" transform="translate(159.375,187.75)"/>
<path d="M0 0 C2.02271454 1.43051294 3.87964643 2.94587643 5.7421875 4.578125 C6.34675781 5.07828125 6.95132813 5.5784375 7.57421875 6.09375 C13.57633456 11.48127008 19.19487813 20.38786725 19.91918945 28.58007812 C20.4646547 48.8687774 20.4646547 48.8687774 15.7421875 57.578125 C15.31808594 58.361875 14.89398438 59.145625 14.45703125 59.953125 C8.09192989 70.44933671 -1.76031255 77.78320173 -13.6328125 80.890625 C-26.0348714 83.1316988 -37.93663073 81.3928963 -48.5703125 74.390625 C-55.99758715 68.73865014 -61.66406387 62.21072754 -65.2578125 53.578125 C-65.6496875 52.711875 -66.0415625 51.845625 -66.4453125 50.953125 C-70.15630068 40.10562109 -68.85910441 28.88665732 -64.2578125 18.578125 C-58.35045292 6.87309157 -49.32413204 -0.48950228 -37.2578125 -5.421875 C-24.58266459 -9.05861936 -10.99600619 -6.92482051 0 0 Z " fill="#FCD6AD" transform="translate(156.2578125,99.421875)"/>
<path d="M0 0 C2.4375 1.5625 2.4375 1.5625 4 4 C4.77403846 9.41826923 4.77403846 9.41826923 4 12 C1.81640625 14.42578125 1.81640625 14.42578125 -1 17 C-1.89976562 17.85078125 -2.79953125 18.7015625 -3.7265625 19.578125 C-9.45792728 24.86148552 -15.27695247 29.92929411 -21.3515625 34.8203125 C-23.97275119 36.97757399 -26.49154281 39.21311 -29 41.5 C-33.29991791 45.41891252 -37.75919547 49.09170869 -42.28125 52.75 C-44.92147729 54.93501569 -47.4672972 57.19171391 -50 59.5 C-54.29991791 63.41891252 -58.75919547 67.09170869 -63.28125 70.75 C-65.92147729 72.93501569 -68.4672972 75.19171391 -71 77.5 C-75.29991791 81.41891252 -79.75919547 85.09170869 -84.28125 88.75 C-86.92147729 90.93501569 -89.4672972 93.19171391 -92 95.5 C-96.2945449 99.4140156 -100.74679782 103.08357112 -105.265625 106.734375 C-108.00101438 109.00084048 -110.6296375 111.35197129 -113.25 113.75 C-122.8850521 122.44133452 -122.8850521 122.44133452 -128.3125 123.875 C-138.20739261 121.52705938 -147.51255983 108.64185538 -154.60742188 101.52294922 C-156.52098579 99.60395465 -158.43993077 97.69045479 -160.359375 95.77734375 C-161.58365467 94.55240441 -162.8076247 93.32715551 -164.03125 92.1015625 C-164.60202271 91.53281403 -165.17279541 90.96406555 -165.76086426 90.37808228 C-171.83663931 84.26604535 -171.83663931 84.26604535 -172.5 79.125 C-172.39828905 75.45662525 -171.98339649 74.98015677 -169.4375 71.9375 C-165.13187875 69.5106953 -163.72116713 69.68981522 -159 71 C-156.27914549 72.93174455 -154.05038348 75.24899036 -151.75390625 77.66015625 C-151.09792953 78.32462265 -150.44195282 78.98908905 -149.76609802 79.6736908 C-147.68367174 81.78957956 -145.62312952 83.92539945 -143.5625 86.0625 C-142.15048474 87.50462358 -140.73708733 88.94539525 -139.32226562 90.38476562 C-135.86530362 93.90771747 -132.42781369 97.44869002 -129 101 C-120.44478879 96.90331348 -113.4870569 89.58946958 -106.53125 83.25 C-103.02200514 80.13067124 -99.36837877 77.20250867 -95.71875 74.25 C-93.07852271 72.06498431 -90.5327028 69.80828609 -88 67.5 C-83.70008209 63.58108748 -79.24080453 59.90829131 -74.71875 56.25 C-72.07852271 54.06498431 -69.5327028 51.80828609 -67 49.5 C-62.70008209 45.58108748 -58.24080453 41.90829131 -53.71875 38.25 C-51.07852271 36.06498431 -48.5327028 33.80828609 -46 31.5 C-41.69793133 27.57912729 -37.2372017 23.90387308 -32.7109375 20.24609375 C-30.1070838 18.08872217 -27.61227167 15.85256081 -25.125 13.5625 C-21.25791546 10.0778066 -17.34688037 6.66401035 -13.3125 3.375 C-12.52866943 2.69932983 -12.52866943 2.69932983 -11.72900391 2.01000977 C-7.59568096 -1.28066624 -5.0161263 -1.34124241 0 0 Z " fill="#FCFDFC" transform="translate(455,305)"/>
<path d="M0 0 C1.14826263 -0.00571014 2.29652527 -0.01142029 3.47958374 -0.01730347 C4.74558914 -0.01842133 6.01159454 -0.01953918 7.31596375 -0.02069092 C8.65788408 -0.02531842 9.9998031 -0.03034299 11.34172058 -0.03573608 C14.99264737 -0.04886956 18.64355577 -0.05530701 22.2945025 -0.05974674 C24.57503206 -0.06267625 26.85555658 -0.06678085 29.1360836 -0.07125092 C36.27000541 -0.08492902 43.40391571 -0.09459385 50.53784972 -0.09845281 C58.77521576 -0.10293296 67.0124158 -0.12047744 75.24973136 -0.1494534 C81.61498108 -0.17106735 87.9801841 -0.18115695 94.34547013 -0.18249393 C98.14795348 -0.18354227 101.95028086 -0.18945597 105.7527256 -0.20731354 C109.33061248 -0.22378913 112.9082261 -0.22595238 116.48613739 -0.21717453 C118.4234465 -0.21603665 120.36074652 -0.22975846 122.29800415 -0.243927 C123.45472626 -0.23835785 124.61144836 -0.2327887 125.80322266 -0.22705078 C127.30784042 -0.22925062 127.30784042 -0.22925062 128.8428545 -0.2314949 C132.10452234 0.20976803 133.95223509 1.19888806 136.59208679 3.14044189 C138.93377443 6.65297335 139.08832357 8.00513545 138.59208679 12.14044189 C136.44118228 15.47805235 135.3879588 16.87515122 131.59208679 18.14044189 C129.75137345 18.23947461 127.90727773 18.27974343 126.06391907 18.28761292 C124.33946312 18.29834587 124.33946312 18.29834587 122.58016968 18.30929565 C121.31775955 18.31198456 120.05534943 18.31467346 118.75468445 18.31744385 C117.41261622 18.32370986 116.07054971 18.33035678 114.72848511 18.33735657 C110.32105209 18.35837894 105.91361878 18.36875562 101.50614929 18.37872314 C99.98850359 18.38277105 98.47085807 18.38688798 96.95321274 18.39107323 C89.82463688 18.41011904 82.69607136 18.42435267 75.56747496 18.4326852 C67.33856009 18.44246287 59.10991382 18.46879853 50.88109362 18.50918609 C44.52007112 18.53933548 38.15912569 18.55415285 31.79803312 18.55746621 C27.99886172 18.55981761 24.19997749 18.56878961 20.40088272 18.59392738 C16.82702925 18.61719358 13.25365236 18.62144759 9.67974281 18.611166 C7.74480742 18.61043398 5.80989631 18.62953443 3.87506104 18.64923096 C2.71978409 18.64228714 1.56450714 18.63534332 0.3742218 18.62818909 C-1.12844773 18.63177162 -1.12844773 18.63177162 -2.66147423 18.63542652 C-6.16839202 18.00338248 -7.85288988 16.57172465 -10.40791321 14.14044189 C-11.83453539 11.28719752 -11.71825189 9.3058964 -11.40791321 6.14044189 C-7.97997935 0.9985411 -6.01546109 0.01785919 0 0 Z " fill="#E8EEF0" transform="translate(267.4079132080078,65.85955810546875)"/>
<path d="M0 0 C1.36369269 -0.00186483 2.72738388 -0.00590315 4.09106445 -0.01194763 C7.7874932 -0.0219143 11.48315394 -0.00076674 15.17947125 0.02653241 C19.0493147 0.05038116 22.9191434 0.04741761 26.78904724 0.0478363 C33.28641749 0.05246272 39.78349447 0.07609419 46.28076172 0.11230469 C53.7919943 0.15405484 61.30296293 0.17162066 68.81430489 0.17492443 C76.8132073 0.17852442 84.81201478 0.19739849 92.81087756 0.22204471 C95.11517103 0.22827197 97.41945727 0.23190912 99.72375679 0.23507881 C103.34436675 0.24098161 106.96478832 0.25730073 110.58531952 0.28168297 C112.54779531 0.29266779 114.51031783 0.29396185 116.4728241 0.29498291 C117.64066437 0.30495804 118.80850464 0.31493317 120.01173401 0.32521057 C121.02658654 0.32986108 122.04143908 0.33451159 123.08704472 0.33930302 C125.8439381 0.60995352 127.43683173 1.07666135 129.73608398 2.59936523 C131.89359933 5.83563825 131.98971919 6.43515361 131.61108398 10.09936523 C131.54663086 10.87280273 131.48217773 11.64624023 131.41577148 12.44311523 C130.49753222 15.35615013 129.33898927 16.03965111 126.73608398 17.59936523 C124.06863403 17.97688866 124.06863403 17.97688866 120.96704102 17.98031616 C119.78934143 17.98877563 118.61164185 17.99723511 117.39825439 18.00595093 C116.10981628 17.99987823 114.82137817 17.99380554 113.49389648 17.98754883 C112.1204995 17.99161483 110.74710578 17.99695688 109.37371826 18.003479 C105.6464511 18.01715516 101.91943307 18.01185283 98.19216156 18.00234175 C94.29159371 17.99474666 90.3910472 18.00179034 86.49047852 18.00650024 C79.94014659 18.01195824 73.38991613 18.00476505 66.83959961 17.99047852 C59.26644064 17.97415186 51.69352396 17.97944034 44.12037086 17.99595773 C37.61834959 18.00957137 31.11640126 18.01149288 24.61437035 18.00364172 C20.73093062 17.99896451 16.84760478 17.99834162 12.96417236 18.00825119 C9.31318061 18.01691685 5.66250127 18.01090658 2.01154327 17.99356842 C0.03233774 17.98770889 -1.94689421 17.99662256 -3.92608643 18.00595093 C-5.10378601 17.99749146 -6.2814856 17.98903198 -7.49487305 17.98031616 C-8.51839874 17.97918509 -9.54192444 17.97805401 -10.59646606 17.97688866 C-13.66910572 17.54201885 -15.0334192 16.72161318 -17.26391602 14.59936523 C-18.04907227 12.51342773 -18.04907227 12.51342773 -18.32641602 10.22436523 C-18.44114258 9.47413086 -18.55586914 8.72389648 -18.67407227 7.95092773 C-18.19049456 5.17841555 -17.21497811 3.60400974 -15.17526436 1.66993523 C-10.68581289 -0.84466241 -4.99298773 -0.05806969 0 0 Z " fill="#EBEFF0" transform="translate(274.263916015625,136.400634765625)"/>
<path d="M0 0 C0.81970779 -0.00817749 1.63941559 -0.01635498 2.48396301 -0.02478027 C5.20381944 -0.04964554 7.9236236 -0.06615407 10.64355469 -0.08056641 C12.03622181 -0.08855192 12.03622181 -0.08855192 13.45702362 -0.09669876 C18.37221959 -0.12343658 23.28739012 -0.14280856 28.20263672 -0.15722656 C33.27818792 -0.17386672 38.35308884 -0.21863729 43.42839432 -0.26959801 C47.33179463 -0.30326718 51.23504063 -0.31480369 55.13857269 -0.32045364 C57.00927443 -0.32716814 58.87996595 -0.34239538 60.75052643 -0.36634445 C63.37198202 -0.39798945 65.99168454 -0.39803402 68.61328125 -0.390625 C69.38338028 -0.40703033 70.15347931 -0.42343567 70.94691467 -0.44033813 C74.86510981 -0.39510471 77.49355603 0.12823435 80.55462646 2.5105896 C83.06542969 5.19287109 83.06542969 5.19287109 83.69042969 8.69287109 C82.9777236 12.68402517 81.95253805 14.38825154 79.06542969 17.19287109 C75.37093852 18.42436815 71.94179559 18.35637793 68.09326172 18.36987305 C67.28155518 18.37644424 66.46984863 18.38301544 65.63354492 18.38978577 C62.9467764 18.40950063 60.26006368 18.42117611 57.57324219 18.43115234 C56.19662729 18.43726563 56.19662729 18.43726563 54.792202 18.44350243 C49.93650284 18.46435349 45.08083189 18.47866048 40.22509766 18.48803711 C35.2089888 18.49911132 30.19332236 18.53352556 25.17737007 18.57320881 C21.32033458 18.59934237 17.46340515 18.60772594 13.60628891 18.61131859 C11.75710938 18.61619146 9.9079348 18.62782536 8.05884171 18.64635658 C5.47099854 18.67068338 2.88430903 18.66979531 0.29638672 18.6628418 C-0.4663858 18.67565186 -1.22915833 18.68846191 -2.01504517 18.70166016 C-5.70474174 18.66554059 -7.75503251 18.3086958 -10.88650513 16.28849792 C-13.32702388 13.79130369 -13.86191154 12.84680001 -14.24707031 9.38037109 C-13.86292673 5.4621066 -12.64200715 3.97993842 -9.93457031 1.19287109 C-6.798562 -0.37513306 -3.44441944 0.01885521 0 0 Z " fill="#E8EEF0" transform="translate(269.9345703125,171.80712890625)"/>
<path d="M0 0 C0.84125931 -0.0087616 1.68251862 -0.01752319 2.54927063 -0.02655029 C5.32308922 -0.04851168 8.09530655 -0.03400365 10.86914062 -0.01708984 C12.80058091 -0.02045893 14.73201912 -0.02531232 16.66345215 -0.03158569 C20.70862033 -0.03895259 24.75323596 -0.02825737 28.79833984 -0.00488281 C33.9805474 0.02360483 39.16146024 0.00719988 44.3436203 -0.02274513 C48.33113337 -0.04082302 52.31834007 -0.03505782 56.30586243 -0.02210617 C58.21641697 -0.01877352 60.12699943 -0.02285429 62.03752136 -0.03450394 C64.70935614 -0.04722086 67.37910189 -0.02782516 70.05078125 0 C71.23230522 -0.01518173 71.23230522 -0.01518173 72.43769836 -0.03067017 C76.4573415 0.04678653 78.32365065 0.4891303 81.52770996 2.9960022 C83.52539062 5.64697266 83.52539062 5.64697266 83.96289062 8.70947266 C83.53796575 11.56253964 83.19451232 13.31020229 81.52539062 15.64697266 C77.77132505 18.26598749 73.65386364 17.95666403 69.25610352 17.96923828 C68.00906395 17.984133 68.00906395 17.984133 66.73683167 17.99932861 C63.99053626 18.02850547 61.2444717 18.04216252 58.49804688 18.05322266 C56.58760065 18.06472889 54.67715449 18.07624432 52.76670837 18.08776855 C48.76283697 18.10876809 44.75904566 18.12046745 40.75512695 18.12744141 C35.62556144 18.13842222 30.49705474 18.18650685 25.36782169 18.24338531 C21.42240806 18.28063423 17.47724996 18.29104884 13.53167534 18.29411316 C11.64060092 18.30016585 9.74953098 18.31622225 7.85862923 18.34248352 C5.21295605 18.37661186 2.56987644 18.37284835 -0.07592773 18.35986328 C-0.85583069 18.37829285 -1.63573364 18.39672241 -2.43927002 18.41571045 C-5.36131907 18.37080051 -7.74011627 18.23010437 -10.08160591 16.37113953 C-12.28538356 13.85017439 -13.42860886 11.87237518 -14.09960938 8.58447266 C-12.48164124 0.98002242 -6.86460711 -0.08820526 0 0 Z " fill="#EBEFF0" transform="translate(269.474609375,101.35302734375)"/>
<path d="M0 0 C2.69990662 1.79993774 4.5418865 3.083773 6 6 C6.08559118 8.17824961 6.10713412 10.35915255 6.09765625 12.5390625 C6.09443359 13.84101563 6.09121094 15.14296875 6.08789062 16.484375 C6.07953466 17.86458399 6.07106971 19.24479232 6.0625 20.625 C6.05748501 22.01301926 6.0529221 23.40104022 6.04882812 24.7890625 C6.03700985 28.19272673 6.0190739 31.5963687 6 35 C0.06 35 -5.88 35 -12 35 C-12.08089106 30.43714492 -12.14045647 25.87572246 -12.1875 21.3125 C-12.21263672 20.01892578 -12.23777344 18.72535156 -12.26367188 17.39257812 C-12.27333984 16.14541016 -12.28300781 14.89824219 -12.29296875 13.61328125 C-12.3086792 12.46641846 -12.32438965 11.31955566 -12.34057617 10.13793945 C-11.95876461 6.62007281 -11.11890677 4.80754372 -9 2 C-5.48746854 -0.34168764 -4.13530644 -0.49623677 0 0 Z " fill="#894B9D" transform="translate(153,234)"/>
<path d="M0 0 C2.57285724 2.172635 4.48996919 3.97993838 6 7 C6.08543895 9.10528933 6.10714725 11.21331157 6.09765625 13.3203125 C6.09443359 14.57714844 6.09121094 15.83398438 6.08789062 17.12890625 C6.07951172 18.44761719 6.07113281 19.76632813 6.0625 21.125 C6.05748489 22.46484211 6.05292201 23.804686 6.04882812 25.14453125 C6.03701095 28.42970657 6.01907501 31.71485881 6 35 C0.06 35 -5.88 35 -12 35 C-12.09209131 30.96077282 -12.17164044 26.92423647 -12.21972656 22.88452148 C-12.2397799 21.51199977 -12.26703028 20.13956283 -12.30175781 18.76733398 C-12.35054552 16.78927956 -12.37088876 14.81058881 -12.390625 12.83203125 C-12.41157227 11.64327393 -12.43251953 10.4545166 -12.45410156 9.22973633 C-11.910615 5.36426119 -10.70847978 3.75349519 -8 1 C-5.11138291 -0.44430855 -3.20352299 -0.37688506 0 0 Z " fill="#894B9D" transform="translate(118,234)"/>
</svg>
