<?xml version="1.0" encoding="UTF-8"?>
<svg version="1.1" xmlns="http://www.w3.org/2000/svg" width="512" height="512">
<path d="M0 0 C6.85211707 4.4716311 10.71336771 9.73966586 12.59725451 17.70464975 C13.0494713 20.41388668 13.16286061 22.93299955 13.16658401 25.67872906 C13.17042516 26.74495296 13.1742663 27.81117687 13.17822385 28.90971059 C13.17735737 30.07506441 13.17649088 31.24041824 13.17559814 32.44108582 C13.18005483 34.30513572 13.18005483 34.30513572 13.18460155 36.2068432 C13.19177543 39.65373562 13.19446037 43.1005782 13.19519901 46.5474745 C13.19705192 50.26609137 13.20460046 53.98469748 13.21133423 57.70330811 C13.22490862 65.83358797 13.23094091 73.9638629 13.23534489 82.09415221 C13.23810888 87.17231523 13.24234653 92.25047634 13.24684906 97.32863808 C13.25904067 111.39303944 13.26934013 125.45743928 13.27272415 139.52184582 C13.27294372 140.42177602 13.27316328 141.32170623 13.2733895 142.24890705 C13.27360778 143.15097109 13.27382606 144.05303513 13.27405095 144.98243445 C13.27449441 146.81031112 13.27494098 148.63818779 13.27539062 150.46606445 C13.27561205 151.37275135 13.27583348 152.27943824 13.27606162 153.21360049 C13.28000876 167.90173127 13.29746069 182.58981241 13.32075015 197.27792402 C13.34447689 212.36379813 13.35692661 227.44964734 13.35809207 242.5355404 C13.3590081 251.00335253 13.3647422 259.47109998 13.38291168 267.93889427 C13.39833054 275.1501078 13.40342262 282.36123665 13.39517358 289.57246353 C13.39127335 293.24965981 13.39216581 296.92668567 13.40623093 300.60386086 C13.42136112 304.5961116 13.41308482 308.58798025 13.40264893 312.58024597 C13.41473353 314.3115463 13.41473353 314.3115463 13.42706227 316.07782239 C13.36349925 326.48796191 11.72073736 334.78234652 4.3359375 342.41015625 C-1.41977374 347.20821095 -8.01439653 349.06904158 -15.453125 348.70703125 C-22.59542985 347.62957624 -28.59465711 344.8009695 -33.5 339.45703125 C-36.26137697 335.44383006 -37.52996972 330.93876287 -38.96484375 326.328125 C-45.05884712 307.2257683 -79.98506445 291.64961388 -96.50683594 282.96557617 C-106.33828196 277.96908773 -116.59415358 274.04756302 -126.96484375 270.328125 C-128.17043945 269.8952417 -128.17043945 269.8952417 -129.40039062 269.45361328 C-148.94861027 262.57353683 -169.53927502 258.61234903 -189.96484375 255.328125 C-189.990625 256.00617188 -190.01640625 256.68421875 -190.04296875 257.3828125 C-190.78719474 269.59488445 -195.17341886 278.99368192 -204.02734375 287.453125 C-214.54371373 295.91695786 -228.65767411 299.63132633 -241.96484375 299.328125 C-241.85414551 300.0308252 -241.74344727 300.73352539 -241.62939453 301.45751953 C-239.56104308 314.69626018 -237.5634024 327.87443494 -236.73681641 341.25830078 C-236.2804016 347.58080836 -235.21227179 352.64571089 -231.02734375 357.640625 C-227.83952012 359.39718088 -225.72148018 359.77116026 -222.15234375 360.265625 C-215.76597563 361.17684112 -210.80699746 362.85622295 -206.625 367.96484375 C-203.32020724 373.19841236 -202.38740493 378.39641042 -203.65234375 384.390625 C-205.21249986 389.69720862 -207.56722024 393.70119462 -212.33984375 396.640625 C-219.76135362 400.0954658 -227.55759358 399.51141963 -235.58984375 399.515625 C-236.79769531 399.52787109 -238.00554687 399.54011719 -239.25 399.55273438 C-254.68193922 399.57765139 -267.36833 397.48719368 -278.921875 386.62890625 C-288.05477594 376.34347861 -289.07815804 364.61484622 -290.11099243 351.45907593 C-292.79918779 318.03343048 -299.6409996 284.38493563 -318.96484375 256.328125 C-319.34527832 255.7707666 -319.72571289 255.2134082 -320.11767578 254.63916016 C-327.36103076 244.45955637 -336.3096024 241.25909533 -347.74951172 237.16455078 C-361.50554778 231.97079064 -373.32185555 220.16762607 -379.71484375 207.078125 C-384.33151199 195.91846027 -385.49634364 185.01652421 -385.40234375 173.015625 C-385.39897003 172.33558411 -385.39559631 171.65554321 -385.39212036 170.95489502 C-385.26245987 152.90477648 -382.01900462 135.87835036 -369.08203125 122.22265625 C-338.11688899 94.51399574 -290.30707394 92.79025025 -250.94140625 91.8984375 C-249.54298383 91.86281401 -248.144577 91.82657416 -246.7461853 91.7897644 C-240.90600986 91.63617545 -235.06582166 91.48532604 -229.22509766 91.35400391 C-185.09219267 90.35018536 -143.45188806 83.65139644 -102.96484375 65.328125 C-102.10439453 64.94317871 -101.24394531 64.55823242 -100.35742188 64.16162109 C-82.30922132 55.9793475 -65.59195359 45.05757429 -50.40844727 32.34741211 C-48.14202624 30.47454087 -45.82235338 28.70871727 -43.46484375 26.953125 C-39.53420689 23.51580694 -38.80325114 20.09896687 -37.7265625 15.11328125 C-36.10832144 9.19632803 -32.67315501 4.7161279 -27.96484375 0.890625 C-19.08272507 -3.73547848 -9.11733478 -4.69931593 0 0 Z " fill="#F4F4F4" transform="translate(384.96484375,69.671875)"/>
<path d="M0 0 C0.13187858 16.54487504 0.26232049 33.08976074 0.39115143 49.63465977 C0.45103088 57.32049139 0.51134282 65.00631912 0.57275391 72.69213867 C0.62641418 79.40806526 0.67918064 86.12399823 0.73096704 92.83993953 C0.75829719 96.38053238 0.78601111 99.92112107 0.81480408 103.46170235 C0.97311941 122.97504196 1.02891271 142.48613748 1 162 C2.01252335 161.99492432 3.02504669 161.98984863 4.06825256 161.98461914 C5.41928065 161.98051278 6.77030912 161.97653183 8.12133789 161.97265625 C9.11833584 161.96715759 9.11833584 161.96715759 10.13547516 161.96154785 C15.95376376 161.94906632 21.65890515 162.37069019 27.4375 163 C28.37142578 163.09539062 29.30535156 163.19078125 30.26757812 163.2890625 C32.51251338 163.51931227 34.75649982 163.7562329 37 164 C36.50423591 177.03859563 32.42792489 187.05741582 22.9375 196.125 C12.42113002 204.58883286 -1.69283036 208.30320133 -15 208 C-14.88930176 208.7027002 -14.77860352 209.40540039 -14.66455078 210.12939453 C-12.59619933 223.36813518 -10.59855865 236.54630994 -9.77197266 249.93017578 C-9.31555785 256.25268336 -8.24742804 261.31758589 -4.0625 266.3125 C-0.87467637 268.06905588 1.24336357 268.44303526 4.8125 268.9375 C11.19886812 269.84871612 16.15784629 271.52809795 20.33984375 276.63671875 C23.64463651 281.87028736 24.57743882 287.06828542 23.3125 293.0625 C21.75234389 298.36908362 19.39762351 302.37306962 14.625 305.3125 C7.20349013 308.7673408 -0.59274983 308.18329463 -8.625 308.1875 C-9.83285156 308.19974609 -11.04070312 308.21199219 -12.28515625 308.22460938 C-27.71709547 308.24952639 -40.40348625 306.15906868 -51.95703125 295.30078125 C-61.08993219 285.01535361 -62.11331429 273.28672122 -63.14614868 260.13095093 C-65.83434404 226.70530548 -72.67615585 193.05681063 -92 165 C-92.38043457 164.4426416 -92.76086914 163.8852832 -93.15283203 163.31103516 C-100.39618701 153.13143137 -109.34475865 149.93097033 -120.78466797 145.83642578 C-134.54070403 140.64266564 -146.3570118 128.83950107 -152.75 115.75 C-157.36666824 104.59033527 -158.53149989 93.68839921 -158.4375 81.6875 C-158.43412628 81.00745911 -158.43075256 80.32741821 -158.42727661 79.62677002 C-158.29761612 61.57665148 -155.05416087 44.55022536 -142.1171875 30.89453125 C-110.29359828 2.41770326 -61.14919179 1.47655893 -20.8125 0.4375 C-19.22850859 0.39413635 -17.64452415 0.35051766 -16.06054688 0.30664062 C-4.80326205 0 -4.80326205 0 0 0 Z " fill="#EE524F" transform="translate(158,161)"/>
<path d="M0 0 C6.85211707 4.4716311 10.71336771 9.73966586 12.59725451 17.70464975 C13.0494713 20.41388668 13.16286061 22.93299955 13.16658401 25.67872906 C13.17042516 26.74495296 13.1742663 27.81117687 13.17822385 28.90971059 C13.17735737 30.07506441 13.17649088 31.24041824 13.17559814 32.44108582 C13.17856927 33.68378575 13.18154039 34.92648569 13.18460155 36.2068432 C13.19177543 39.65373562 13.19446037 43.1005782 13.19519901 46.5474745 C13.19705192 50.26609137 13.20460046 53.98469748 13.21133423 57.70330811 C13.22490862 65.83358797 13.23094091 73.9638629 13.23534489 82.09415221 C13.23810888 87.17231523 13.24234653 92.25047634 13.24684906 97.32863808 C13.25904067 111.39303944 13.26934013 125.45743928 13.27272415 139.52184582 C13.2730535 140.87174113 13.2730535 140.87174113 13.2733895 142.24890705 C13.27371692 143.60200311 13.27371692 143.60200311 13.27405095 144.98243445 C13.27449441 146.81031112 13.27494098 148.63818779 13.27539062 150.46606445 C13.27561205 151.37275135 13.27583348 152.27943824 13.27606162 153.21360049 C13.28000876 167.90173127 13.29746069 182.58981241 13.32075015 197.27792402 C13.34447689 212.36379813 13.35692661 227.44964734 13.35809207 242.5355404 C13.3590081 251.00335253 13.3647422 259.47109998 13.38291168 267.93889427 C13.39833054 275.1501078 13.40342262 282.36123665 13.39517358 289.57246353 C13.39127335 293.24965981 13.39216581 296.92668567 13.40623093 300.60386086 C13.42136112 304.5961116 13.41308482 308.58798025 13.40264893 312.58024597 C13.41070533 313.73444619 13.41876173 314.88864641 13.42706227 316.07782239 C13.36349925 326.48796191 11.72073736 334.78234652 4.3359375 342.41015625 C-1.41977374 347.20821095 -8.01439653 349.06904158 -15.453125 348.70703125 C-22.47832611 347.64724197 -28.65551775 344.9041031 -33.38159651 339.50398576 C-39.05631436 331.70520641 -39.54338164 322.72098534 -39.46604919 313.41098022 C-39.47158359 312.15428107 -39.47711799 310.89758191 -39.48282009 309.60280097 C-39.49747079 306.14458771 -39.48745634 302.68683463 -39.47308338 299.22863674 C-39.46191796 295.4876331 -39.47393439 291.74669111 -39.48292542 288.00569153 C-39.49682136 280.68949282 -39.48932915 273.37346733 -39.47424983 266.05727695 C-39.4573475 257.53053359 -39.46060524 249.00383286 -39.46434391 240.47707792 C-39.47021563 225.26072537 -39.45607702 210.04445571 -39.43139648 194.828125 C-39.40746929 180.07451268 -39.4003964 165.32101105 -39.41088867 150.56738281 C-39.42230539 134.4851263 -39.42421927 118.40292091 -39.40979058 102.320665 C-39.4082648 100.60496752 -39.40674444 98.88927003 -39.40522957 97.17357254 C-39.40447175 96.32950196 -39.40371394 95.48543138 -39.40293316 94.61578291 C-39.39819683 88.67672284 -39.40003709 82.73768566 -39.40429497 76.79862595 C-39.40922832 69.55932994 -39.40320722 62.32013844 -39.38340067 55.08086632 C-39.37354913 51.38958904 -39.36840039 47.69847067 -39.37629318 44.00718498 C-39.38468236 40.00174095 -39.36973159 35.99671831 -39.3525238 31.99130249 C-39.35853385 30.83050025 -39.36454389 29.66969802 -39.37073606 28.47371995 C-39.29591819 18.89503107 -37.62312705 10.5506696 -30.96484375 3.328125 C-22.01445064 -3.71792915 -10.2816412 -5.29943031 0 0 Z " fill="#EF5250" transform="translate(384.96484375,69.671875)"/>
<path d="M0 0 C5.25504767 0.94071073 10.50518852 1.88857321 15.734375 2.96484375 C17.40535613 3.29363835 19.07729426 3.61759483 20.75 3.9375 C21.68448975 4.11732422 22.61897949 4.29714844 23.58178711 4.48242188 C30.38114727 5.67093874 37.07371438 6.21618445 43.95703125 6.50390625 C45.7210442 6.59025903 47.48504156 6.67693088 49.24902344 6.76391602 C51.89792811 6.89246205 54.53925975 6.99963547 57.19104004 7.04122925 C62.68594752 7.12762757 67.73010789 7.35573907 73 9 C76.41132144 12.60577617 77.69846086 16.26801568 79 21 C79.50059692 22.36093667 80.00177584 23.72165962 80.50390625 25.08203125 C81.72251499 29.37639048 82.90317031 33.67293701 84 38 C84.21011719 38.81774902 84.42023438 39.63549805 84.63671875 40.47802734 C88.25829913 54.89027109 90.23254007 69.3908417 91.88212585 84.13146973 C92.10351363 86.10754884 92.32981135 88.08307585 92.55615234 90.05859375 C92.86022104 92.75875057 93.14631083 95.45680132 93.41650391 98.16015625 C93.56472777 99.50268185 93.71362909 100.84513286 93.86328125 102.1875 C93.98614502 103.37730469 94.10900879 104.56710937 94.2355957 105.79296875 C95.41956901 110.76028698 97.81936993 113.21291328 102 116 C103.88694454 116.32707039 105.78528808 116.59085943 107.6875 116.8125 C114.08413483 117.81801696 119.14146985 119.50809291 123.33984375 124.63671875 C126.64463651 129.87028736 127.57743882 135.06828542 126.3125 141.0625 C124.75234389 146.36908362 122.39762351 150.37306962 117.625 153.3125 C110.20349013 156.7673408 102.40725017 156.18329463 94.375 156.1875 C93.16714844 156.19974609 91.95929688 156.21199219 90.71484375 156.22460938 C75.28290453 156.24952639 62.59651375 154.15906868 51.04296875 143.30078125 C41.91006781 133.01535361 40.88668571 121.28672122 39.85385132 108.13095093 C36.86927404 71.02002393 29.03792056 30.76066809 2.08984375 3.1953125 C0 1 0 1 0 0 Z " fill="#3F9FFE" transform="translate(55,313)"/>
<path d="M0 0 C0.99 0.495 0.99 0.495 2 1 C2.65277964 3.27286001 3.22131362 5.57011289 3.75 7.875 C7.57468157 23.15740472 16.03332992 34.49262024 29.42382812 42.8762207 C67.05864386 65.21563009 116.72305877 63.38942665 159 64 C159 74.23 159 84.46 159 95 C163.95 95 168.9 95 174 95 C177.83524878 95.27694898 181.62077178 95.58434454 185.4375 96 C186.37142578 96.09539062 187.30535156 96.19078125 188.26757812 96.2890625 C190.51251338 96.51931227 192.75649982 96.7562329 195 97 C194.50423591 110.03859563 190.42792489 120.05741582 180.9375 129.125 C170.02592919 137.90690019 155.74086553 141.26972255 142 141 C141.72905518 139.80008423 141.72905518 139.80008423 141.45263672 138.57592773 C136.47706033 116.2174313 136.47706033 116.2174313 128 95 C125.36943459 94.65309105 122.8237911 94.43434405 120.1796875 94.2890625 C118.52373871 94.18021943 116.86781517 94.0709918 115.21191406 93.96142578 C114.34022583 93.90698303 113.4685376 93.85254028 112.57043457 93.79644775 C96.8536433 92.7967542 81.3985307 91.44670191 66 88 C65.16678223 87.81711426 64.33356445 87.63422852 63.47509766 87.44580078 C43.27061352 82.89714729 22.78111009 75.20861933 10.31640625 57.625 C1.59725583 43.70914895 -0.32880893 30.54512358 -0.125 14.375 C-0.11494398 12.97526686 -0.10582279 11.57552669 -0.09765625 10.17578125 C-0.07426238 6.78367075 -0.04148173 3.3919294 0 0 Z " fill="#D44A47" transform="translate(0,228)"/>
<path d="M0 0 C0.33 0 0.66 0 1 0 C1 98.67 1 197.34 1 299 C-2.60073826 297.19963087 -4.46996686 295.77738916 -7.3125 293.0625 C-30.27006886 272.11581308 -58.9531626 257.4176202 -88 247 C-88.80373047 246.71141113 -89.60746094 246.42282227 -90.43554688 246.12548828 C-121.76284921 235.09971514 -154.08742199 231.97172126 -187 230 C-187 220.1 -187 210.2 -187 200 C-152.95287656 199.26384598 -120.26112036 203.91239868 -88 215 C-86.19402344 215.60521484 -86.19402344 215.60521484 -84.3515625 216.22265625 C-52.82319509 227.17171791 -25.47394616 244.56554935 -1 267 C-0.505 134.835 -0.505 134.835 0 0 Z " fill="#E1DFDF" transform="translate(346,93)"/>
<path d="M0 0 C0.33 0 0.66 0 1 0 C1 10.23 1 20.46 1 31 C5.95 31 10.9 31 16 31 C19.83524878 31.27694898 23.62077178 31.58434454 27.4375 32 C28.37142578 32.09539062 29.30535156 32.19078125 30.26757812 32.2890625 C32.51251338 32.51931227 34.75649982 32.7562329 37 33 C36.50423591 46.03859563 32.42792489 56.05741582 22.9375 65.125 C12.02592919 73.90690019 -2.25913447 77.26972255 -16 77 C-16.18062988 76.20005615 -16.36125977 75.4001123 -16.54736328 74.57592773 C-20.94243989 54.66042675 -20.94243989 54.66042675 -27.93359375 35.5546875 C-29 33 -29 33 -29 30 C-19.43 30.33 -9.86 30.66 0 31 C0 20.77 0 10.54 0 0 Z " fill="#EE5350" transform="translate(158,292)"/>
<path d="M0 0 C5.25504767 0.94071073 10.50518852 1.88857321 15.734375 2.96484375 C17.40535613 3.29363835 19.07729426 3.61759483 20.75 3.9375 C21.68448975 4.11732422 22.61897949 4.29714844 23.58178711 4.48242188 C30.38114727 5.67093874 37.07371438 6.21618445 43.95703125 6.50390625 C45.7210442 6.59025903 47.48504156 6.67693088 49.24902344 6.76391602 C51.89792811 6.89246205 54.53925975 6.99963547 57.19104004 7.04122925 C62.68579501 7.12762518 67.72855745 7.3618924 73 9 C76.44415056 12.59048454 77.7008595 16.25822829 79 21 C79.29430908 21.83950195 79.58861816 22.67900391 79.8918457 23.54394531 C80.64574924 25.72225227 81.27766844 27.89932624 81.875 30.125 C82.08640625 30.86492187 82.2978125 31.60484375 82.515625 32.3671875 C84 37.64924919 84 37.64924919 84 40 C71.66477159 40.43938149 59.52627467 39.67402571 47.25 38.5625 C46.50034973 38.49501556 45.75069946 38.42753113 44.97833252 38.35800171 C40.31580555 37.93432672 35.65495331 37.50090115 31 37 C29.73945801 36.88946289 28.47891602 36.77892578 27.18017578 36.66503906 C24 36 24 36 22.52197266 34.51635742 C22.2388623 33.88576416 21.95575195 33.2551709 21.6640625 32.60546875 C21.32673096 31.90276855 20.98939941 31.20006836 20.6418457 30.47607422 C20.13850708 29.34322998 20.13850708 29.34322998 19.625 28.1875 C14.48332572 17.57925014 7.81960694 8.82212065 0 0 Z " fill="#3A8FE5" transform="translate(55,313)"/>
<path d="M0 0 C0.33 0 0.66 0 1 0 C1.07493936 4.37415276 1.12896881 8.74795155 1.16479492 13.12255859 C1.17975184 14.60634889 1.20012495 16.09009599 1.22631836 17.57373047 C1.59399314 38.95654204 1.59399314 38.95654204 -5.5625 46.875 C-11.05272823 52.54589387 -17.14187111 55.09354506 -25 55.5 C-32.16940534 55.15109644 -38.49145327 52.71267152 -43.875 47.9375 C-51.57322214 39.08020872 -51.45271628 28.983458 -50.75 17.8125 C-50.68152722 16.46559826 -50.61510798 15.11859049 -50.55078125 13.77148438 C-50.38725844 10.51270845 -50.20327137 7.25649685 -50 4 C-49.69006104 4.6202002 -49.38012207 5.24040039 -49.06079102 5.87939453 C-45.36065621 13.2762578 -41.60247704 18.2378153 -34 22 C-26.20048205 23.97380439 -19.26949318 23.35826308 -12 20 C-5.67881333 16.17364975 -2.52403016 10.5354241 -0.75 3.5625 C-0.5025 2.386875 -0.255 1.21125 0 0 Z " fill="#D44A47" transform="translate(397,363)"/>
<path d="M0 0 C1.63023814 3.26047629 1.4673535 5.37801035 1 9 C-0.2109375 10.74842834 -0.2109375 10.74842834 -1.875 12.56665039 C-2.51373047 13.26621857 -3.15246094 13.96578674 -3.81054688 14.68655396 C-11.0222141 22.3066317 -18.40659228 29.75578903 -25.796875 37.2019043 C-27.94057374 39.36351627 -30.07539727 41.53336086 -32.203125 43.71069336 C-34.79147602 46.35926532 -37.39428063 48.99278199 -40.00805664 51.61625862 C-40.99554255 52.61227732 -41.97790518 53.61340403 -42.95483398 54.61977959 C-44.32020432 56.02412498 -45.7066134 57.40792146 -47.09375 58.79077148 C-47.87427734 59.58160629 -48.65480469 60.3724411 -49.45898438 61.1872406 C-52.67406747 63.48087943 -55.08679304 63.82030362 -59 64 C-61.94755732 62.65437601 -63.54277272 61.91445456 -65 59 C-65.48205698 54.7251091 -65.48109972 52.68607545 -62.97686768 49.11489868 C-62.03805317 48.14687202 -61.07972985 47.19752263 -60.10644531 46.26416016 C-59.58617767 45.73805145 -59.06591003 45.21194275 -58.52987671 44.66989136 C-56.81249189 42.94212187 -55.07134118 41.24073469 -53.328125 39.5390625 C-52.12570296 38.34208517 -50.9246101 37.14377126 -49.72479248 35.94418335 C-47.20991755 33.43702993 -44.683871 30.94192453 -42.1484375 28.45556641 C-38.89856567 25.26802367 -35.671021 22.05899248 -32.45070267 18.84162331 C-29.9725022 16.36812275 -27.48634811 13.90275421 -24.99733734 11.44013596 C-23.80437781 10.25923684 -22.6130873 9.0766492 -21.42350006 7.89235306 C-19.76018738 6.24025 -18.08730805 4.59851125 -16.41113281 2.95947266 C-15.92057404 2.46912537 -15.43001526 1.97877808 -14.92459106 1.47357178 C-9.42012197 -3.86044599 -6.75800783 -3.44275871 0 0 Z " fill="#35464F" transform="translate(494,46)"/>
<path d="M0 0 C11.28122006 2.65440472 21.98971552 18.14708411 30.22866821 26.29453945 C32.98990278 29.02507815 35.75858567 31.74700673 38.54638672 34.45043945 C41.26421671 37.0862936 43.96187226 39.74130152 46.64645386 42.41099739 C47.66667199 43.41900122 48.69374443 44.42011856 49.72781372 45.413908 C58.78066822 54.13087901 58.78066822 54.13087901 58.90625 59.26977539 C58.1875 62.75 58.1875 62.75 56.6875 65.25 C53.24348676 67.31640794 50.0659824 67.40759865 46.1875 66.75 C43.22010803 64.75137329 43.22010803 64.75137329 40.42993164 61.91650391 C39.91343048 61.40277725 39.39692932 60.8890506 38.86477661 60.35975647 C37.17261028 58.66711743 35.5105984 56.94788081 33.84765625 55.2265625 C32.67489779 54.04141079 31.50042669 52.85795158 30.32432556 51.67611694 C27.24056451 48.56754327 24.18199593 45.43526776 21.12768555 42.29779053 C18.62543308 39.73542999 16.10637321 37.18996751 13.58615971 34.64528847 C8.3863576 29.39489158 3.19757829 24.13350833 -1.96069336 18.84228516 C-2.87588242 17.90518707 -3.79107147 16.96808899 -4.73399353 16.00259399 C-7.12209492 13.41447462 -7.72406694 12.41324795 -8.1875 8.9375 C-7.8125 5.75 -7.8125 5.75 -5.6875 2.875 C-2.8125 0.75 -2.8125 0.75 0 0 Z " fill="#35464E" transform="translate(436.8125,374.25)"/>
<path d="M0 0 C1.10051697 -0.01007584 1.10051697 -0.01007584 2.2232666 -0.02035522 C4.65037801 -0.03936381 7.0772133 -0.0432609 9.50439453 -0.04541016 C11.19206862 -0.05183638 12.87974159 -0.05856461 14.56741333 -0.06558228 C18.10649193 -0.07756238 21.64547286 -0.08126238 25.18457031 -0.08007812 C29.71646486 -0.07987496 34.24773215 -0.10717132 38.77947807 -0.14162254 C42.26594918 -0.1638765 45.75226901 -0.16791613 49.23880386 -0.16685867 C50.90934536 -0.16921713 52.57989086 -0.17805445 54.2503624 -0.19352341 C56.58922791 -0.21315267 58.92673695 -0.20735841 61.265625 -0.1953125 C61.95359161 -0.20655151 62.64155823 -0.21779053 63.35037231 -0.22937012 C68.06285557 -0.16779367 70.46129367 0.95157236 73.76220703 4.29052734 C74.39111328 6.29052734 74.39111328 6.29052734 74.32470703 8.29052734 C74.32599609 8.95052734 74.32728516 9.61052734 74.32861328 10.29052734 C73.48512511 13.26891316 72.20074792 14.38784683 69.76220703 16.29052734 C67.07163641 16.68027819 64.79136541 16.82834414 62.10375977 16.79223633 C60.95431381 16.80034081 60.95431381 16.80034081 59.78164673 16.80860901 C57.25263668 16.82110076 54.72476396 16.80460476 52.19580078 16.78662109 C50.43750448 16.78677606 48.67920783 16.78826458 46.9209137 16.79103088 C43.23805622 16.79241502 39.55558814 16.77985336 35.87280273 16.75708008 C31.14910759 16.72867438 26.42605844 16.73143816 21.70231533 16.74417019 C18.07264169 16.75112 14.44311774 16.74334646 10.81346321 16.73091316 C9.07151933 16.72639333 7.32955941 16.7260665 5.58761406 16.72997856 C3.15515985 16.73288452 0.72360092 16.71641498 -1.70874023 16.69458008 C-2.43037857 16.69908173 -3.15201691 16.70358337 -3.89552307 16.70822144 C-6.77727968 16.66517454 -8.75484814 16.62971071 -11.15367126 14.94496155 C-12.83314062 12.38199142 -13.11597913 10.33587335 -13.23779297 7.29052734 C-10.30472296 0.83777332 -6.6215902 -0.00867268 0 0 Z " fill="#36464E" transform="translate(438.23779296875,233.70947265625)"/>
</svg>
